{"glyphs":{"0":{"ha":642,"x_min":17,"x_max":616,"o":"m 552 509 l 552 120 q 555 116 553 118 q 557 113 556 115 q 560 109 559 111 q 563 106 562 107 l 565 104 l 566 98 q 568 94 566 96 q 570 82 570 88 l 570 81 q 571 78 570 81 l 572 75 l 572 47 l 561 50 q 449 65 490 65 q 224 7 310 65 l 218 3 l 213 7 q 138 48 163 39 l 87 56 l 81 56 q 50 52 79 56 q 48 52 49 52 q 47 52 48 52 l 47 52 q 41 51 45 51 l 40 51 q 38 50 39 50 q 36 50 37 50 l 31 47 l 17 58 l 17 66 q 24 90 17 79 q 42 113 31 102 q 63 132 52 124 q 87 146 75 140 l 87 531 q 69 570 69 547 l 69 578 l 71 580 l 71 608 l 85 600 q 116 590 96 593 q 168 586 136 586 q 313 604 250 586 q 424 659 377 623 l 431 663 l 437 659 q 504 609 475 625 q 550 593 532 593 q 604 604 567 593 l 616 608 l 616 579 q 593 531 616 553 q 552 509 575 515 m 385 119 l 385 502 q 298 541 343 506 q 250 535 280 536 l 250 158 l 251 157 q 305 140 267 154 l 336 125 q 347 120 341 123 q 357 115 352 118 l 360 115 q 385 119 376 115 z "},"1":{"ha":475,"x_min":1,"x_max":446,"o":"m 345 156 q 354 151 349 153 q 365 144 359 148 l 395 169 l 446 127 l 274 1 l 268 6 q 120 55 214 55 q 80 53 93 55 q 64 47 68 50 l 60 42 l 1 66 l 12 77 q 23 87 18 82 q 34 98 28 92 q 53 115 45 108 l 57 117 q 144 164 93 151 l 144 506 q 142 516 144 510 q 132 529 139 522 q 99 548 117 543 l 79 551 l 51 555 l 42 556 l 42 607 l 52 607 q 58 606 55 607 l 62 606 l 64 606 q 71 605 66 605 q 79 606 75 605 q 88 608 83 606 q 229 665 181 627 l 233 669 l 239 666 q 292 613 275 649 q 309 525 309 578 l 309 169 q 314 167 311 168 q 323 165 318 166 l 328 163 q 336 160 332 162 q 345 156 340 158 z "},"2":{"ha":565,"x_min":0,"x_max":563,"o":"m 113 130 l 113 126 l 113 124 q 112 117 112 121 l 104 122 q 108 126 106 124 q 113 130 111 127 m 113 134 l 113 130 q 108 126 111 127 q 104 122 106 124 l 112 117 q 113 123 112 121 l 113 126 l 113 130 q 302 193 199 193 q 481 144 393 193 l 507 166 l 563 128 l 414 5 l 408 9 q 223 63 321 63 q 20 12 108 63 l 3 1 l 6 22 q 10 57 9 40 q 13 92 12 75 q 15 129 14 110 q 16 167 16 147 l 18 233 q 47 304 21 281 q 80 324 60 315 q 125 341 99 333 q 132 344 127 342 q 141 347 136 345 q 153 350 146 348 q 168 354 159 351 l 180 357 l 184 359 l 189 359 l 191 359 q 204 362 193 359 q 237 372 216 365 q 298 396 282 385 q 314 413 314 407 l 314 553 q 257 514 290 527 q 185 500 224 500 q 70 524 117 500 q 18 564 36 540 q 0 622 0 589 l 0 639 l 14 631 q 83 616 43 616 q 210 673 150 616 l 217 680 l 224 672 q 330 616 253 636 q 458 600 393 600 l 459 600 l 462 601 l 473 601 l 475 601 l 482 601 q 485 602 483 602 l 489 602 q 495 602 492 602 q 502 602 498 602 l 534 602 l 509 583 q 488 563 494 572 q 483 549 483 555 l 483 405 q 483 404 483 404 q 484 403 484 404 q 485 400 484 401 q 487 397 486 399 q 493 387 489 393 q 502 372 496 380 l 512 357 l 494 356 q 401 344 452 353 q 291 320 351 336 q 181 286 222 302 q 126 256 141 270 q 116 242 118 249 l 116 156 q 115 149 116 154 l 115 142 q 113 134 115 140 z "},"3":{"ha":602,"x_min":0,"x_max":583,"o":"m 373 542 q 275 511 334 511 q 268 509 272 509 q 259 509 264 509 q 113 547 169 509 q 83 576 94 561 q 73 610 73 591 l 73 619 l 74 621 l 74 654 l 91 637 q 109 623 101 627 q 123 618 117 618 q 129 617 127 618 l 130 617 q 137 616 132 616 q 189 629 162 616 q 245 669 216 642 l 252 674 l 258 669 q 456 597 351 597 q 553 620 495 597 l 583 631 l 565 604 q 547 573 553 586 q 542 552 542 560 l 542 420 q 562 387 542 402 l 583 370 l 451 354 q 430 350 439 352 q 412 347 420 349 q 441 345 425 345 q 479 344 458 344 l 481 343 l 482 343 q 487 343 484 343 q 492 342 489 343 l 527 342 l 528 342 l 530 343 l 535 343 l 548 343 q 556 343 551 343 q 566 344 561 344 l 576 344 l 565 327 q 552 306 555 313 q 549 294 549 298 l 549 131 q 553 112 549 123 q 568 85 557 100 l 572 77 l 555 62 l 550 62 q 469 72 513 72 q 457 72 463 72 q 446 71 452 71 q 418 66 432 68 q 390 61 403 64 q 368 57 378 59 q 336 49 347 53 q 269 7 296 34 l 262 1 l 255 7 q 134 55 199 55 q 22 21 85 55 l 0 9 l 7 33 q 61 111 22 80 q 165 157 101 141 q 204 164 182 162 q 252 166 227 166 l 259 166 q 267 165 264 166 l 267 165 q 275 164 271 164 q 283 163 279 164 q 294 163 288 163 q 305 161 299 162 q 331 153 319 157 q 353 146 342 149 q 367 140 361 143 q 380 135 374 138 l 380 283 q 377 286 378 285 q 373 288 375 287 l 372 290 q 368 291 370 290 q 365 292 366 292 q 355 296 361 294 q 278 311 307 311 l 274 311 q 254 305 271 311 q 205 287 237 299 l 191 282 l 191 412 l 208 399 q 267 379 235 379 q 373 408 315 379 l 373 542 z "},"4":{"ha":648,"x_min":1,"x_max":637,"o":"m 523 513 l 523 258 l 553 258 q 573 266 558 258 q 612 289 587 273 l 627 299 l 627 139 l 612 148 q 577 166 592 159 q 563 173 570 170 q 549 180 556 176 q 532 182 540 182 q 523 182 529 182 l 523 151 q 529 148 526 150 q 536 145 532 146 q 544 141 540 143 q 553 136 549 139 l 583 161 l 637 121 l 488 1 l 481 5 q 333 52 416 52 q 254 43 300 52 l 236 39 l 243 58 q 321 132 261 100 q 345 144 335 139 q 361 150 355 149 l 362 155 q 361 161 361 158 q 361 169 361 165 l 361 184 l 11 184 l 23 203 l 27 210 q 31 216 27 210 l 31 221 l 32 222 l 32 227 l 35 230 l 35 292 l 33 294 l 33 296 q 10 327 28 309 l 1 336 l 12 343 q 65 378 39 360 q 118 413 92 395 q 170 450 144 431 q 220 489 195 469 q 268 524 238 500 q 338 581 297 547 l 408 647 l 408 679 l 425 661 q 474 612 455 628 q 502 594 493 597 q 518 592 510 593 q 534 591 526 591 q 541 591 537 591 q 549 592 544 591 q 568 596 557 593 l 581 600 l 581 574 l 579 570 l 580 568 l 578 565 q 555 535 565 545 q 523 513 543 524 m 361 258 l 361 505 l 193 380 l 193 258 l 361 258 z "},"5":{"ha":576,"x_min":-32,"x_max":550,"o":"m 440 74 l 439 74 q 436 74 438 74 q 433 75 434 75 q 430 75 432 75 q 416 75 422 75 q 407 76 410 75 q 212 6 293 76 l 206 1 l 200 5 q 69 58 127 58 q -12 37 26 58 l -32 26 l -26 49 q 38 134 -13 107 q 172 161 88 161 l 183 161 l 186 161 l 187 161 q 312 130 245 161 l 321 133 l 321 319 l 317 320 q 306 323 311 321 q 294 328 300 326 q 289 330 291 329 q 286 331 288 330 q 281 333 283 332 q 277 335 279 334 q 261 343 270 337 q 241 357 252 349 l 136 322 l 79 271 l 5 357 l 64 374 l 64 646 l 545 646 l 544 633 q 522 596 540 612 q 519 592 521 594 q 515 588 517 590 q 508 580 513 585 q 499 570 504 575 q 490 560 495 566 q 479 549 484 555 q 471 539 475 544 q 391 513 440 513 l 140 515 l 140 398 l 353 473 l 357 469 q 490 410 418 410 q 530 417 497 410 l 534 418 l 550 408 l 549 401 q 529 361 546 379 q 484 330 512 344 l 484 142 q 508 87 484 113 l 525 69 l 488 69 q 465 72 475 69 q 451 72 457 72 q 441 74 445 73 l 440 74 z "},"6":{"ha":608,"x_min":0,"x_max":581,"o":"m 363 636 l 363 640 l 387 642 l 390 636 q 421 603 401 616 q 472 585 441 590 l 475 584 l 489 583 q 504 587 494 585 q 528 597 513 590 l 543 603 l 542 587 q 524 539 541 559 q 477 505 507 519 q 372 486 430 486 q 245 531 294 486 l 229 528 l 229 361 l 333 401 q 372 414 354 404 q 378 416 375 415 q 384 418 381 417 q 388 420 386 419 q 393 423 391 422 q 402 430 397 428 l 408 433 q 413 436 410 435 q 420 441 416 438 l 427 447 l 433 439 q 532 382 478 382 l 534 382 l 536 382 q 538 384 537 383 q 542 385 540 384 q 553 389 547 387 q 568 395 559 392 l 581 400 l 581 360 l 580 359 l 580 355 l 578 353 q 569 339 575 346 q 556 326 564 332 q 541 315 549 320 q 526 307 533 311 l 526 117 q 528 102 526 108 l 530 102 l 533 96 q 534 92 534 94 q 535 87 535 90 q 539 83 538 85 q 541 79 539 81 q 542 74 542 77 q 544 67 543 71 l 548 54 l 534 54 l 525 54 q 520 54 522 54 q 515 54 517 54 q 508 55 511 54 q 500 56 506 56 q 490 56 493 56 l 484 56 q 479 57 481 56 q 475 57 477 57 q 471 58 473 58 l 465 58 l 464 58 q 235 4 331 58 l 231 1 l 226 3 q 75 52 134 52 q 14 40 39 52 l 0 33 l 0 50 q 18 98 0 77 q 68 135 36 119 l 67 511 q 61 520 64 516 q 56 530 58 525 q 51 536 53 533 q 45 543 48 539 l 37 549 l 36 550 l 20 562 l 43 578 l 47 576 q 58 574 51 575 q 79 574 65 574 l 83 573 l 91 573 q 363 636 193 573 m 231 299 l 231 151 q 336 106 284 131 l 363 112 l 363 294 q 311 326 337 300 l 231 299 z "},"7":{"ha":591,"x_min":1,"x_max":598,"o":"m 393 529 l 391 528 q 380 525 385 525 q 378 525 379 525 q 377 524 378 524 l 376 523 q 293 507 332 513 q 218 502 254 502 q 81 531 125 502 l 56 512 l 1 554 l 16 562 q 25 567 19 563 q 41 581 31 571 q 64 602 50 590 q 98 631 79 614 q 111 646 102 637 q 123 658 116 651 q 139 675 130 665 l 139 700 l 154 690 q 372 619 268 619 q 543 677 467 619 l 547 681 l 595 663 l 598 646 l 595 641 q 393 367 459 495 q 327 127 327 238 q 328 105 327 117 q 330 82 328 94 q 338 31 332 58 l 342 9 l 323 19 q 198 62 245 62 q 85 19 143 62 l 61 1 l 70 31 q 352 482 123 215 q 372 506 362 494 q 391 526 382 517 l 393 529 z "},"8":{"ha":610,"x_min":1,"x_max":585,"o":"m 59 343 l 54 344 l 70 390 l 68 521 l 67 524 q 64 530 64 528 q 56 543 59 538 q 52 551 54 547 q 47 561 50 556 l 36 577 l 55 577 q 239 595 151 578 q 406 648 345 616 l 411 652 l 425 641 l 428 637 l 429 635 l 431 634 q 442 625 435 631 q 454 614 447 619 l 467 605 l 477 597 q 498 592 486 593 q 528 590 511 590 q 535 591 531 591 q 545 593 539 592 q 554 594 549 593 q 566 595 559 595 l 570 596 l 585 585 l 584 578 q 568 546 581 560 q 534 521 555 532 l 534 382 l 555 342 l 538 342 q 491 340 517 342 q 431 334 464 338 q 484 332 454 332 q 493 332 490 332 q 500 333 497 332 l 504 333 q 513 334 505 334 q 530 334 522 334 l 562 334 l 534 290 l 534 106 l 561 63 l 548 59 q 542 57 545 58 q 536 56 538 56 q 528 56 534 56 q 514 56 520 56 q 503 56 508 56 q 485 60 494 56 q 472 60 477 60 q 464 60 467 60 q 343 46 404 60 q 218 2 281 32 l 212 0 l 208 3 q 174 24 191 15 q 142 39 158 33 q 81 52 112 52 l 79 52 q 74 50 77 50 q 68 50 71 50 q 57 49 62 50 q 43 47 51 48 q 16 37 31 45 l 1 29 l 1 47 q 21 88 3 67 q 70 130 39 109 l 70 286 q 66 298 68 291 q 61 313 64 305 l 60 315 l 60 317 l 60 322 q 59 328 59 326 q 59 330 59 330 l 59 343 m 159 334 q 69 342 121 338 l 82 334 l 91 334 l 94 332 l 98 332 q 159 334 132 332 m 368 115 l 368 278 q 342 286 357 281 q 307 298 328 291 q 297 296 302 297 q 288 294 292 294 q 272 289 279 289 q 262 287 268 288 q 256 286 259 286 q 250 284 254 286 q 241 281 243 281 l 238 280 l 238 144 q 303 121 275 134 l 303 122 l 322 112 l 325 109 q 328 108 326 109 q 350 113 340 111 q 368 115 359 115 m 238 389 l 269 377 l 274 377 l 277 375 q 278 375 277 375 q 279 374 279 374 q 283 373 280 374 q 287 372 284 372 q 292 370 289 371 q 298 368 294 369 q 305 366 301 367 q 328 376 313 371 q 330 377 329 377 q 332 378 331 377 q 343 380 338 379 q 354 383 349 382 l 368 388 l 368 498 q 347 508 355 502 q 320 518 335 509 q 286 541 304 527 q 280 541 284 541 q 276 539 278 540 q 271 538 273 539 q 250 534 258 535 q 239 532 241 532 l 238 532 l 238 389 z "},"9":{"ha":608,"x_min":1,"x_max":612,"o":"m 77 531 l 75 533 l 75 536 q 68 547 70 541 q 66 553 68 549 l 58 568 l 75 568 q 422 631 270 568 l 422 665 l 440 644 q 503 585 473 604 q 558 566 532 566 q 574 568 568 566 q 581 571 579 569 l 584 572 l 589 573 q 592 573 590 573 q 595 574 593 574 l 600 574 l 612 564 l 612 559 q 595 521 612 538 q 549 489 578 504 l 549 92 l 549 91 q 551 85 549 90 q 554 81 553 84 q 556 75 556 79 l 556 74 l 557 71 l 574 58 l 567 41 l 563 42 q 475 52 514 52 q 273 2 363 52 l 269 0 l 264 2 q 120 41 178 41 q 76 35 98 41 q 54 27 65 31 q 32 15 43 22 l 1 3 l 7 23 q 37 77 15 52 q 86 118 58 101 q 150 145 116 136 q 222 155 186 155 l 242 155 l 243 154 q 311 139 276 153 q 366 109 345 125 q 374 110 370 110 q 382 111 378 111 l 382 260 q 373 256 378 258 q 364 252 369 254 q 346 242 355 247 q 325 232 336 237 q 288 211 306 222 q 252 184 269 199 l 246 180 l 241 184 q 50 243 147 241 l 47 241 l 2 241 l 15 259 q 47 294 30 279 q 64 306 54 301 q 84 316 73 311 l 84 513 q 82 517 83 515 q 81 521 81 519 q 79 528 79 525 l 77 531 m 251 329 q 266 327 256 327 l 269 327 l 272 325 l 274 324 q 277 322 275 323 q 281 320 279 321 q 295 314 286 318 q 316 303 303 310 q 321 306 319 305 q 327 308 324 307 q 334 311 330 309 q 342 315 338 313 q 351 319 346 317 q 360 323 356 321 q 369 326 365 325 l 376 329 l 378 329 l 380 330 l 380 490 q 311 530 338 498 q 300 528 305 528 q 291 526 296 527 q 286 525 289 525 q 281 524 283 524 q 275 523 277 523 q 271 522 272 522 q 262 521 267 522 q 252 519 258 520 l 251 519 l 251 329 z "}," ":{"ha":468,"x_min":0,"x_max":0,"o":""},"!":{"ha":250,"x_min":58,"x_max":192,"o":"m 192 720 l 155 136 l 94 136 l 58 720 l 58 724 q 67 762 58 747 q 92 785 77 777 q 125 793 107 793 q 157 785 142 793 q 182 762 172 777 q 192 724 192 747 l 192 720 m 183 52 q 165 12 183 27 q 125 -3 148 -3 q 83 13 100 -3 q 66 52 66 29 q 84 92 66 77 q 125 107 101 107 q 166 92 149 107 q 183 52 183 77 z "},"\"":{"ha":419,"x_min":58,"x_max":361,"o":"m 243 748 q 248 766 243 758 q 262 780 253 774 q 281 788 271 785 q 303 791 292 791 q 325 788 314 791 q 343 780 335 785 q 356 767 351 775 q 361 748 361 759 q 361 744 361 747 q 357 722 360 740 q 346 665 353 703 q 324 556 338 626 l 281 556 l 243 748 m 58 748 q 63 766 58 758 q 77 780 68 774 q 96 788 85 785 q 118 791 106 791 q 139 788 129 791 q 158 780 150 785 q 171 767 166 775 q 176 748 176 759 q 176 744 176 747 q 172 722 175 740 q 161 665 168 703 q 139 556 153 626 l 96 556 l 58 748 z "},"#":{"ha":741,"x_min":21,"x_max":718,"o":"m 542 438 l 517 351 l 607 351 q 649 311 649 351 q 607 271 649 271 l 494 271 l 424 29 q 383 0 415 0 q 340 39 340 0 q 343 52 340 47 l 406 271 l 263 271 l 193 29 q 153 0 184 0 q 110 39 110 0 q 113 52 110 47 l 175 271 l 63 271 q 21 311 21 271 q 63 351 21 351 l 198 351 l 223 438 l 132 438 q 90 477 90 438 q 132 517 90 517 l 245 517 l 315 760 q 356 789 324 789 q 399 749 399 789 q 398 744 399 746 q 397 739 398 741 l 334 517 l 476 517 l 546 760 q 587 789 555 789 q 629 749 629 789 q 629 744 629 746 q 628 739 629 741 l 564 517 l 676 517 q 718 477 718 517 q 676 438 718 438 l 542 438 m 286 351 l 429 351 l 454 438 l 311 438 l 286 351 z "},"$":{"ha":878,"x_min":58,"x_max":821,"o":"m 821 171 q 804 102 821 133 q 761 48 788 71 q 697 13 733 25 q 622 0 661 0 l 481 0 l 481 -90 q 439 -130 481 -130 q 397 -90 397 -130 l 397 0 l 100 0 q 58 41 58 0 q 100 81 58 81 l 622 81 q 665 88 644 81 q 702 106 686 94 q 727 134 718 118 q 736 171 736 151 l 736 262 q 727 299 736 283 q 702 327 718 315 q 665 346 686 339 q 622 352 644 352 l 256 352 q 179 365 215 352 q 116 401 143 378 q 74 455 90 424 q 58 523 58 486 l 58 614 q 73 682 58 651 q 116 736 89 713 q 179 773 143 760 q 256 786 215 786 l 397 786 l 397 876 q 439 916 397 916 q 481 876 481 916 l 481 786 l 622 786 q 664 745 664 786 q 622 705 664 705 l 256 705 q 215 698 235 705 q 178 680 195 692 q 152 652 162 669 q 142 614 142 635 l 142 523 q 151 487 142 503 q 177 459 161 471 q 213 440 193 447 q 256 433 233 433 l 622 433 q 699 420 663 433 q 762 385 735 408 q 805 330 789 361 q 821 262 821 299 l 821 171 l 821 171 z "},"%":{"ha":673,"x_min":22,"x_max":650,"o":"m 338 645 q 325 584 338 611 q 290 536 312 556 q 240 506 269 517 q 180 495 212 495 q 118 507 146 495 q 68 538 89 518 q 35 586 47 559 q 23 645 23 614 q 35 703 23 676 q 68 751 47 730 q 118 783 89 771 q 180 794 146 794 q 242 782 214 794 q 293 750 271 770 q 326 703 314 730 q 338 645 338 675 m 100 12 q 65 -4 86 -4 q 22 36 22 -4 q 31 59 22 49 l 574 774 q 607 790 587 790 q 650 750 650 790 q 641 726 650 739 l 100 12 m 650 141 q 637 80 650 107 q 602 33 624 52 q 552 3 580 14 q 493 -8 524 -8 q 431 4 459 -8 q 381 36 402 16 q 348 83 359 56 q 336 141 336 111 q 348 199 336 172 q 380 247 359 227 q 430 279 401 267 q 493 291 459 291 q 556 279 527 291 q 606 247 585 267 q 638 199 627 227 q 650 141 650 172 m 254 645 q 248 673 254 661 q 232 695 242 686 q 209 709 222 704 q 181 714 195 714 q 152 709 165 714 q 129 694 138 703 q 113 672 119 684 q 108 645 108 659 q 129 595 108 616 q 181 575 149 575 q 234 595 213 575 q 254 645 254 616 m 566 141 q 560 170 566 157 q 544 192 554 182 q 520 206 534 201 q 493 211 507 211 q 440 191 461 211 q 420 141 420 170 q 426 114 420 127 q 441 92 431 102 q 464 77 451 83 q 493 72 477 72 q 522 77 509 72 q 546 92 536 83 q 561 114 555 102 q 566 141 566 127 z "},"&":{"ha":826,"x_min":64,"x_max":763,"o":"m 397 791 q 451 780 427 791 q 493 751 475 769 q 519 709 510 732 q 529 659 529 685 q 504 576 529 617 q 429 499 479 534 l 619 247 l 689 294 q 726 303 708 307 q 753 288 744 300 q 761 259 763 276 q 739 230 759 243 l 668 181 l 753 59 q 762 35 762 47 q 718 -5 762 -5 q 685 13 699 -5 l 600 135 l 460 38 q 309 -6 395 -6 q 214 11 259 -6 q 136 58 170 28 q 84 129 103 88 q 64 218 64 170 q 83 311 64 270 q 136 388 102 353 q 215 454 170 422 q 312 519 260 486 q 273 590 286 557 q 260 648 260 624 q 270 700 260 674 q 298 746 279 726 q 341 778 316 766 q 397 791 366 790 m 149 218 q 161 160 149 186 q 194 115 173 134 q 243 87 215 97 q 303 77 271 77 q 338 80 321 77 q 371 87 355 83 q 399 98 387 92 q 420 109 412 104 l 551 199 l 359 454 q 281 404 319 429 q 214 351 243 379 q 167 291 184 323 q 149 218 149 258 m 445 659 q 431 695 444 680 q 397 710 418 710 q 374 704 384 710 q 357 689 364 698 q 347 669 351 680 q 344 648 344 658 q 353 614 344 637 q 381 564 362 591 q 429 612 414 587 q 445 659 445 637 z "},"'":{"ha":233,"x_min":58,"x_max":176,"o":"m 58 748 q 63 766 58 758 q 77 780 68 774 q 96 788 85 785 q 118 791 106 791 q 139 788 129 791 q 158 780 150 785 q 171 767 166 775 q 176 748 176 759 q 176 744 176 747 q 172 722 175 740 q 161 665 168 703 q 139 556 153 626 l 96 556 l 58 748 z "},"(":{"ha":376,"x_min":50,"x_max":410,"o":"m 410 787 l 401 783 l 391 775 q 318 690 351 736 q 260 587 286 643 q 222 479 234 531 q 212 427 215 453 q 209 375 209 401 l 211 372 l 211 352 l 209 351 q 317 92 209 246 q 326 77 319 85 q 354 41 342 56 q 372 17 365 26 l 372 18 q 381 10 377 14 q 389 1 386 5 q 399 -18 396 -9 l 218 -155 q 203 -64 218 -99 l 203 -66 q 193 -49 197 -56 q 189 -41 191 -45 q 183 -33 186 -37 q 180 -25 182 -29 q 176 -17 178 -21 q 171 -8 174 -13 q 165 4 168 -3 l 165 3 q 115 102 136 56 q 79 190 94 149 q 57 267 64 231 q 50 336 50 303 q 92 530 50 439 q 135 608 106 565 q 207 704 164 651 q 213 711 209 707 q 223 722 217 715 q 239 739 230 730 q 260 760 248 748 q 274 775 267 768 q 286 789 280 782 q 296 802 291 795 q 304 814 300 808 q 312 837 309 826 q 319 858 315 847 q 323 880 321 869 q 324 903 324 891 l 410 787 z "},")":{"ha":334,"x_min":-41,"x_max":319,"o":"m -41 -47 l -31 -43 l -22 -36 q 109 152 59 42 q 132 207 123 180 q 148 260 141 233 q 161 364 161 312 l 159 367 l 159 388 l 161 389 q 53 648 161 494 q 50 654 52 651 q 43 663 47 658 q 16 699 27 684 q -2 722 5 713 l -2 721 q -12 729 -7 725 q -20 739 -16 734 q -29 757 -26 747 l 151 894 q 155 844 151 866 q 166 804 159 821 l 166 805 q 172 797 170 801 q 176 789 174 793 q 186 772 180 782 q 190 764 188 768 q 194 756 192 760 q 198 747 195 753 q 205 735 201 742 l 205 737 q 255 638 233 684 q 290 550 276 591 q 319 404 319 469 q 278 210 319 298 q 163 35 249 141 q 157 29 161 33 q 146 17 153 24 q 131 1 140 10 q 109 -20 121 -8 q 96 -35 102 -28 q 84 -49 90 -42 q 66 -75 73 -62 q 58 -97 61 -86 q 51 -118 54 -107 q 45 -164 45 -141 l -41 -47 z "},"*":{"ha":543,"x_min":64,"x_max":479,"o":"m 339 574 l 407 490 q 415 468 415 480 q 372 431 415 431 q 339 446 353 431 l 271 530 l 203 446 q 170 431 189 431 q 127 468 127 431 q 135 490 127 480 l 203 574 l 93 606 q 64 641 64 615 q 105 680 64 680 q 119 677 112 680 l 229 646 l 229 749 q 271 787 229 787 q 313 749 313 787 l 313 646 l 425 678 q 432 679 429 679 q 437 680 435 680 q 479 641 479 680 q 450 606 479 615 l 339 574 z "},"+":{"ha":742,"x_min":58,"x_max":684,"o":"m 413 281 l 413 68 q 371 28 413 28 q 329 68 329 28 l 329 281 l 100 281 q 58 321 58 281 q 100 360 58 360 l 329 360 l 329 574 q 371 613 329 613 q 413 574 413 613 l 413 360 l 642 360 q 684 321 684 360 q 642 281 684 281 l 413 281 z "},",":{"ha":245,"x_min":32,"x_max":185,"o":"m 117 -165 q 98 -190 113 -183 q 67 -193 83 -197 q 42 -177 52 -190 q 36 -143 32 -164 l 98 87 q 118 114 102 107 q 150 117 134 121 q 175 99 165 113 q 179 64 185 85 l 117 -165 z "},"-":{"ha":606,"x_min":58,"x_max":549,"o":"m 100 292 q 58 334 58 292 q 100 376 58 376 l 507 376 q 549 334 549 376 q 507 292 549 292 l 100 292 z "},".":{"ha":245,"x_min":64,"x_max":181,"o":"m 181 55 q 177 33 181 43 q 165 14 172 22 q 146 1 157 6 q 123 -3 136 -3 q 81 14 97 -3 q 64 55 64 32 q 82 97 64 81 q 123 113 99 113 q 165 96 149 113 q 181 55 181 79 z "},"/":{"ha":623,"x_min":0,"x_max":624,"o":"m 0 -26 q 7 -4 0 -16 l 547 838 q 581 857 559 857 q 624 816 624 857 q 616 793 624 805 l 78 -49 q 43 -67 64 -67 q 0 -26 0 -67 z "},":":{"ha":245,"x_min":64,"x_max":181,"o":"m 181 505 q 177 483 181 493 q 165 464 172 472 q 146 451 157 456 q 123 446 136 446 q 81 464 97 446 q 64 505 64 481 q 82 547 64 530 q 123 563 99 563 q 165 546 149 563 q 181 505 181 528 m 181 55 q 177 33 181 43 q 165 14 172 22 q 146 1 157 6 q 123 -3 136 -3 q 81 14 97 -3 q 64 55 64 32 q 82 97 64 81 q 123 113 99 113 q 165 96 149 113 q 181 55 181 79 z "},";":{"ha":245,"x_min":32,"x_max":185,"o":"m 181 505 q 177 483 181 493 q 165 464 172 472 q 146 451 157 456 q 123 446 136 446 q 81 464 97 446 q 64 505 64 481 q 82 547 64 530 q 123 563 99 563 q 165 546 149 563 q 181 505 181 528 m 117 -165 q 98 -190 113 -183 q 67 -193 83 -197 q 42 -177 52 -190 q 36 -143 32 -164 l 98 87 q 118 114 102 107 q 150 117 134 121 q 175 99 165 113 q 179 64 185 85 l 117 -165 z "},"<":{"ha":593,"x_min":22,"x_max":570,"o":"m 528 -1 q 506 5 517 -1 l 44 258 q 22 292 22 271 q 44 326 22 314 l 506 579 q 528 585 517 585 q 570 545 570 585 q 549 512 570 523 l 149 292 l 549 73 q 570 41 570 62 q 528 0 570 0 l 528 -1 z "},"=":{"ha":742,"x_min":58,"x_max":684,"o":"m 100 345 q 58 387 58 345 q 100 429 58 429 l 642 429 q 684 387 684 429 q 642 345 684 345 l 100 345 m 100 155 q 58 197 58 155 q 100 239 58 239 l 642 239 q 684 197 684 239 q 642 155 684 155 l 100 155 z "},">":{"ha":593,"x_min":22,"x_max":570,"o":"m 87 2 q 64 -4 75 -4 q 22 37 22 -4 q 43 69 22 58 l 443 295 l 43 521 q 22 553 22 532 q 64 593 22 593 q 86 588 77 593 l 547 328 q 570 294 570 315 q 547 259 570 272 l 87 2 z "},"?":{"ha":606,"x_min":44,"x_max":549,"o":"m 549 498 q 535 436 549 464 q 497 388 521 408 q 440 357 473 368 q 371 346 408 346 q 334 341 351 346 q 305 327 317 336 q 285 304 292 318 q 277 273 277 291 l 277 191 q 235 151 277 151 q 193 191 193 151 l 193 273 q 207 336 193 308 q 244 384 220 364 q 300 415 268 404 q 371 426 333 426 q 465 498 465 426 l 465 635 q 458 664 465 651 q 441 687 452 677 q 415 703 430 697 q 385 708 401 708 l 86 708 q 44 748 44 708 q 86 788 44 788 l 385 788 q 449 776 419 788 q 502 744 479 764 q 536 695 524 723 q 549 635 549 667 l 549 498 m 294 49 q 276 8 294 24 q 235 -7 258 -7 q 194 9 210 -7 q 177 49 177 26 q 194 89 177 74 q 235 104 212 104 q 276 89 259 104 q 294 49 294 74 z "},"@":{"ha":922,"x_min":64,"x_max":865,"o":"m 633 587 q 636 598 635 591 q 642 610 638 604 q 652 621 645 616 q 673 625 659 625 q 701 613 692 625 q 710 587 710 602 q 708 573 710 580 l 636 308 q 631 260 628 278 q 650 241 633 241 q 705 259 681 241 q 746 306 729 277 q 771 372 762 334 q 780 448 780 409 q 755 570 780 518 q 690 656 730 622 q 596 708 649 691 q 487 726 543 726 q 364 705 425 726 q 255 643 303 684 q 177 539 207 602 q 147 395 147 477 q 168 278 147 335 q 233 177 189 221 q 342 105 276 132 q 499 78 409 78 q 610 86 565 78 q 686 106 655 94 q 735 133 716 119 q 769 160 755 148 q 794 180 783 172 q 821 189 806 189 q 865 149 865 189 q 844 111 865 136 q 780 61 823 86 q 668 16 736 35 q 506 -3 600 -3 q 310 31 393 -3 q 172 121 227 65 q 91 248 117 176 q 64 394 64 319 q 81 519 64 462 q 128 622 98 576 q 198 702 158 667 q 286 759 239 736 q 384 793 332 782 q 487 805 435 805 q 627 783 559 805 q 747 715 694 760 q 831 604 800 671 q 863 446 863 536 q 849 342 863 392 q 807 253 834 292 q 740 192 779 215 q 650 169 700 169 q 592 190 614 169 q 571 239 571 210 l 571 247 q 547 215 562 229 q 515 191 532 201 q 478 177 497 182 q 443 172 460 172 l 375 172 q 313 183 340 172 q 267 213 286 195 q 241 254 249 231 q 236 300 233 277 l 302 534 q 376 612 328 586 q 484 638 424 638 l 552 638 q 592 630 576 638 q 616 613 607 623 q 633 588 627 602 l 633 587 m 484 564 q 443 561 459 564 q 414 550 426 557 q 394 531 403 543 q 378 503 386 519 l 323 293 q 323 275 320 283 q 333 259 326 266 q 351 248 340 252 q 375 244 362 244 l 443 244 q 504 264 479 244 q 545 314 528 283 q 555 336 550 323 q 565 365 560 349 q 575 398 570 380 q 585 431 581 415 q 604 513 595 469 q 591 550 604 535 q 552 564 578 564 l 484 564 z "},"A":{"ha":684,"x_min":1,"x_max":667,"o":"m 575 1 q 482 88 513 22 q 468 119 473 107 q 463 138 463 132 l 463 138 q 457 159 460 146 q 448 193 453 173 q 435 239 442 213 q 420 298 428 265 l 218 298 l 185 195 q 198 193 191 194 q 211 191 204 192 q 224 188 218 189 q 237 185 231 186 q 251 180 244 182 q 264 174 257 177 q 290 155 277 166 l 305 180 l 330 154 l 226 6 q 135 60 189 50 q 119 63 125 62 q 111 64 113 64 q 24 39 62 64 q 15 33 21 37 q 2 20 14 26 l 2 30 l 1 31 l 1 35 q 106 174 1 114 q 111 176 108 175 q 119 179 114 177 q 130 183 124 181 q 142 189 135 186 l 249 513 q 201 548 224 548 q 145 498 165 548 q 128 551 128 519 q 136 582 128 566 l 135 582 q 243 675 173 675 q 286 659 273 675 l 292 654 l 292 656 l 296 653 l 296 654 l 296 656 l 298 661 q 299 662 298 661 q 299 663 299 662 l 299 663 q 300 667 299 664 l 300 669 l 301 672 q 256 726 301 707 l 254 726 q 248 727 250 726 q 243 728 246 728 q 237 729 241 728 l 237 729 q 206 724 212 729 q 147 685 188 724 l 147 701 q 167 765 147 728 q 302 857 210 857 l 307 857 q 313 856 310 856 q 319 854 315 855 q 326 854 322 854 q 332 852 329 853 q 335 851 334 852 q 338 850 336 851 q 344 847 341 848 q 350 844 347 846 l 349 844 q 395 788 383 825 l 558 239 q 572 197 570 199 q 612 168 589 168 q 667 185 616 168 l 575 1 m 260 431 l 380 431 l 324 627 l 260 431 m 284 662 q 286 661 286 662 l 284 662 z "},"B":{"ha":595,"x_min":1,"x_max":571,"o":"m 568 87 q 560 89 564 87 l 562 89 q 560 90 561 89 q 558 90 559 90 q 551 91 555 90 q 546 91 548 91 q 538 93 541 92 l 524 93 q 511 92 521 92 l 510 92 q 509 91 509 92 q 509 91 509 91 q 504 89 507 91 q 497 86 500 87 q 488 84 493 85 q 466 79 481 81 q 360 2 405 54 q 258 56 290 56 q 252 57 254 56 q 247 57 249 57 q 242 58 245 58 q 237 59 239 58 q 233 59 235 59 l 226 59 l 220 59 q 67 1 138 59 q 163 141 98 93 q 298 191 229 191 q 370 175 342 191 l 370 525 l 407 525 l 407 490 q 457 576 442 504 l 457 581 q 459 587 458 585 q 460 595 460 589 q 460 600 460 597 q 461 606 460 603 l 461 610 q 400 749 461 711 l 343 700 l 343 323 q 302 235 343 279 q 223 193 258 193 l 220 203 q 221 203 221 203 q 222 206 221 205 q 225 211 223 208 q 230 218 227 214 q 232 232 230 222 q 233 237 233 235 q 234 243 233 240 q 235 248 235 247 q 235 248 235 249 l 236 251 l 236 636 q 239 645 237 640 q 241 655 240 650 q 244 662 243 661 q 243 658 244 663 q 259 682 249 673 l 259 683 l 465 863 q 555 696 555 820 l 555 690 q 555 679 555 684 q 555 671 555 675 q 509 542 548 614 q 499 528 503 534 q 491 515 495 521 q 484 505 488 509 q 477 497 480 500 l 479 497 q 481 496 481 497 q 483 496 482 496 q 484 496 483 496 q 490 495 487 495 q 498 493 494 494 q 511 488 508 490 q 558 420 558 462 l 558 140 q 562 117 558 125 l 571 96 l 568 87 m 231 694 q 226 693 229 694 q 220 693 224 693 l 209 693 l 206 693 l 205 694 q 91 725 160 694 q 50 735 64 735 q 1 703 26 735 l 1 718 q 14 770 1 740 q 61 826 27 802 q 129 848 94 848 q 245 819 176 848 q 295 803 281 803 q 345 826 322 803 l 351 822 q 310 740 349 775 q 276 713 294 724 q 239 697 257 703 q 231 694 234 694 l 234 686 q 214 635 214 669 l 214 269 q 144 134 214 193 q 106 112 121 112 l 106 111 l 104 111 l 102 109 l 89 109 l 95 118 q 97 123 95 120 l 96 122 l 97 125 l 97 123 q 98 134 97 129 q 100 147 99 140 l 100 357 l 98 357 l 96 355 q 72 314 72 355 q 66 321 68 317 q 60 329 63 326 q 54 336 56 333 q 49 340 51 338 l 49 339 q 31 410 31 359 q 100 505 31 493 l 100 513 l 99 514 l 99 520 q 140 637 99 589 q 180 673 157 659 q 231 694 201 688 m 411 150 q 424 140 416 145 q 433 132 428 136 q 446 121 439 127 l 446 228 q 444 230 445 230 l 442 231 q 432 232 435 231 l 430 232 l 428 233 l 424 233 l 423 232 l 418 232 l 416 231 l 413 231 l 411 228 l 409 228 l 407 227 l 407 153 q 411 150 410 151 m 442 385 q 446 386 446 385 l 446 419 q 419 440 446 440 l 418 444 l 407 444 l 407 385 q 409 385 407 387 l 410 385 q 421 381 414 381 l 433 381 q 437 382 435 382 q 440 384 439 382 l 441 384 l 442 385 m 435 280 q 446 276 441 277 l 446 338 l 445 338 l 443 336 l 438 336 l 437 334 l 421 334 q 410 338 415 334 l 407 338 l 407 276 q 411 278 409 277 q 415 280 413 279 l 416 280 l 418 281 l 430 281 q 431 281 431 281 q 432 281 431 281 q 435 280 433 280 m 49 339 l 50 339 q 51 338 51 338 l 50 338 l 49 339 z "},"C":{"ha":639,"x_min":22,"x_max":602,"o":"m 602 241 q 595 211 600 224 q 586 186 591 197 q 497 68 553 118 q 376 4 441 20 q 365 3 370 4 q 355 1 359 1 q 347 0 351 0 l 336 0 q 73 171 160 0 q 22 388 22 269 q 64 600 22 494 q 114 689 86 649 q 178 764 141 730 q 271 828 211 795 q 277 829 275 828 q 281 829 279 829 q 286 831 283 829 l 286 831 q 289 831 288 831 q 296 834 292 831 l 299 827 q 138 450 138 667 l 137 448 q 212 209 137 308 q 318 123 260 144 q 390 111 349 111 q 409 115 393 111 q 446 127 424 118 l 446 680 l 446 680 q 391 709 422 680 l 392 708 q 385 712 389 711 q 379 717 381 715 l 379 319 q 343 218 379 260 q 261 177 309 177 l 250 177 q 262 204 258 192 q 267 233 267 216 l 267 652 l 224 625 l 210 663 l 460 834 q 542 762 495 762 l 543 762 l 544 764 q 559 769 549 764 q 572 776 565 772 q 587 785 578 780 q 543 711 571 739 q 484 677 515 680 l 484 146 q 595 245 527 160 l 602 241 m 288 832 q 287 832 287 832 q 286 831 286 831 l 286 831 l 286 832 l 288 832 z "},"D":{"ha":551,"x_min":18,"x_max":528,"o":"m 526 111 q 328 1 393 87 q 173 54 248 54 q 34 5 98 54 q 117 130 62 85 q 241 176 172 174 l 241 692 q 231 690 237 692 l 233 687 q 214 635 214 669 l 214 300 q 145 165 214 224 q 107 142 120 144 l 106 140 l 102 140 l 101 140 l 92 140 q 94 145 94 141 q 96 152 95 151 q 97 162 96 153 q 99 169 98 166 q 101 176 100 172 l 101 358 l 99 358 l 97 357 q 73 315 73 357 q 66 322 69 318 q 60 330 63 326 q 50 342 54 338 l 50 340 q 36 368 40 350 q 33 411 33 387 q 100 506 33 495 l 100 512 l 99 513 l 99 520 q 140 636 99 589 q 213 689 170 673 l 174 689 q 31 742 56 689 q 18 804 18 765 l 18 809 l 20 812 l 20 818 l 21 819 l 21 828 l 22 829 l 22 836 q 62 825 41 829 q 81 823 71 823 q 101 822 92 822 l 102 822 l 102 823 l 110 823 l 110 826 l 397 838 q 446 827 424 838 q 466 814 456 822 q 484 797 475 806 q 509 749 500 776 q 519 690 519 724 l 520 132 q 526 121 520 130 l 528 119 l 526 111 m 277 178 q 407 124 355 164 l 407 321 q 368 331 385 328 q 338 334 351 334 l 333 336 q 308 330 328 336 q 277 320 296 330 l 277 178 m 357 553 q 407 566 359 553 l 407 665 q 384 698 407 682 l 382 699 l 374 699 q 366 700 370 699 q 355 701 361 700 l 316 701 q 297 701 307 701 q 277 702 287 701 l 277 568 q 316 553 290 553 l 357 553 m 336 383 q 407 370 368 383 l 407 513 q 403 513 404 513 q 400 512 401 513 q 397 512 399 512 q 382 509 391 509 q 354 503 362 503 l 321 503 q 315 505 318 503 q 277 511 294 505 l 277 371 q 305 377 285 371 q 315 379 310 378 q 325 381 319 380 q 330 382 328 382 q 333 382 332 382 q 336 383 335 382 m 51 339 l 52 339 q 50 340 50 339 l 50 340 l 51 339 z "},"E":{"ha":604,"x_min":28,"x_max":574,"o":"m 501 628 l 470 647 l 482 671 q 464 685 473 677 q 454 694 459 690 q 444 703 449 698 l 444 701 q 396 715 418 715 l 394 715 l 388 715 q 386 715 387 715 q 381 713 384 715 q 337 688 359 711 q 315 640 315 666 l 315 456 l 347 498 q 401 526 362 517 q 414 528 409 528 q 422 529 418 529 q 449 526 436 529 q 464 522 456 525 q 480 515 472 519 q 484 513 481 514 q 488 510 487 511 q 499 504 493 507 q 500 503 499 504 q 504 500 502 503 l 512 517 l 540 495 l 456 326 l 427 347 l 439 371 q 362 409 387 409 l 360 408 l 353 408 q 347 407 352 407 q 315 379 326 405 l 315 186 l 317 186 l 318 188 q 327 189 326 188 q 342 191 340 189 l 348 191 q 528 144 451 191 l 536 164 l 569 144 l 501 -1 q 271 52 380 52 q 99 -1 151 52 q 102 22 99 9 q 106 35 104 28 q 113 47 109 41 q 136 78 121 62 q 152 94 143 85 q 171 111 160 102 q 188 126 180 119 q 205 139 197 134 q 241 160 222 151 q 278 178 241 160 l 278 671 q 298 734 278 695 q 435 836 347 834 l 439 842 q 452 836 442 836 l 454 835 l 456 835 q 537 796 486 835 l 544 814 l 574 793 l 501 628 m 267 673 q 254 652 259 669 q 250 625 250 636 l 250 258 q 180 123 250 179 q 167 115 173 118 q 156 109 161 111 q 147 104 151 106 q 141 102 144 103 l 140 101 l 136 101 l 135 100 l 128 100 q 130 113 128 104 q 135 135 132 121 l 135 347 q 126 349 127 347 l 124 349 q 87 318 90 349 l 88 317 l 88 309 q 77 307 85 307 q 47 327 60 307 q 32 369 33 347 l 31 370 l 31 387 l 32 389 q 43 453 32 432 q 86 489 55 475 q 116 495 103 495 l 118 496 q 134 498 132 496 l 134 501 l 133 503 l 133 509 q 174 627 133 578 q 264 684 210 671 l 267 673 m 324 814 q 316 770 324 792 q 288 728 307 748 q 211 687 249 687 l 210 688 l 208 688 l 207 687 q 116 706 170 687 q 87 712 94 712 q 28 668 62 712 q 39 740 28 708 q 67 795 49 770 q 109 830 87 817 q 155 844 130 843 l 155 845 q 182 841 168 844 q 196 837 189 839 q 214 832 204 836 q 228 828 221 830 q 240 824 235 825 q 251 821 245 823 q 260 819 256 820 q 282 811 282 811 q 290 812 288 811 q 324 845 300 812 l 324 814 z "},"F":{"ha":675,"x_min":21,"x_max":663,"o":"m 663 815 q 661 802 661 807 l 660 801 q 647 764 660 789 q 616 718 631 736 q 581 692 600 699 l 581 120 l 543 120 l 543 388 l 475 388 l 474 170 q 471 153 474 163 q 372 41 451 88 q 242 1 301 1 q 170 16 199 1 q 85 48 106 48 l 83 48 q 75 47 81 47 q 21 10 43 43 q 35 74 24 45 q 62 120 45 101 q 142 161 99 161 q 249 115 185 161 l 249 116 q 327 72 313 73 l 334 86 l 334 73 l 336 73 q 357 92 348 73 q 366 130 366 111 l 368 132 l 368 650 q 400 726 368 695 l 541 848 q 612 793 576 793 q 657 820 629 793 l 663 815 m 357 700 q 343 680 349 696 q 338 651 338 664 l 338 323 q 268 189 338 247 q 230 168 245 168 l 229 167 l 227 167 l 225 165 l 216 165 q 216 169 216 167 q 218 175 217 172 q 219 181 219 178 q 221 187 220 184 q 222 193 222 190 q 224 199 223 197 l 224 385 l 220 385 l 218 387 l 212 387 q 178 357 178 387 l 178 356 l 178 351 l 180 350 l 180 341 q 142 365 155 341 q 127 418 127 388 q 208 523 127 523 l 217 523 q 223 522 218 522 l 223 527 l 222 528 l 222 534 q 263 652 222 604 q 303 689 280 673 q 355 710 325 704 l 357 700 m 427 840 q 376 738 422 780 q 283 698 332 698 l 279 698 l 278 699 q 247 702 265 699 q 203 713 229 705 q 158 723 177 720 q 127 726 139 726 l 127 726 l 123 726 q 78 698 113 726 l 78 709 q 93 767 78 735 q 212 843 126 840 l 219 846 q 250 840 221 844 l 260 840 q 276 836 264 839 q 288 833 281 835 q 304 829 295 831 l 304 828 l 307 828 q 366 817 323 817 q 420 844 396 817 l 427 840 m 540 690 q 510 698 526 690 q 475 723 494 707 l 475 521 l 543 521 l 543 690 q 542 689 543 689 l 541 689 q 540 690 541 690 z "},"G":{"ha":648,"x_min":23,"x_max":628,"o":"m 628 269 q 556 90 628 156 q 330 -3 455 -3 q 111 100 195 -3 q 23 373 23 203 q 100 660 23 540 q 305 809 178 785 l 307 802 q 295 790 302 796 q 282 777 289 785 q 269 763 275 770 q 257 749 262 757 q 147 405 147 622 l 149 404 l 149 391 l 147 389 q 148 364 147 380 q 150 325 149 348 q 154 286 151 305 q 161 246 157 266 q 188 171 172 208 q 275 62 224 87 q 345 51 302 51 l 346 51 q 352 52 349 52 l 363 52 q 375 53 364 53 l 377 54 l 381 54 l 382 54 l 382 437 l 355 393 l 355 243 q 341 191 355 220 q 243 120 309 120 l 236 120 l 236 129 l 237 130 q 239 136 237 134 l 240 138 l 239 134 q 239 135 239 133 q 240 140 239 136 q 241 146 241 143 q 241 152 241 149 l 243 164 l 243 625 l 219 606 l 219 663 l 445 840 q 520 783 478 783 q 524 783 523 783 q 525 784 524 783 q 526 784 525 784 q 530 785 529 785 q 533 785 532 785 q 536 787 534 786 q 542 790 538 788 l 564 804 l 585 784 l 422 507 q 628 269 628 460 m 384 701 q 381 705 382 703 q 378 709 380 707 q 368 720 376 713 l 355 711 l 355 464 l 490 694 q 435 676 460 676 q 384 701 414 676 m 499 193 q 501 209 500 201 q 503 225 502 217 q 505 258 505 241 l 505 268 q 503 293 503 273 l 503 294 q 497 292 501 294 q 486 288 493 290 q 484 288 484 288 q 483 287 484 287 q 463 282 471 282 l 446 282 q 426 287 433 282 q 420 288 425 287 l 422 288 l 420 288 l 420 203 q 432 208 424 204 l 437 208 l 439 208 l 448 208 q 499 193 471 208 m 460 330 q 496 341 479 330 q 420 449 475 425 l 420 338 q 427 335 424 336 q 434 333 431 334 q 439 331 437 332 q 443 330 441 331 l 446 330 l 460 330 m 420 70 q 484 149 466 102 q 452 162 459 162 l 446 162 l 444 161 q 439 160 442 161 q 431 158 436 159 q 426 156 427 157 q 422 155 424 155 l 424 155 l 422 154 l 420 154 l 420 70 z "},"H":{"ha":684,"x_min":25,"x_max":669,"o":"m 667 116 q 635 89 653 106 q 616 71 626 80 q 594 50 606 61 q 577 32 587 44 q 557 1 568 19 l 552 7 l 551 9 l 549 12 l 547 12 l 544 16 l 543 19 q 452 113 488 87 l 494 169 l 494 403 l 374 403 l 374 169 l 383 182 l 411 151 l 296 7 q 153 64 226 64 q 36 16 88 64 q 71 94 47 62 q 130 151 95 127 q 162 166 146 159 q 193 178 178 172 q 262 187 227 187 q 339 172 300 187 l 339 787 q 322 827 322 795 q 358 873 322 873 q 382 859 372 873 q 393 826 393 844 q 374 785 393 795 l 374 530 l 494 530 l 494 720 q 490 723 491 720 l 492 723 q 484 729 488 725 q 473 739 478 733 l 475 739 q 469 745 473 740 l 452 733 l 435 767 l 547 863 q 640 785 600 785 l 642 785 q 656 791 644 785 q 669 793 659 793 q 633 734 652 755 l 625 728 q 616 720 622 726 l 616 720 q 614 717 615 718 l 614 716 l 607 714 l 607 169 l 631 137 l 650 153 l 667 121 l 667 116 m 318 745 l 318 742 q 309 678 309 728 l 309 323 q 294 269 309 304 q 273 236 286 252 q 245 210 262 221 q 214 192 231 198 q 182 186 198 186 l 177 186 l 176 187 l 166 187 l 176 199 q 179 202 178 201 q 183 207 180 203 l 190 225 l 190 224 q 191 226 190 224 q 192 229 191 227 q 193 232 192 230 q 196 239 195 236 q 199 245 197 242 q 200 250 199 249 l 200 408 l 166 408 l 156 403 q 154 402 155 403 q 153 402 153 402 q 152 401 153 401 q 139 363 139 390 l 140 361 l 140 344 q 125 355 132 347 q 111 374 117 365 q 105 384 108 379 q 100 394 102 389 q 96 413 96 404 q 94 433 94 421 q 99 469 94 450 q 105 486 102 478 q 115 501 109 494 q 125 514 120 509 q 136 524 130 520 q 162 533 148 533 l 200 536 l 200 643 q 264 730 215 694 q 328 755 294 755 l 318 745 m 318 814 q 267 749 298 776 q 205 720 235 721 q 191 719 202 719 l 190 718 l 187 718 q 130 735 170 718 q 99 749 112 745 q 81 753 87 753 l 79 752 l 72 752 q 66 751 71 751 q 46 740 55 750 q 27 709 36 730 l 27 726 l 26 728 l 26 733 l 25 735 l 25 742 q 56 827 25 793 q 130 859 87 859 q 211 837 173 859 q 217 834 214 834 l 216 834 q 220 832 218 833 q 223 830 222 831 q 228 827 226 829 l 227 827 q 235 824 232 825 q 242 821 237 823 q 256 815 247 819 l 258 815 q 263 814 261 814 q 269 813 266 814 q 277 812 272 812 q 309 819 301 812 q 313 820 309 820 q 313 820 313 820 q 314 821 313 821 q 315 821 314 821 l 318 814 z "},"I":{"ha":490,"x_min":1,"x_max":466,"o":"m 466 812 q 446 772 446 787 l 446 176 q 422 102 446 142 q 375 51 403 73 q 271 1 323 5 q 265 0 267 1 l 252 0 l 248 0 q 202 4 225 0 q 179 9 191 6 q 153 18 167 12 q 77 52 92 52 l 72 52 q 1 10 40 52 q 13 75 1 45 q 49 130 24 106 q 106 165 79 161 q 114 166 109 166 q 193 124 145 166 q 198 118 196 121 q 203 113 201 115 q 209 107 206 110 q 215 102 212 105 q 233 81 217 98 q 248 68 243 73 q 255 64 254 64 q 275 59 267 60 q 289 58 283 58 q 321 76 307 58 q 334 119 334 94 l 334 694 q 340 715 334 699 q 462 821 368 796 l 466 812 m 315 698 q 309 673 311 687 q 307 648 307 661 l 307 294 q 264 203 307 249 q 181 157 222 157 q 196 228 196 201 l 196 366 q 178 382 189 382 l 176 383 q 147 354 149 383 l 149 353 l 149 349 l 149 348 l 149 338 q 93 426 93 349 q 116 491 93 467 q 174 516 139 516 l 178 516 q 180 516 179 516 q 182 515 181 515 q 187 513 185 514 q 196 512 191 512 l 196 588 q 213 629 196 601 q 255 673 222 647 q 271 685 264 680 q 286 694 278 690 q 307 704 299 702 l 308 704 l 309 705 l 312 705 l 315 698 m 375 822 q 328 733 364 768 q 246 694 292 700 l 248 695 q 232 693 247 693 q 187 696 195 693 q 176 700 184 698 q 155 708 168 703 q 150 710 153 709 q 144 712 147 711 q 99 720 121 720 q 82 715 92 720 q 64 705 72 711 q 54 697 58 701 q 45 690 50 694 q 32 673 37 682 l 32 690 q 35 721 32 706 q 45 750 39 735 q 172 838 83 838 q 195 834 180 838 q 233 824 211 831 l 234 823 l 236 823 q 250 817 241 819 q 272 810 258 814 q 296 805 287 806 q 311 803 306 803 l 313 804 q 370 827 337 804 l 375 822 z "},"J":{"ha":475,"x_min":19,"x_max":458,"o":"m 457 821 l 457 818 q 447 784 447 794 q 446 778 446 783 l 447 778 l 447 189 q 423 109 447 157 q 260 4 379 24 q 241 1 249 2 q 226 1 233 1 l 207 1 q 108 27 155 1 q 31 109 51 57 q 19 178 19 140 q 42 260 19 227 q 100 295 64 295 q 128 288 115 295 q 152 267 142 279 q 168 237 162 254 q 174 203 174 220 q 156 147 174 170 q 115 123 138 123 q 94 127 103 123 q 134 75 104 94 q 198 56 158 56 l 200 55 l 204 55 q 293 89 254 55 q 334 186 334 125 l 334 696 q 445 827 334 755 q 447 828 446 828 q 450 829 448 828 q 452 830 451 829 q 456 832 454 831 l 458 823 l 457 821 m 319 714 q 313 695 315 705 q 308 675 310 685 q 306 656 307 666 q 304 635 304 646 l 304 195 q 304 191 304 192 q 303 189 304 189 q 303 187 303 189 q 303 185 303 186 q 302 182 302 184 l 302 181 l 302 180 q 281 144 294 161 q 249 111 269 127 q 168 81 210 81 q 197 153 197 126 l 197 377 l 196 378 l 195 380 l 196 380 q 191 382 193 381 q 189 382 190 382 q 185 385 188 383 l 184 385 l 183 386 l 179 386 l 177 387 q 158 378 167 387 q 149 357 150 369 l 151 355 l 151 344 q 93 422 93 358 q 117 493 93 467 q 179 520 142 520 l 186 520 l 188 519 l 194 519 l 195 517 l 197 517 l 197 595 q 268 690 197 642 l 268 689 q 272 692 270 690 q 277 696 275 694 q 284 701 281 699 q 292 707 288 703 l 292 705 q 296 708 294 707 q 300 712 298 710 q 306 715 303 713 q 311 720 308 718 l 313 722 l 315 722 l 319 714 m 339 823 q 302 733 337 771 q 226 694 264 694 q 215 693 224 693 q 145 709 190 693 q 125 717 134 714 q 107 722 115 720 q 92 725 99 724 q 80 726 85 726 l 78 726 q 64 722 69 722 q 57 716 61 720 q 47 710 52 713 q 37 702 43 707 q 26 692 32 697 l 26 703 q 94 823 26 779 q 116 833 104 829 q 126 837 121 835 q 134 840 130 838 q 140 841 136 840 l 146 841 l 149 841 l 155 841 q 172 840 163 841 q 190 838 180 839 q 229 827 209 834 q 288 809 279 809 q 311 814 300 809 q 322 819 316 816 q 334 827 328 823 l 339 823 z "},"K":{"ha":651,"x_min":14,"x_max":645,"o":"m 553 1 l 549 1 q 507 11 526 1 q 474 43 489 21 q 455 79 465 56 q 434 136 446 102 l 433 138 l 340 6 q 330 15 335 12 q 321 22 325 19 q 311 31 313 28 l 312 31 q 197 66 268 66 q 39 5 103 66 q 193 175 74 121 q 260 194 229 192 q 266 195 262 194 q 278 197 277 195 l 283 197 q 400 151 355 197 l 410 164 l 432 142 q 427 163 430 150 q 419 197 424 177 q 408 242 414 216 q 395 299 402 267 q 385 332 389 317 q 376 359 380 347 q 369 379 372 370 q 361 393 365 387 q 359 357 359 370 q 357 344 358 350 q 355 333 357 338 q 308 251 347 292 l 309 251 q 234 213 273 213 l 231 226 l 235 226 q 241 235 237 229 q 247 246 246 240 l 247 245 q 250 260 247 248 q 252 267 252 263 q 254 273 252 270 q 255 279 255 277 l 255 280 l 255 667 q 267 712 260 694 q 316 787 279 748 q 335 805 326 797 q 353 819 344 813 q 395 835 374 832 q 389 826 392 831 q 382 814 385 821 q 374 803 378 808 q 368 793 371 798 l 370 795 l 361 760 l 361 527 l 500 857 l 507 854 q 543 823 507 839 q 554 820 548 821 q 568 819 560 819 q 621 846 598 819 l 622 838 l 626 843 q 596 731 626 777 q 516 677 564 677 q 480 686 494 677 l 478 686 l 412 533 q 449 478 432 507 q 480 416 466 449 q 487 398 484 408 q 494 380 490 389 q 500 359 497 370 q 507 338 503 349 q 511 320 509 330 q 517 296 514 309 q 525 269 521 283 q 533 239 528 255 q 589 149 558 152 l 591 153 q 596 149 594 149 q 627 168 606 149 l 645 154 l 553 1 m 236 691 q 232 675 233 682 q 229 665 231 669 q 228 661 229 662 q 228 658 228 659 q 227 656 227 656 l 227 294 q 186 193 227 242 q 99 144 142 144 l 99 151 q 109 173 104 163 q 115 191 113 183 q 120 214 120 207 l 120 356 q 115 358 117 357 q 112 359 113 359 l 104 359 l 102 361 q 74 327 79 359 q 43 356 56 332 q 31 404 31 379 q 53 476 31 446 q 110 505 75 505 l 115 505 l 117 504 l 120 504 l 120 555 q 157 650 120 612 q 193 681 174 667 q 213 692 203 687 q 235 703 224 698 l 238 694 l 236 691 m 299 833 q 265 753 299 796 q 203 709 235 711 l 199 709 q 129 724 152 709 l 128 724 l 125 725 q 100 729 119 725 q 84 731 90 730 q 75 732 78 732 q 14 687 38 732 l 14 705 q 48 810 14 763 q 86 843 66 831 q 130 855 106 854 l 132 858 q 147 854 139 857 q 165 850 155 852 q 184 845 174 848 q 204 839 194 842 q 220 833 213 836 q 233 828 227 830 q 249 823 243 824 l 250 821 l 253 821 q 293 836 275 821 l 299 833 z "},"L":{"ha":613,"x_min":16,"x_max":599,"o":"m 500 650 l 474 681 l 491 706 q 488 710 488 709 q 486 713 486 712 l 479 722 q 472 727 477 723 q 459 739 468 730 q 453 743 456 741 q 446 749 450 745 q 439 755 443 751 q 431 762 435 758 l 429 762 l 427 763 l 420 763 l 420 764 q 375 741 385 764 q 365 715 365 724 l 365 331 q 358 294 365 312 q 342 257 352 274 q 331 241 336 248 q 318 226 325 233 q 305 213 311 218 q 292 204 298 208 l 292 205 q 279 199 287 201 q 260 191 271 197 l 260 191 q 256 189 258 189 q 254 188 255 189 q 250 187 252 188 q 248 187 249 187 q 247 186 248 186 q 239 186 245 186 l 224 186 q 236 204 231 195 q 245 222 241 213 q 256 264 254 241 l 256 270 q 256 275 256 273 q 256 281 256 278 q 257 286 256 284 q 257 287 257 286 q 258 289 258 288 l 258 641 q 344 780 258 709 q 480 845 424 845 l 484 845 q 549 821 503 845 q 590 778 579 802 l 500 650 m 507 7 q 282 66 396 66 q 109 24 183 66 q 93 14 103 22 q 83 7 88 11 q 73 1 78 4 q 97 50 83 28 q 129 92 111 73 q 214 155 164 130 q 392 199 302 199 q 496 180 452 199 l 496 414 q 479 452 479 421 q 490 484 479 471 q 515 499 502 499 q 540 484 528 499 q 550 452 550 470 q 532 412 550 422 l 532 168 q 543 163 534 165 l 547 159 l 545 159 q 550 155 548 157 l 550 157 l 552 155 l 553 154 l 557 151 l 571 173 l 599 145 l 507 7 m 233 681 l 239 678 q 231 643 233 656 q 228 629 228 631 l 226 274 l 226 271 q 210 221 226 252 q 96 125 167 134 q 119 221 119 174 l 119 350 q 113 354 117 352 q 108 357 111 355 q 103 361 106 359 l 100 361 q 80 353 89 361 q 71 330 71 343 l 71 328 l 71 319 l 66 319 l 66 318 l 62 318 q 31 338 45 318 q 17 379 18 357 q 16 393 16 382 q 75 492 16 463 l 96 496 q 107 498 101 497 q 119 500 113 498 l 119 547 q 119 562 119 556 q 120 571 119 568 q 166 643 124 606 q 235 682 205 682 l 233 681 m 319 805 q 271 718 315 753 q 192 684 233 684 q 137 699 166 684 q 129 701 130 699 q 122 705 126 703 q 116 706 117 705 q 101 711 112 708 q 90 713 93 713 l 88 711 q 73 707 77 711 q 60 699 67 707 q 49 690 57 698 l 31 672 l 31 685 q 62 799 31 755 q 146 843 92 843 q 182 837 163 843 q 224 821 201 832 q 290 800 271 800 q 297 801 292 800 q 307 805 301 802 q 314 810 311 808 l 319 805 z "},"M":{"ha":786,"x_min":12,"x_max":778,"o":"m 705 1 l 701 1 q 593 189 593 1 l 593 368 l 536 368 l 536 138 l 549 152 l 572 118 l 452 1 q 361 65 407 65 q 349 64 355 65 q 335 60 342 62 q 302 48 321 56 q 303 53 302 50 q 304 58 303 55 q 306 65 305 62 q 309 71 307 68 l 307 71 q 362 152 331 125 l 362 368 l 307 368 l 307 147 q 293 92 307 128 q 192 4 256 4 q 157 14 182 4 q 123 23 136 23 l 123 26 q 72 42 83 42 q 12 1 35 42 q 41 119 12 75 q 123 163 71 163 q 154 158 136 163 q 172 152 163 156 q 192 143 182 149 q 197 140 197 141 q 203 137 197 140 q 224 130 211 130 l 224 140 q 234 130 232 130 q 256 142 244 130 q 269 170 269 155 l 269 703 l 248 688 l 247 687 l 244 684 l 244 683 q 241 675 241 678 q 238 665 238 672 l 238 298 q 236 279 238 290 q 233 269 235 274 q 229 257 231 263 q 208 224 221 239 q 180 197 195 208 q 146 179 164 186 q 114 172 131 172 l 108 172 l 108 174 l 98 174 l 109 186 l 110 186 q 125 224 125 207 l 125 363 l 123 366 q 117 371 125 366 l 115 371 l 114 372 l 111 372 l 110 373 q 92 351 92 371 q 93 343 93 347 l 94 340 l 97 328 l 92 328 l 91 326 l 87 326 q 46 355 63 326 q 33 412 33 379 q 68 487 33 460 q 87 498 83 498 l 125 501 l 125 623 q 170 695 125 665 l 408 850 q 500 752 452 756 l 500 844 l 536 844 l 536 755 l 538 755 q 641 851 574 755 q 715 772 679 796 l 718 772 q 730 777 724 772 l 733 777 l 734 778 q 747 785 739 778 l 747 764 l 746 762 l 746 755 l 745 753 q 732 716 744 736 q 707 689 721 698 l 707 186 q 716 154 707 169 q 741 136 726 140 l 750 153 l 778 128 l 705 1 m 496 161 q 497 160 496 161 q 498 159 497 159 l 500 159 l 500 687 q 477 680 488 680 q 471 679 474 679 l 470 679 l 470 171 q 475 170 473 170 q 479 168 477 169 q 490 163 484 166 q 494 162 491 162 l 496 161 m 323 724 q 319 726 320 725 q 317 729 318 728 q 315 731 317 730 l 307 728 l 307 502 l 362 502 l 362 695 q 359 698 360 698 q 357 699 359 698 q 354 701 355 700 q 351 702 352 701 q 347 705 348 703 l 347 705 q 324 724 342 705 l 324 722 l 323 724 m 536 707 l 536 502 l 593 502 l 593 687 q 549 718 565 693 q 537 708 543 708 l 536 707 z "},"N":{"ha":640,"x_min":23,"x_max":634,"o":"m 634 829 q 626 794 633 811 q 604 758 619 777 q 580 730 593 742 q 554 709 568 718 l 554 711 q 544 704 549 707 q 539 702 541 703 q 536 701 538 701 l 536 1 l 530 1 q 426 128 481 1 l 427 128 q 417 150 422 138 q 406 176 412 161 q 393 209 401 190 q 376 253 386 229 q 366 278 371 265 q 361 291 363 285 q 356 305 359 298 q 264 333 304 333 q 188 313 212 333 l 188 191 l 189 191 l 191 193 l 197 193 q 260 179 229 193 q 319 140 289 165 l 330 161 l 352 133 l 273 1 q 142 56 203 56 q 56 31 98 56 l 56 32 q 50 27 52 29 q 46 24 48 26 q 44 23 45 24 l 37 20 q 30 16 33 18 q 23 13 26 14 q 151 185 52 146 l 151 354 q 149 355 149 355 q 146 356 148 355 q 144 357 145 357 q 142 359 143 358 l 139 359 q 128 349 132 359 q 123 328 123 338 l 125 326 l 125 321 l 125 313 q 81 339 99 313 q 63 401 63 365 q 106 501 63 478 q 112 503 109 502 q 121 505 116 503 q 134 507 127 506 q 151 510 141 509 l 151 717 l 149 717 q 136 710 144 712 q 129 708 132 709 q 121 705 125 707 q 115 705 119 705 q 109 702 112 705 q 64 632 67 675 l 58 632 l 60 630 q 39 684 39 635 q 77 804 39 752 q 168 859 113 859 q 260 814 222 859 q 289 774 272 800 q 326 709 305 748 q 337 681 331 696 q 352 647 344 665 q 393 550 368 608 q 446 538 408 538 q 456 538 456 538 q 486 543 481 538 l 490 543 l 498 545 l 500 545 l 500 693 l 498 693 l 496 692 l 490 692 q 420 717 441 692 l 401 696 l 377 727 l 486 860 q 572 814 532 814 q 628 834 596 814 l 634 829 m 270 380 q 334 368 300 380 q 326 387 330 376 q 317 413 322 398 q 304 447 311 428 q 289 490 297 466 q 263 561 274 530 q 243 611 252 591 q 188 701 211 686 l 188 362 q 270 380 239 380 m 434 429 q 452 379 444 402 q 469 337 461 357 q 500 271 486 298 l 500 497 q 484 492 495 494 q 474 491 479 491 q 463 491 469 491 l 436 491 q 410 496 420 491 q 414 485 412 491 q 419 471 416 479 q 426 452 422 463 q 434 429 429 441 z "},"O":{"ha":680,"x_min":14,"x_max":660,"o":"m 325 1 q 151 67 228 1 q 38 244 73 135 q 14 416 14 321 q 15 420 15 417 l 15 424 l 14 425 q 14 445 14 437 q 15 454 14 452 q 121 747 19 607 q 266 844 191 844 l 275 844 l 275 842 l 281 842 l 281 833 q 151 612 180 767 q 149 588 149 602 q 149 558 149 575 q 151 521 150 542 l 151 505 q 136 436 151 458 l 136 427 q 161 229 136 331 q 330 48 209 48 q 351 50 340 48 q 373 55 361 52 q 376 56 375 55 q 377 56 377 56 q 378 56 378 56 q 380 57 380 56 q 386 58 382 58 l 386 731 q 373 723 382 728 q 365 718 370 720 q 356 712 361 715 l 356 235 q 332 189 356 221 q 323 176 327 182 q 314 166 319 170 q 306 158 310 161 q 298 151 302 154 q 271 131 283 137 q 246 125 256 125 l 245 127 l 243 127 l 242 128 l 238 128 q 240 134 239 132 q 241 140 241 137 q 246 153 243 149 l 245 151 l 245 156 q 246 162 245 159 q 247 174 247 163 l 248 176 l 248 664 q 228 654 239 658 q 217 651 221 652 q 210 650 213 650 l 210 699 q 273 728 229 707 q 323 753 295 739 q 386 784 351 767 l 386 846 l 423 846 l 423 808 q 449 825 429 811 l 450 825 l 451 826 q 461 830 456 827 q 471 836 465 832 q 480 842 475 839 q 489 850 484 846 l 489 859 q 650 587 615 760 q 660 484 660 538 q 607 222 660 347 q 458 37 553 93 q 325 1 399 1 m 545 427 q 536 531 545 485 q 530 528 534 531 q 517 523 524 525 q 506 519 511 521 q 487 516 496 516 l 463 516 q 423 524 440 516 l 423 304 q 429 304 426 304 q 434 305 430 304 q 443 307 437 306 q 466 311 461 311 l 490 311 q 515 307 496 311 q 520 307 518 307 q 523 307 522 307 l 528 307 q 531 306 530 307 q 534 306 532 306 q 538 305 536 305 q 539 310 538 308 q 539 315 539 313 q 540 320 540 318 q 541 324 541 322 q 543 329 543 328 q 545 368 544 355 q 545 385 545 382 l 545 427 m 490 146 q 505 171 498 159 q 515 197 511 184 q 530 250 525 224 q 523 253 527 252 q 520 255 522 254 q 517 257 519 256 q 504 258 510 258 q 494 260 498 258 q 485 262 487 261 l 466 262 q 450 261 456 262 q 438 258 444 260 q 425 254 433 255 q 423 253 424 253 l 423 75 q 490 146 460 95 m 484 557 q 526 576 501 557 q 430 758 490 690 l 423 755 l 423 573 q 471 557 435 557 l 484 557 z "},"P":{"ha":581,"x_min":18,"x_max":544,"o":"m 543 771 q 510 711 541 727 l 510 140 l 510 140 q 511 137 510 138 q 513 130 511 133 l 513 129 l 514 127 q 515 122 515 125 q 517 115 516 119 q 520 107 519 111 q 525 98 522 103 l 514 98 l 512 99 l 506 99 l 505 100 q 489 101 504 101 l 486 102 l 484 102 q 332 5 397 102 l 304 41 q 297 48 299 43 l 297 -157 l 282 -157 q 205 -96 231 -157 q 182 -116 194 -103 q 161 -148 171 -128 l 163 -144 q 161 -151 163 -144 q 160 -152 160 -151 q 158 -154 159 -153 q 157 -156 157 -155 q 157 -157 157 -157 l 109 -157 l 109 -146 l 110 -144 q 118 -97 115 -115 q 121 -73 121 -79 l 121 90 q 113 85 117 87 q 106 79 109 82 q 97 72 102 75 q 87 62 92 68 q 81 51 83 55 q 77 44 78 46 q 73 38 75 41 q 67 31 71 35 q 64 27 66 29 q 60 21 63 24 q 54 12 56 13 q 47 48 50 33 q 45 71 45 63 q 121 222 45 182 l 121 363 q 115 368 119 366 q 112 371 114 370 q 108 373 110 372 l 110 372 l 107 372 l 105 373 l 100 373 l 99 372 q 77 351 77 372 l 76 349 l 76 348 l 77 347 l 77 345 l 78 345 l 78 342 l 79 342 l 79 330 q 43 359 58 335 q 31 412 31 382 q 119 503 31 503 l 121 502 l 121 694 q 109 722 121 709 q 85 737 98 737 q 53 713 66 737 q 39 664 39 690 l 33 664 l 33 663 q 20 701 20 677 q 19 709 19 706 q 18 722 18 713 q 50 813 18 774 q 125 850 83 850 l 130 853 q 234 702 234 843 q 233 688 234 690 q 236 689 236 688 l 236 688 q 241 692 237 690 q 244 694 243 693 q 246 695 245 694 q 253 702 248 698 q 257 705 255 703 q 262 708 260 707 l 261 708 l 262 709 q 264 711 262 709 l 264 852 l 296 852 l 296 737 q 362 790 328 759 q 436 862 397 821 q 504 786 476 799 q 520 785 505 785 q 527 786 525 785 l 528 786 l 530 789 l 534 789 l 536 790 l 544 790 l 544 772 l 543 771 m 233 -34 q 264 -98 233 -76 l 264 652 q 258 647 260 650 l 254 645 q 252 643 253 644 q 250 641 251 642 l 248 641 l 233 632 l 233 -34 m 365 344 q 380 341 369 344 q 397 336 393 339 l 397 526 q 359 519 385 519 l 331 519 q 297 528 315 519 l 297 338 q 301 338 300 338 q 303 339 302 338 q 305 339 304 339 q 321 341 313 340 q 337 342 330 342 q 352 344 353 343 l 365 344 m 359 569 q 397 578 384 569 l 397 578 l 397 704 q 359 724 382 704 q 332 702 342 707 q 317 690 326 696 q 308 683 313 687 q 298 675 303 680 l 299 675 q 298 673 298 673 l 297 673 l 297 582 q 345 569 313 569 l 359 569 m 297 228 q 325 208 311 218 q 349 186 338 198 q 393 139 372 164 l 397 143 l 397 283 l 393 286 l 391 286 q 388 288 391 286 q 383 290 386 289 q 376 292 380 291 q 376 290 378 289 q 372 292 374 291 l 367 292 q 359 294 361 292 q 357 294 357 294 l 355 294 l 336 294 q 331 294 334 294 q 326 294 329 294 q 319 292 322 292 q 313 290 316 291 q 308 288 310 288 q 304 286 306 287 q 297 285 301 285 l 297 228 m 271 659 l 270 659 l 271 659 z "},"Q":{"ha":695,"x_min":18,"x_max":664,"o":"m 602 195 q 430 17 534 56 q 431 16 430 16 l 431 14 q 524 -66 502 -66 q 561 -42 536 -66 l 561 -55 l 562 -55 l 562 -64 q 519 -130 562 -107 q 513 -132 515 -131 q 509 -134 511 -133 q 506 -135 507 -134 q 503 -136 504 -135 q 495 -138 499 -138 q 489 -140 493 -138 q 477 -141 479 -140 l 469 -141 q 422 -131 439 -141 q 307 -6 399 -117 q 221 18 262 -2 q 181 40 200 27 q 145 69 163 54 q 83 146 111 103 q 41 245 56 191 q 18 408 18 315 l 20 410 l 20 418 l 18 419 q 20 449 18 445 q 47 600 22 529 q 125 740 73 671 q 270 838 198 838 l 279 838 l 279 838 l 285 838 l 287 829 q 251 802 268 817 q 220 769 235 786 q 143 517 157 686 q 143 515 143 516 q 142 513 142 514 q 142 509 142 512 q 141 497 142 499 l 141 437 q 140 418 140 435 q 172 200 140 301 l 172 201 q 283 49 210 81 q 337 71 305 71 q 391 52 359 71 l 391 724 l 389 724 q 388 723 389 724 q 387 722 388 722 q 385 722 385 722 q 384 721 385 721 l 380 718 q 374 716 378 716 q 371 715 372 716 l 361 709 l 361 229 q 350 203 361 220 q 305 149 334 176 q 252 121 276 121 l 248 121 l 248 122 l 237 122 q 242 128 241 125 q 244 132 243 130 l 246 136 q 248 144 248 140 q 250 153 249 149 q 252 169 251 162 l 252 661 q 243 654 248 657 q 232 650 238 652 q 214 646 220 646 l 214 696 q 240 706 220 697 q 264 716 250 710 q 297 730 279 722 q 322 741 310 735 q 347 754 335 747 q 370 767 359 760 q 391 781 380 773 l 391 840 l 427 840 l 427 802 q 430 804 426 802 q 452 817 435 804 l 451 817 l 453 820 q 456 822 454 820 q 477 836 468 829 q 488 842 483 839 q 497 848 492 845 q 621 692 577 789 q 664 479 664 596 q 602 195 664 326 m 550 406 q 548 434 550 418 q 547 452 547 442 q 545 472 546 461 q 543 488 543 481 q 541 503 543 496 q 540 514 541 509 q 540 525 540 519 q 491 511 511 511 l 467 511 q 454 511 460 511 q 444 513 449 511 q 427 519 434 513 l 427 298 q 431 299 429 298 q 436 300 433 300 l 440 302 q 470 307 463 307 l 495 307 q 543 298 524 307 q 543 303 543 300 q 544 309 543 305 q 545 314 545 311 q 546 319 545 317 q 547 324 547 321 q 549 362 548 349 q 550 378 550 376 l 550 406 m 495 140 q 509 165 503 153 q 520 191 515 178 q 529 218 526 205 q 534 245 532 231 l 526 249 q 517 254 520 251 q 516 254 517 252 q 488 257 493 254 l 470 257 q 458 255 465 257 l 442 251 q 427 247 433 247 l 427 68 q 495 140 465 90 m 488 554 q 530 573 508 554 q 434 753 494 686 l 427 750 l 427 568 q 475 554 438 554 l 488 554 z "},"R":{"ha":625,"x_min":14,"x_max":606,"o":"m 534 13 l 532 13 l 531 12 l 528 12 l 527 10 l 523 10 q 492 18 508 10 q 460 43 475 26 q 425 104 432 71 l 345 8 q 237 61 277 57 l 225 61 q 218 61 222 61 q 210 62 214 62 q 203 62 206 62 q 196 63 199 62 q 190 63 193 63 q 184 64 187 64 q 52 3 110 64 q 118 123 64 75 q 216 181 163 165 q 242 185 228 182 q 274 191 256 187 q 279 190 277 190 q 286 189 282 190 q 305 184 295 186 q 317 182 311 183 q 330 178 323 180 q 354 169 333 178 q 376 159 363 165 q 404 147 389 154 l 410 158 l 410 161 q 401 212 404 176 q 344 389 384 376 l 344 320 q 275 215 344 255 q 236 199 249 199 l 234 197 l 233 197 l 231 196 l 216 196 q 232 226 225 212 q 237 253 237 240 l 237 621 q 238 639 237 637 q 274 717 238 685 l 274 720 l 440 842 q 520 711 500 807 q 521 705 521 707 q 522 700 521 702 q 523 690 522 697 q 524 686 523 687 l 524 680 l 524 663 q 494 536 524 599 q 427 446 470 480 q 504 305 486 410 q 504 306 504 307 q 505 301 505 304 q 506 295 505 298 q 507 290 506 292 q 508 283 507 286 q 509 278 508 281 q 511 264 509 271 q 513 247 511 260 q 522 210 516 233 q 538 162 532 172 q 572 143 551 143 l 576 145 q 578 146 578 146 q 581 147 579 146 l 579 147 q 584 150 581 149 q 591 152 587 151 q 598 155 595 153 q 606 157 602 156 l 534 13 m 217 679 l 224 677 q 221 670 222 675 q 220 667 220 666 l 220 665 q 218 661 220 667 q 216 655 217 658 q 214 649 216 652 q 212 631 214 640 l 210 618 l 210 269 q 199 226 210 248 q 169 177 189 205 q 85 127 126 127 q 103 174 103 154 l 103 349 l 99 354 q 98 355 98 354 q 95 357 96 356 l 93 357 l 92 358 q 86 354 90 357 q 79 345 83 351 q 78 341 79 344 q 77 336 77 340 l 76 335 l 76 330 l 73 334 l 73 326 q 71 324 71 326 l 70 324 l 71 324 q 65 323 70 323 q 29 391 33 323 l 28 393 l 28 401 q 48 467 28 441 q 102 496 68 494 l 102 506 l 101 509 l 101 515 q 128 610 101 574 q 155 637 138 623 q 193 668 171 652 q 200 673 197 671 q 206 677 203 675 q 220 683 211 680 l 217 679 m 307 823 q 292 770 303 795 q 266 726 282 746 q 249 710 258 717 q 231 697 240 703 q 189 686 210 686 l 189 684 l 184 684 q 125 701 150 684 l 127 701 l 126 701 q 125 702 126 702 q 118 703 119 702 l 119 703 q 78 717 82 717 q 14 668 50 717 l 14 683 q 22 741 14 719 q 40 777 30 760 q 64 806 50 791 q 92 826 77 817 q 121 835 109 835 l 122 836 l 126 836 q 184 817 140 836 l 186 816 l 186 816 q 238 797 214 797 l 241 800 q 245 800 243 800 q 247 799 246 800 q 248 799 248 799 l 249 798 q 273 809 256 798 q 298 827 294 821 q 300 828 298 827 l 307 823 m 433 566 q 434 573 434 568 q 434 577 434 574 q 435 583 435 580 l 435 597 q 434 604 434 602 q 433 614 433 607 q 429 635 430 625 q 427 645 427 640 q 425 656 426 650 q 374 740 407 716 q 344 698 344 713 l 344 434 l 346 434 q 350 435 348 435 q 353 437 351 436 q 361 441 355 438 q 376 452 367 445 l 376 450 q 395 470 387 459 q 410 494 403 481 q 422 522 417 507 q 431 554 427 536 q 432 559 431 557 q 433 566 432 560 z "},"S":{"ha":689,"x_min":33,"x_max":646,"o":"m 646 446 q 637 378 646 408 q 615 318 629 349 q 598 286 608 302 q 578 251 589 269 q 571 240 574 245 q 563 229 567 235 q 554 215 559 222 q 544 202 549 209 q 524 172 534 188 q 513 155 518 163 q 503 136 508 146 q 491 119 497 129 q 477 96 484 109 q 461 71 469 84 q 443 41 452 57 q 441 34 441 35 q 439 28 441 33 q 437 23 438 26 q 434 16 436 20 q 432 12 433 14 q 431 9 432 11 q 431 7 431 8 q 366 37 396 24 q 307 59 336 50 q 254 73 279 68 q 207 77 229 77 q 196 75 205 77 q 170 69 186 73 q 33 2 96 53 q 114 122 55 75 q 140 142 127 133 q 166 157 153 151 q 222 182 193 171 q 254 189 238 186 q 286 193 269 192 q 304 195 294 194 q 324 197 313 195 q 332 196 330 197 q 340 194 336 196 q 348 193 344 193 q 357 192 353 193 q 380 188 366 191 q 463 159 398 186 q 485 194 475 178 q 503 222 495 210 q 515 242 510 233 q 524 258 521 251 q 559 371 559 323 q 542 423 559 392 q 433 473 515 473 l 368 473 q 360 472 361 472 l 355 472 l 347 450 l 357 450 l 363 450 l 394 450 l 400 450 q 507 424 477 450 q 536 357 533 404 q 534 352 535 355 q 533 340 534 348 q 532 337 533 338 q 532 335 532 336 q 532 333 532 334 q 529 322 532 330 q 523 300 527 314 q 458 221 507 241 l 467 239 l 467 237 q 467 240 467 239 q 468 243 467 241 q 469 249 468 245 q 473 265 473 258 l 473 268 q 360 323 473 323 l 309 323 l 301 323 l 297 323 q 283 294 295 319 q 156 178 224 178 q 151 178 154 178 q 144 180 148 179 q 94 254 94 201 l 94 255 q 126 315 94 291 q 134 319 131 317 q 142 321 137 321 l 143 322 l 146 322 q 209 258 201 322 q 221 272 214 264 q 228 280 224 276 q 234 290 231 285 q 235 293 235 292 q 237 298 236 295 q 243 309 239 304 q 250 322 243 314 l 250 323 l 247 323 l 245 323 l 233 323 q 145 338 186 323 q 73 401 90 360 q 62 461 62 424 q 96 562 62 519 q 178 464 111 488 q 296 450 219 450 l 296 451 l 298 451 l 305 472 l 301 472 q 121 551 150 472 q 111 619 111 581 q 231 821 111 755 q 267 836 250 831 q 283 840 275 839 q 299 843 292 842 q 305 844 303 843 q 319 845 319 844 l 339 845 q 355 844 340 844 l 357 844 q 363 844 359 844 q 371 842 366 843 q 381 839 376 840 q 395 835 387 837 q 489 782 446 817 l 517 811 l 542 782 q 529 766 536 770 l 530 766 l 512 743 q 501 731 507 737 q 488 716 495 724 q 453 667 471 694 q 417 608 435 640 q 444 606 428 606 q 482 604 460 605 q 538 591 507 604 q 646 446 646 555 m 405 673 q 349 747 387 719 q 273 776 313 776 l 269 776 l 262 773 q 254 772 258 772 q 247 770 250 772 q 178 690 182 752 q 248 612 179 631 q 294 605 276 605 l 338 605 l 344 605 q 352 606 347 605 l 365 606 q 368 613 366 610 q 372 621 370 616 q 382 637 376 627 q 387 646 384 639 q 390 651 389 649 q 393 656 391 654 q 396 661 395 658 q 398 664 397 662 q 400 667 399 665 l 405 673 m 467 239 l 467 237 l 467 239 m 443 41 l 441 40 l 443 41 z "},"T":{"ha":587,"x_min":29,"x_max":570,"o":"m 570 809 q 566 792 569 801 q 559 775 564 784 q 550 758 555 766 q 540 742 545 749 q 515 715 530 728 q 490 696 503 703 l 490 221 q 547 305 509 240 q 383 24 547 102 q 291 0 332 0 q 184 20 225 0 q 70 132 111 57 q 29 306 29 205 l 29 311 l 31 313 q 98 564 31 448 q 221 666 147 654 q 130 421 130 536 q 133 363 130 391 q 142 311 136 336 q 181 220 156 260 l 181 221 q 327 134 238 134 l 328 134 l 330 136 q 453 182 400 136 l 453 677 l 451 677 q 438 674 442 674 q 391 669 429 669 l 389 667 l 387 667 q 367 668 376 667 q 349 669 358 668 q 332 671 340 670 q 317 673 324 671 q 312 674 315 673 q 304 675 309 675 q 294 678 300 677 q 282 680 289 679 q 271 683 277 682 q 257 686 264 684 q 242 689 250 687 q 225 693 235 691 q 135 705 172 705 l 130 705 q 107 704 124 704 q 33 646 62 698 l 33 663 q 50 730 33 692 q 206 832 101 830 l 212 834 q 255 829 228 833 q 319 819 281 825 l 374 806 q 380 804 376 805 q 388 802 383 803 q 412 797 395 799 l 433 794 l 454 790 l 479 790 l 480 791 l 494 791 l 495 790 q 564 814 536 790 l 570 809 m 380 313 q 342 219 380 264 q 264 176 304 176 l 258 176 l 258 177 l 249 177 l 256 187 l 256 191 l 258 193 q 259 196 258 195 l 262 200 q 267 212 262 204 l 267 215 l 268 216 l 268 219 l 269 220 l 269 534 l 240 516 l 240 568 l 359 656 l 380 656 l 380 313 z "},"U":{"ha":640,"x_min":12,"x_max":635,"o":"m 543 1 q 449 116 485 5 q 447 122 448 119 q 446 126 446 124 q 445 130 445 128 q 444 134 444 132 q 425 117 434 125 q 407 102 415 109 q 391 87 398 94 q 376 74 383 81 q 309 0 332 36 q 156 65 221 65 q 77 39 127 65 l 75 39 l 75 38 l 71 35 q 68 33 68 33 l 60 33 q 165 169 82 130 l 165 370 q 152 379 158 376 q 147 380 151 380 l 146 379 q 126 370 135 379 q 115 350 117 363 l 117 350 l 117 337 q 83 358 96 337 q 68 407 68 378 q 124 508 68 482 q 163 515 141 509 l 165 515 l 165 654 q 157 677 165 659 q 102 719 137 719 q 26 663 57 719 q 25 662 26 663 q 23 659 24 661 l 24 659 q 22 653 22 654 q 12 640 20 652 q 33 753 12 701 q 87 826 54 807 q 143 840 111 840 l 147 843 q 237 785 201 836 q 271 659 271 732 l 271 179 q 279 176 275 176 q 284 175 281 176 q 290 173 286 174 q 298 170 292 171 q 307 167 303 168 l 307 836 l 345 836 l 345 734 l 493 852 q 555 777 517 795 q 574 772 564 772 q 606 787 582 772 q 591 728 606 753 q 554 692 574 701 l 554 185 q 597 141 554 141 l 602 141 l 604 142 q 611 144 610 142 l 613 144 l 614 145 l 618 145 l 620 146 l 623 146 l 624 148 l 635 148 l 543 1 m 368 123 q 387 141 378 132 q 406 157 397 149 q 424 171 415 164 q 441 185 432 178 l 441 330 q 430 332 436 330 q 423 334 426 334 q 417 336 420 335 q 417 336 418 336 q 414 336 416 336 q 404 338 407 338 q 390 340 399 340 q 383 338 387 338 q 366 335 375 337 q 345 331 356 334 l 345 148 q 349 142 347 144 q 353 138 351 140 q 356 135 354 137 q 359 132 357 134 l 368 123 m 406 538 q 441 549 422 538 l 441 692 q 405 723 421 699 l 345 677 l 345 548 q 378 538 350 538 l 406 538 m 415 381 q 427 378 420 378 q 441 375 431 376 l 441 505 q 397 496 426 496 l 375 496 q 370 497 373 496 q 363 498 367 497 q 355 500 360 498 q 345 503 351 501 l 345 375 q 370 381 358 375 q 385 382 384 381 l 397 382 q 415 381 401 381 z "},"V":{"ha":613,"x_min":1,"x_max":592,"o":"m 592 778 l 590 775 l 590 771 l 589 770 q 586 761 589 766 q 581 746 584 755 q 538 698 560 706 l 538 138 q 553 102 538 123 q 528 109 538 107 q 515 111 519 111 l 511 111 l 509 113 l 505 113 q 285 0 382 113 q 248 41 264 25 q 217 62 230 57 q 130 83 166 83 q 49 57 81 83 l 44 64 q 47 69 44 64 q 48 77 48 75 l 52 77 q 94 149 71 121 q 144 185 117 176 l 144 680 q 136 703 144 686 q 83 739 117 739 q 20 654 32 739 q 1 718 1 685 q 26 793 1 758 q 82 844 53 831 q 123 851 97 851 l 125 853 q 242 769 210 845 q 253 708 253 739 l 253 196 q 273 191 257 191 q 277 189 275 190 q 281 186 279 187 q 288 182 286 183 l 288 850 l 323 850 l 323 749 l 457 872 q 560 774 520 774 q 592 790 568 774 l 592 778 m 406 140 q 412 142 407 140 q 418 144 415 143 q 425 146 421 144 l 425 315 q 423 316 425 316 q 417 317 424 316 l 416 319 q 412 319 414 319 q 410 320 412 320 q 402 322 406 321 q 395 324 398 323 q 387 326 391 325 q 379 328 383 326 l 368 328 l 368 330 l 363 330 q 340 325 353 330 q 336 324 338 325 l 330 324 q 328 323 328 324 l 328 323 l 330 323 q 323 321 327 321 l 323 165 l 326 162 l 330 159 l 332 157 l 330 157 q 350 139 340 148 q 368 121 359 131 l 370 121 l 406 140 m 387 562 q 425 570 408 562 l 425 699 l 422 702 q 376 743 400 710 l 323 693 l 323 573 q 362 562 342 562 l 387 562 m 418 366 q 421 364 419 364 l 425 362 l 425 522 q 389 515 409 515 l 358 515 q 353 516 355 515 q 323 519 335 516 l 323 368 q 347 373 340 368 l 353 373 l 355 374 l 370 374 q 418 366 401 374 z "},"W":{"ha":760,"x_min":1,"x_max":738,"o":"m 738 775 q 699 713 738 728 l 699 144 q 702 130 700 140 q 708 104 705 120 q 701 102 705 102 l 695 102 q 675 104 680 102 l 662 104 l 660 105 l 652 105 q 449 1 524 105 q 320 95 380 91 l 318 96 q 256 60 284 84 q 203 1 227 36 q 105 64 159 64 q 31 37 68 64 l 33 37 l 31 35 l 31 35 l 28 32 l 22 36 q 120 161 43 138 l 120 357 q 113 364 115 362 q 110 368 112 366 q 106 372 108 370 l 104 372 l 102 374 l 98 374 l 96 374 l 95 374 q 73 346 73 374 l 74 345 l 75 345 l 75 340 l 76 340 l 76 326 l 68 330 q 65 329 67 329 q 37 349 50 329 q 23 391 24 370 l 22 393 l 22 404 q 117 511 22 511 l 119 510 l 120 510 l 120 668 q 110 697 115 690 q 76 726 98 726 q 5 649 49 726 q 4 651 5 650 q 4 656 4 653 q 3 661 3 659 q 3 664 3 663 q 3 673 3 666 l 1 675 l 1 682 l 1 684 l 1 709 q 4 732 1 718 q 12 766 7 746 q 119 852 41 852 q 195 812 163 852 q 229 725 225 774 l 258 743 l 258 838 l 296 838 l 296 763 q 298 764 296 762 l 297 764 q 306 769 300 766 q 318 775 311 772 l 317 775 q 357 807 337 789 q 377 826 366 816 q 399 850 387 837 q 408 829 399 847 q 490 758 441 759 l 490 838 l 531 838 l 531 765 q 606 825 564 773 l 606 823 q 609 829 607 827 q 612 835 610 832 q 617 841 614 838 q 623 848 620 844 q 703 774 676 774 q 713 776 704 774 q 738 784 722 778 l 738 775 m 229 163 q 257 150 235 156 l 258 150 l 258 694 l 229 678 l 229 163 m 488 147 l 489 146 l 488 688 l 487 688 l 486 687 l 484 687 q 475 683 479 684 q 471 681 474 682 q 464 678 468 680 l 464 168 q 480 155 468 163 l 479 156 q 489 144 484 154 l 488 147 m 548 130 q 558 132 549 130 q 569 135 562 133 q 585 140 576 136 l 585 305 q 559 315 577 315 l 557 317 l 553 317 l 551 315 l 546 315 l 545 314 l 542 314 l 541 311 l 538 311 l 532 304 l 532 119 q 548 130 536 120 m 566 550 q 585 557 578 550 l 585 703 l 585 703 q 566 709 578 703 l 555 717 l 553 720 l 551 721 l 547 726 l 532 717 l 532 557 q 550 551 536 551 l 551 550 l 566 550 m 301 140 q 351 170 323 156 l 351 315 q 339 317 344 317 q 331 319 334 318 l 327 319 l 325 318 l 311 318 q 301 313 307 313 l 301 140 m 557 363 q 564 361 561 362 q 568 360 566 361 q 575 358 571 359 q 585 355 580 357 l 585 510 l 583 508 q 581 507 582 507 q 579 506 581 507 l 581 507 q 576 505 578 505 q 572 503 574 503 l 566 503 l 555 503 l 551 503 q 532 507 541 503 l 532 355 q 539 357 536 356 q 545 358 542 357 q 549 359 547 359 q 553 361 551 360 l 557 363 m 331 550 q 351 560 337 550 l 351 686 q 318 712 332 692 l 310 722 l 301 718 l 301 560 q 315 551 301 551 l 316 550 l 331 550 m 351 363 l 351 510 l 349 510 q 345 509 347 509 q 340 507 342 508 q 336 507 334 506 q 328 503 328 505 l 321 503 l 321 505 l 313 505 l 312 506 q 306 507 310 506 q 303 509 304 508 q 301 510 302 509 l 301 363 q 308 364 303 363 q 322 367 313 365 l 335 367 l 340 367 q 345 366 343 367 l 344 366 q 350 363 348 366 l 349 364 l 351 363 z "},"X":{"ha":598,"x_min":1,"x_max":591,"o":"m 513 1 l 502 1 q 444 22 468 1 q 345 181 394 60 q 313 271 328 225 q 287 364 298 316 q 281 350 284 359 q 274 329 277 341 q 265 302 270 317 q 254 269 260 287 q 224 168 224 176 l 224 166 q 222 163 224 165 q 221 158 222 161 q 219 152 220 155 q 218 149 218 151 q 217 144 218 147 l 217 146 q 212 128 216 145 q 206 109 210 121 q 197 81 202 97 q 185 45 191 64 q 172 4 180 26 l 170 7 q 147 20 162 13 l 151 18 l 151 18 q 149 19 150 18 q 144 21 148 19 q 138 24 140 24 q 80 47 94 47 q 21 18 50 47 l 22 18 l 18 13 l 15 12 q 1 1 12 6 q 17 74 5 41 q 48 132 29 106 q 147 182 87 182 l 151 182 q 163 181 153 181 q 179 178 170 178 q 192 221 184 197 q 210 275 200 245 q 233 341 221 306 q 261 418 245 376 q 212 416 235 418 q 191 413 201 415 q 170 410 180 412 l 127 401 q 106 397 117 397 l 147 524 q 247 505 197 505 q 245 513 245 509 q 237 534 242 523 q 232 546 234 540 q 227 560 230 553 q 212 594 219 578 q 199 621 205 609 q 180 659 189 646 l 180 658 q 108 712 144 712 q 68 688 87 712 q 39 631 49 664 q 29 669 29 654 q 28 675 28 671 l 28 677 q 27 679 27 677 l 27 677 l 26 682 l 26 693 q 59 803 26 758 q 144 851 93 847 l 145 854 q 267 759 216 848 q 292 706 276 743 q 332 610 309 669 q 349 654 341 631 q 366 705 357 678 q 384 762 375 732 q 403 826 393 792 q 404 829 404 829 q 405 832 404 831 l 415 869 q 496 806 452 806 q 578 850 532 806 q 538 722 578 772 q 447 671 500 671 q 406 684 424 671 q 355 540 397 646 q 356 537 355 538 q 360 525 356 535 l 359 526 l 360 524 q 362 516 361 522 q 363 511 363 513 q 366 505 364 508 l 380 505 q 407 508 386 505 q 466 516 428 511 q 466 516 465 516 q 471 517 467 516 q 484 520 479 519 q 490 521 486 521 q 500 523 494 522 q 510 525 505 524 q 519 528 515 526 l 473 409 q 465 405 469 405 q 460 405 463 405 q 454 406 458 406 q 445 408 450 407 q 434 410 439 408 q 415 414 421 413 q 409 415 412 414 q 405 415 406 415 q 393 416 395 415 l 392 416 q 433 292 414 344 q 451 245 442 267 q 469 207 460 224 q 504 158 487 173 q 541 142 521 142 q 586 165 564 146 l 591 158 l 513 1 z "},"Y":{"ha":540,"x_min":28,"x_max":534,"o":"m 533 772 l 533 761 q 532 757 532 760 q 505 707 531 725 l 505 167 q 427 45 505 91 q 425 45 427 45 q 419 43 421 45 q 403 37 412 41 q 393 33 398 35 q 382 28 388 31 q 369 25 376 28 q 217 -47 217 25 q 237 -67 217 -67 q 264 -57 239 -67 q 270 -53 267 -56 q 273 -51 271 -52 q 277 -48 275 -50 l 277 -48 q 277 -47 277 -47 q 279 -45 278 -47 l 279 -47 l 279 -45 l 281 -45 l 279 -45 q 282 -42 281 -44 q 287 -39 284 -41 q 302 -26 292 -35 q 403 14 353 14 l 407 14 q 408 14 408 14 q 410 13 409 13 q 415 11 412 12 q 421 8 418 9 q 439 4 429 5 q 494 -92 494 -20 q 488 -127 494 -111 q 480 -143 485 -136 q 470 -156 476 -150 q 445 -176 458 -169 q 416 -183 432 -183 l 414 -184 l 411 -184 q 371 -173 391 -184 l 371 -134 q 410 -144 397 -144 q 433 -135 422 -144 q 444 -111 444 -127 q 438 -95 444 -101 q 426 -87 433 -87 q 348 -132 397 -87 l 349 -132 l 347 -135 l 345 -135 q 252 -186 296 -186 l 248 -186 l 245 -184 q 212 -176 228 -183 q 181 -152 196 -169 q 153 -73 153 -119 q 218 35 153 3 q 184 51 200 41 q 158 75 168 62 q 125 171 125 114 l 125 385 q 104 401 119 391 q 77 368 77 393 l 76 365 l 76 354 q 41 433 41 366 q 85 531 41 509 q 93 533 89 532 q 102 536 96 534 q 113 538 107 537 q 125 541 118 540 l 125 707 q 120 713 123 710 q 115 718 118 715 q 107 725 111 722 q 98 732 103 728 l 98 732 l 96 733 l 92 733 q 62 711 76 733 q 48 663 48 690 q 28 724 28 690 q 61 818 28 777 q 136 859 96 859 q 236 694 234 859 q 239 696 237 694 q 241 698 239 696 q 262 719 250 703 l 262 859 l 298 859 l 298 755 q 319 770 308 761 q 344 793 330 780 q 408 859 371 819 l 408 875 q 500 774 460 774 q 510 778 502 774 q 522 784 517 781 l 522 784 l 523 784 q 526 785 524 785 l 528 787 l 534 787 l 534 776 l 533 772 m 397 300 l 396 300 q 387 301 392 300 q 374 303 381 302 q 358 306 366 304 q 339 310 349 308 q 335 309 338 309 q 332 307 334 309 q 324 305 328 306 q 317 302 320 304 q 298 298 309 300 l 298 73 q 304 72 302 72 q 313 69 308 72 l 326 69 q 328 70 328 69 q 330 70 329 70 q 332 71 330 71 q 339 73 336 72 q 347 75 342 73 q 391 106 382 85 q 397 129 397 117 l 397 300 m 365 542 q 397 552 383 542 l 397 695 l 394 695 q 370 704 385 695 q 339 732 355 713 q 298 692 328 711 l 298 551 q 355 543 306 543 l 355 542 l 365 542 m 369 350 q 376 348 372 349 q 384 347 380 347 q 391 345 387 345 q 397 345 394 345 l 397 504 q 378 496 391 498 q 368 496 373 496 q 357 496 363 496 l 335 496 q 298 502 317 496 l 298 345 l 300 345 q 304 347 302 345 q 311 349 306 347 q 315 350 314 350 l 317 350 q 339 354 332 351 l 342 354 q 369 350 355 354 m 238 119 q 262 79 244 90 l 262 660 q 255 654 257 654 q 237 640 250 649 l 238 117 l 238 119 m 125 382 l 125 385 q 125 382 125 382 z "},"Z":{"ha":549,"x_min":33,"x_max":533,"o":"m 439 1 q 427 9 433 5 q 412 18 420 14 q 372 36 396 26 q 304 54 323 54 l 296 54 q 288 54 292 54 q 277 55 283 54 q 267 56 272 56 q 258 56 262 56 l 248 56 q 175 51 210 56 q 104 33 139 45 q 92 28 99 31 q 77 22 85 26 q 61 15 70 19 q 41 5 52 11 l 33 39 q 204 406 130 146 q 176 402 191 405 q 140 396 159 400 q 126 390 133 393 q 112 385 119 387 q 98 381 105 383 q 85 378 92 380 l 127 513 q 233 497 169 497 q 283 605 250 549 q 362 724 315 661 q 180 669 257 669 q 85 705 111 669 l 66 680 l 45 707 l 140 856 q 155 845 145 852 q 180 829 164 838 q 307 795 239 795 q 488 852 410 795 l 503 827 q 479 791 493 815 q 464 763 472 779 q 444 728 455 747 q 418 671 430 699 q 396 614 406 643 q 377 558 385 586 q 361 502 368 530 q 368 502 364 502 q 378 503 372 502 q 389 505 383 504 q 403 507 395 505 l 446 513 l 445 513 q 467 517 456 517 l 465 517 l 467 518 q 476 519 473 518 q 486 521 480 519 l 494 521 l 446 395 l 335 408 q 324 377 330 392 q 311 346 318 361 q 298 315 304 330 q 284 285 292 300 q 176 127 236 191 q 365 176 281 176 q 413 172 389 176 q 463 159 437 168 l 490 149 l 507 175 l 533 153 l 439 1 z "},"[":{"ha":304,"x_min":41,"x_max":230,"o":"m 41 325 q 150 385 145 340 q 118 774 75 600 q 226 887 163 863 q 195 820 207 851 q 178 760 183 788 q 222 345 161 583 q 143 321 200 319 q 225 296 190 326 q 181 -119 164 58 q 230 -246 191 -175 q 121 -134 167 -223 q 153 256 78 42 q 41 325 141 292 z "},"\\":{"ha":624,"x_min":0,"x_max":625,"o":"m 581 -67 q 546 -49 559 -67 l 7 793 q 0 817 0 805 q 12 845 0 833 q 40 857 23 857 q 60 852 50 857 q 77 838 70 848 l 616 -4 q 625 -30 625 -18 q 612 -56 625 -45 q 581 -67 600 -67 z "},"]":{"ha":293,"x_min":56,"x_max":245,"o":"m 245 470 q 136 410 141 454 q 168 20 212 196 q 60 -92 123 -68 q 109 35 98 -21 q 64 450 126 214 q 143 474 86 476 q 60 499 96 470 q 105 913 122 736 q 56 1041 95 970 q 165 928 121 1017 q 133 538 208 753 q 245 470 145 503 z "},"^":{"ha":729,"x_min":66,"x_max":665,"o":"m 665 374 q 623 336 665 336 q 589 354 601 336 l 366 675 l 144 354 q 109 336 132 336 q 66 374 66 336 q 73 395 66 386 l 331 767 q 366 787 345 787 q 400 767 387 787 l 658 395 q 665 374 665 386 z "},"_":{"ha":627,"x_min":0,"x_max":627,"o":"m 42 -95 q 0 -53 0 -95 q 42 -11 0 -11 l 585 -11 q 627 -53 627 -11 q 585 -95 627 -95 l 42 -95 z "},"`":{"ha":380,"x_min":64,"x_max":342,"o":"m 65 737 q 81 773 65 760 q 116 787 96 787 q 128 786 123 787 q 141 779 133 785 q 163 761 149 773 q 199 726 176 749 q 257 669 222 703 q 342 583 292 634 l 263 583 l 94 687 q 64 737 64 705 l 65 737 z "},"a":{"ha":469,"x_min":1,"x_max":462,"o":"m 385 5 l 385 5 l 383 3 l 378 3 l 377 2 l 374 2 l 372 1 l 363 1 q 302 29 333 1 q 280 53 290 42 q 264 77 271 64 l 182 2 l 175 2 q 74 35 123 2 q 35 73 50 52 q 13 119 19 94 q 9 140 11 128 q 8 167 8 151 q 118 349 8 269 q 114 354 117 351 q 108 362 112 357 q 98 374 104 368 q 85 390 92 380 q 74 402 79 395 q 63 416 69 409 q 51 432 58 424 q 37 449 45 440 l 39 449 q 1 486 26 457 q 140 587 87 519 l 146 579 l 147 576 q 155 568 151 573 q 164 554 159 562 q 174 539 170 546 q 181 528 178 533 l 181 529 q 224 500 201 500 l 221 500 l 227 503 q 232 500 230 500 q 306 570 256 500 l 307 573 q 309 576 309 574 q 311 579 310 578 q 315 584 313 581 q 323 592 317 587 q 323 579 323 580 q 326 574 323 579 q 334 565 330 569 l 334 566 q 394 525 366 525 q 440 536 406 525 l 440 526 q 388 439 440 471 l 388 172 q 405 133 388 148 q 447 117 421 119 l 448 118 l 462 118 l 385 5 m 231 113 q 260 121 252 113 l 261 121 l 262 122 l 262 429 q 226 456 245 429 q 159 419 199 419 l 157 418 l 132 418 l 125 418 q 117 419 119 418 l 252 256 l 222 228 l 147 314 q 130 271 136 291 q 127 253 128 261 q 125 238 125 245 q 156 152 125 187 q 231 113 189 113 z "},"b":{"ha":484,"x_min":1,"x_max":467,"o":"m 467 522 q 431 458 462 484 l 431 90 q 436 75 431 84 q 443 65 439 70 q 452 54 446 60 q 431 60 441 57 q 412 64 421 62 q 392 67 402 66 q 370 68 382 68 q 174 1 256 68 q 31 68 107 68 l 30 68 l 28 66 l 21 66 l 19 65 l 1 65 q 58 141 12 121 l 56 701 l 56 701 q 48 721 52 712 q 39 736 43 730 l 38 736 l 35 740 l 35 741 l 33 743 l 33 760 l 41 751 l 44 751 l 45 749 q 125 772 85 749 q 135 780 128 775 q 153 793 142 785 q 176 811 163 800 q 208 834 190 821 q 189 777 194 795 q 184 751 184 757 l 184 485 l 334 592 q 435 520 373 520 l 439 520 q 446 524 439 520 l 446 522 q 454 525 448 525 q 458 526 454 526 q 460 527 460 526 q 463 528 461 528 l 467 522 m 280 105 q 288 107 283 106 q 300 109 293 108 l 300 433 l 299 433 q 292 435 296 433 q 286 437 290 435 q 245 470 252 455 l 184 429 l 186 155 q 271 105 225 144 l 271 104 l 271 103 l 280 105 z "},"c":{"ha":370,"x_min":1,"x_max":368,"o":"m 368 545 q 334 469 365 500 q 259 439 301 439 q 180 475 204 439 l 180 176 q 208 170 193 170 q 220 165 211 168 q 233 161 225 164 q 251 155 241 158 q 262 149 257 152 q 272 143 267 146 q 287 130 280 138 l 319 170 l 347 145 l 237 1 q 54 76 153 76 q 1 53 20 76 q 55 145 13 115 l 55 439 q 54 448 55 444 q 54 454 54 451 q 54 461 54 457 q 50 483 50 469 q 44 505 44 498 q 41 517 43 506 l 41 534 l 52 523 q 75 520 54 520 q 161 542 118 520 q 231 602 203 564 q 326 530 283 530 q 361 549 334 530 l 368 545 z "},"d":{"ha":487,"x_min":1,"x_max":465,"o":"m 465 519 l 463 516 l 462 513 q 458 509 459 511 q 453 503 456 507 l 453 500 q 445 483 446 490 l 445 115 q 446 111 445 111 l 446 108 l 447 104 l 447 105 q 448 103 448 104 q 449 101 449 102 q 450 96 449 98 l 451 95 q 452 89 451 90 l 453 86 l 453 85 l 454 83 q 456 79 454 81 l 464 60 q 376 85 425 85 q 209 1 273 85 l 198 12 q 196 14 197 13 q 194 16 195 15 q 192 19 193 18 q 190 22 191 20 q 73 83 140 83 q 1 59 33 83 q 66 158 12 129 l 66 466 q 42 523 66 486 l 57 523 l 59 522 l 74 522 l 76 520 l 80 520 q 230 565 169 520 l 179 625 q 136 669 159 648 q 115 690 125 681 q 93 709 104 700 q 87 714 91 711 q 79 720 84 717 q 70 728 75 724 q 59 738 64 732 q 38 761 52 745 q 5 800 24 776 l 5 817 q 26 806 16 806 q 40 804 28 804 q 103 814 71 804 q 134 825 119 819 q 164 840 149 831 q 177 811 169 826 q 196 779 184 795 l 196 780 l 226 748 l 352 615 q 354 612 354 610 l 382 581 q 387 575 385 578 q 393 569 389 572 l 407 555 q 410 552 408 553 q 413 550 412 551 q 416 547 414 549 q 418 545 417 546 l 417 545 q 456 525 437 525 l 465 538 l 465 519 m 312 126 l 312 479 l 264 532 q 191 489 230 498 l 191 175 q 193 174 192 175 q 199 172 195 173 q 204 171 201 172 q 212 169 208 170 q 222 166 216 168 q 236 162 228 165 q 294 118 270 144 l 296 121 l 297 121 l 300 123 l 303 123 l 304 125 l 311 125 l 312 126 m 453 500 q 456 505 453 503 l 453 499 l 453 500 m 452 502 q 452 500 450 500 l 452 503 l 452 502 z "},"e":{"ha":405,"x_min":1,"x_max":389,"o":"m 388 389 q 367 376 380 385 q 331 355 353 368 q 280 323 309 341 q 214 281 251 305 q 190 265 203 275 l 190 168 q 259 152 227 162 q 290 141 275 146 q 319 127 305 135 l 348 159 l 378 130 l 269 1 l 256 7 q 231 21 243 15 q 207 34 219 28 q 151 52 182 46 q 59 64 98 64 q 31 62 45 64 q 16 60 23 61 q 1 58 9 59 q 4 64 3 61 q 6 68 5 66 q 8 73 7 71 q 11 76 9 75 l 11 75 q 19 87 16 82 q 25 98 22 93 q 31 108 30 106 q 44 121 36 113 q 64 139 52 130 l 64 450 q 45 515 64 469 l 45 533 l 56 522 l 63 522 l 64 520 l 68 520 l 71 519 l 76 519 q 292 604 171 519 q 298 579 295 592 q 307 553 302 567 q 334 493 317 526 q 349 465 341 478 q 363 438 356 451 q 377 415 370 425 q 389 395 383 404 l 388 389 m 229 419 q 220 436 224 428 q 213 454 216 445 q 206 472 210 464 q 199 490 203 481 l 190 488 l 190 323 l 255 368 q 250 377 253 372 q 243 388 247 382 q 236 402 240 394 q 229 419 233 410 z "},"f":{"ha":346,"x_min":1,"x_max":391,"o":"m 391 775 q 353 720 382 742 q 294 696 324 697 q 281 695 292 695 q 205 724 230 695 l 203 721 l 201 720 q 189 714 198 716 l 191 714 l 189 713 l 189 568 l 191 566 q 275 572 266 566 q 280 572 277 572 q 287 572 283 572 q 295 573 290 572 q 304 575 299 574 l 304 564 l 303 562 l 303 559 l 302 556 l 302 550 q 299 524 300 536 q 298 498 298 511 l 298 492 l 299 489 l 299 476 l 307 467 l 291 467 l 290 469 q 273 471 285 469 q 243 476 262 473 l 239 476 q 234 477 237 476 l 235 477 l 234 477 q 233 479 234 479 l 209 479 q 189 481 198 479 l 189 162 q 209 158 196 158 q 228 152 218 152 q 239 144 231 149 q 248 138 243 141 q 260 130 254 134 l 286 159 l 311 134 l 182 1 q 33 77 100 77 l 30 77 l 27 76 q 21 76 24 76 q 15 75 18 75 q 1 71 7 73 q 64 155 15 131 l 64 484 q 20 480 52 480 l 18 479 l 9 479 q 9 496 9 489 q 10 506 9 503 l 10 539 l 9 543 l 9 551 l 8 553 l 8 576 q 33 573 17 573 q 50 572 34 572 q 62 570 52 570 l 64 570 l 62 699 l 62 698 q 61 701 62 699 q 60 705 61 703 q 58 711 59 708 q 56 717 58 713 l 55 720 l 55 732 q 61 730 58 731 q 67 730 64 730 l 79 730 q 274 851 179 730 q 282 843 276 848 q 297 824 286 838 q 376 780 336 780 l 374 780 l 376 781 l 387 781 l 391 775 z "},"g":{"ha":521,"x_min":17,"x_max":496,"o":"m 496 64 q 475 12 496 39 q 402 -54 459 -11 q 400 -56 401 -55 q 397 -58 399 -56 q 372 -78 383 -69 q 351 -94 360 -86 q 325 -116 332 -107 q 311 -130 318 -122 q 296 -145 304 -137 q 279 -162 288 -154 q 262 -180 271 -171 q 252 -174 253 -176 q 249 -171 251 -172 q 244 -166 248 -169 l 245 -166 q 240 -162 243 -164 q 235 -157 238 -160 q 222 -146 228 -153 l 224 -146 q 221 -144 222 -145 q 219 -143 220 -144 q 212 -139 218 -143 q 136 -117 186 -117 q 37 -152 92 -117 q 116 -50 60 -83 q 224 -19 168 -19 q 332 -47 294 -19 q 376 20 376 -5 q 349 63 376 35 q 318 121 324 85 q 191 12 243 80 q 77 90 134 90 q 70 89 73 90 q 55 87 64 89 q 31 80 45 85 q 17 79 26 79 q 37 127 17 100 q 54 149 47 143 q 66 160 59 156 l 66 490 l 66 490 q 66 491 66 491 q 66 492 66 491 q 64 501 66 496 q 62 506 62 504 q 60 513 61 510 q 52 533 54 529 l 52 547 q 97 534 68 534 l 100 533 l 106 533 q 283 581 188 533 q 292 586 286 583 q 307 594 298 589 q 325 604 315 598 q 346 617 334 610 q 445 541 387 541 l 448 541 q 459 547 454 544 q 472 553 465 550 q 485 560 479 557 q 496 567 490 564 q 479 507 493 532 q 440 465 463 481 l 440 201 q 469 125 440 164 l 470 122 l 469 122 l 475 117 l 476 115 l 475 115 q 496 64 496 85 m 311 172 q 314 173 313 172 l 314 452 q 256 490 281 452 q 251 498 254 491 q 243 510 248 504 l 243 509 l 241 509 l 241 510 q 216 503 227 503 q 212 500 214 501 q 207 497 210 498 q 201 495 204 496 q 193 494 198 494 l 193 179 q 201 177 197 178 q 209 176 205 176 q 269 143 242 170 l 269 144 l 275 147 l 273 146 q 280 150 276 147 q 290 157 284 153 q 300 164 295 161 q 311 172 306 168 z "},"h":{"ha":540,"x_min":18,"x_max":511,"o":"m 511 564 q 510 560 511 562 q 510 557 510 559 q 508 551 509 553 q 507 542 507 545 q 507 537 507 540 q 505 532 507 535 q 463 465 493 483 l 465 130 l 465 131 q 476 103 469 116 q 491 78 483 90 l 491 79 l 494 77 l 494 75 l 496 73 l 490 64 q 427 77 467 77 q 361 55 363 77 l 369 46 l 361 46 q 365 42 363 44 q 371 36 368 39 q 378 29 374 33 q 387 20 382 25 q 446 -84 446 -32 q 403 -161 446 -133 q 378 -173 386 -173 l 376 -174 l 369 -174 l 368 -176 l 363 -176 q 312 -138 328 -176 q 351 -94 351 -123 q 338 -54 351 -71 q 333 -41 334 -54 l 334 -43 q 311 36 311 -7 q 326 75 311 65 l 326 75 q 339 106 339 90 l 339 440 q 305 456 326 440 q 286 469 293 464 q 276 477 279 475 l 275 479 l 222 436 l 222 170 q 233 165 227 169 q 239 163 236 164 q 247 161 243 162 q 280 139 267 150 q 293 127 288 133 q 304 114 298 121 l 193 6 q 69 75 124 75 l 63 75 q 60 75 62 75 q 56 75 58 75 q 50 72 54 73 q 41 68 47 71 q 35 66 38 66 q 28 64 32 65 q 22 63 25 63 q 18 63 20 63 q 95 161 36 134 l 95 700 q 72 777 95 724 q 142 793 106 777 q 216 838 176 808 q 242 861 218 840 l 241 860 l 250 859 q 248 850 249 854 q 245 842 247 846 q 241 829 242 832 l 237 821 q 228 783 232 810 q 227 780 227 782 l 227 779 q 222 755 224 765 q 222 748 222 751 q 222 743 222 745 l 222 500 l 374 624 q 443 553 406 553 q 450 552 444 552 q 511 582 465 552 l 511 564 l 511 564 z "},"i":{"ha":305,"x_min":1,"x_max":278,"o":"m 174 1 q 135 9 153 3 q 99 32 115 17 q 62 102 62 62 l 62 427 q 35 450 45 429 l 18 440 l 1 466 l 5 472 l 6 471 l 8 473 l 11 475 q 37 501 23 486 q 54 518 45 509 q 76 538 64 527 q 109 566 89 547 l 109 567 q 111 568 110 568 q 113 570 111 568 l 121 578 l 121 593 q 208 519 170 519 q 246 536 216 519 l 246 521 q 244 503 244 513 q 233 476 239 488 q 218 455 227 465 q 186 429 203 435 l 186 154 q 192 134 186 146 q 241 109 203 109 q 273 117 254 109 l 278 108 l 174 1 m 232 695 q 224 661 232 677 q 203 633 216 645 q 174 612 192 621 q 141 605 157 605 l 132 605 l 132 606 l 119 606 l 117 608 q 60 648 71 608 l 41 637 l 25 665 q 45 682 35 675 q 56 687 51 684 q 66 692 61 690 l 64 690 q 74 699 69 694 q 80 704 77 701 q 87 709 83 707 q 96 716 91 713 q 106 724 101 720 q 119 734 113 729 q 132 744 125 739 q 197 695 163 695 q 202 697 200 696 q 207 699 205 698 q 212 699 209 699 q 218 701 214 700 l 216 701 l 218 704 l 220 704 l 221 705 l 222 705 l 223 707 l 232 707 l 232 695 z "},"j":{"ha":263,"x_min":-5,"x_max":254,"o":"m 254 75 q 217 -3 254 38 q 210 -11 214 -7 q 201 -20 206 -14 q 177 -44 191 -31 q 146 -75 159 -60 q 123 -101 133 -89 q 102 -145 104 -125 l 103 -145 l 103 -158 l 68 -158 l 68 -147 l 58 -136 l 58 -127 q 59 -115 58 -120 q 61 -104 60 -109 l 61 -105 q 74 -79 63 -96 q 86 -61 79 -72 q 101 -38 92 -51 q 136 31 136 5 q 111 81 136 48 q 104 87 109 84 q 101 91 103 89 q 96 96 98 93 q 90 102 93 99 q 83 109 87 105 q 76 116 80 112 q 67 124 72 119 q 56 136 59 129 l 56 463 q 27 486 39 464 l 12 476 l -5 500 l -2 508 l -1 507 l 2 509 l 4 511 q 17 523 10 516 q 31 537 24 530 q 48 553 39 545 q 69 574 58 562 q 76 578 73 576 q 83 585 79 581 q 102 604 92 591 l 103 604 q 104 605 104 605 q 106 607 105 606 q 114 615 112 612 l 114 629 q 193 554 163 554 q 240 572 210 554 l 240 557 q 238 549 239 553 q 236 539 237 545 q 180 465 216 480 l 180 196 q 184 193 180 193 q 254 75 254 122 m 224 732 q 216 697 224 714 q 196 668 208 680 q 182 657 189 662 q 168 648 175 652 q 135 641 151 641 l 125 641 l 125 642 l 113 642 l 111 644 q 54 683 64 644 l 35 673 l 19 703 q 39 719 28 713 q 50 724 45 722 q 60 730 55 727 l 58 727 q 67 734 60 729 q 74 740 71 737 q 80 745 77 742 q 90 752 85 748 q 100 760 95 755 q 112 770 106 765 q 125 780 118 774 q 191 732 157 732 q 200 734 195 734 q 205 735 203 734 q 211 737 208 736 l 210 737 l 212 740 l 214 740 l 214 741 l 216 741 l 217 743 l 224 743 l 224 732 m 68 -158 q 66 -163 67 -165 q 62 -151 64 -163 l 64 -154 l 64 -158 l 68 -158 m 64 -154 l 64 -151 l 66 -155 l 64 -154 z "},"k":{"ha":501,"x_min":1,"x_max":473,"o":"m 357 0 q 273 80 300 20 q 267 95 270 85 q 260 118 264 104 q 250 151 255 132 q 237 195 245 170 q 233 209 235 201 q 227 227 230 217 q 219 247 223 236 q 209 272 214 258 l 182 253 l 182 159 q 186 156 184 156 q 191 155 188 156 l 192 153 q 197 151 195 152 q 199 150 198 150 q 201 149 200 149 q 208 144 205 146 q 214 140 211 142 q 220 135 218 138 q 227 130 223 133 q 237 118 234 124 q 242 111 240 115 q 248 102 245 106 l 149 3 q 13 75 98 73 l 12 74 l 1 74 q 50 150 1 119 l 50 699 q 22 747 50 720 l 22 765 l 33 753 l 41 753 l 42 752 l 44 752 q 198 836 99 752 l 203 829 q 198 812 198 819 q 193 799 193 807 q 182 746 182 784 l 182 490 l 327 603 q 426 424 357 520 l 310 344 q 322 321 316 333 q 333 298 328 310 q 343 274 338 286 q 353 250 349 262 q 359 234 357 241 q 365 219 362 227 q 370 204 367 212 q 376 189 372 197 q 405 132 392 148 q 437 116 418 116 q 464 120 456 116 l 467 124 l 473 115 l 357 0 m 297 389 q 289 401 294 394 q 278 419 285 408 q 264 444 272 430 q 246 477 256 458 l 182 430 l 182 308 l 297 389 z "},"l":{"ha":266,"x_min":0,"x_max":269,"o":"m 149 1 q 0 81 85 60 q 58 145 29 130 l 58 671 l 51 711 q 50 713 51 712 l 50 714 l 50 713 q 49 722 49 715 l 46 726 l 45 727 q 44 734 45 732 l 43 736 l 43 753 q 49 750 46 751 q 54 749 52 749 q 60 748 56 748 q 194 825 102 748 l 200 820 q 191 795 196 811 q 188 780 190 788 q 183 764 185 772 q 174 708 174 728 l 174 158 q 213 131 190 149 q 216 131 211 134 q 220 125 219 127 q 222 122 222 123 l 227 118 l 244 136 l 269 103 l 149 1 z "},"m":{"ha":785,"x_min":1,"x_max":758,"o":"m 633 3 l 625 3 q 596 10 610 3 q 583 19 589 14 q 571 29 576 24 q 553 56 559 40 q 545 85 545 71 l 545 431 l 543 431 q 542 431 544 430 q 539 432 541 432 q 537 433 538 433 q 534 435 536 434 q 532 436 533 435 q 526 439 528 437 q 485 472 501 450 l 438 435 l 438 159 q 449 153 442 157 q 464 142 455 149 q 513 108 481 129 l 409 1 q 290 69 337 69 q 247 54 270 69 q 311 149 259 109 l 311 420 q 277 485 311 460 l 199 420 l 199 159 q 204 157 201 158 q 209 155 206 156 q 220 150 215 153 q 249 133 237 143 q 265 111 260 122 l 157 1 q 52 69 111 69 q 7 58 24 69 q 31 110 13 83 q 72 146 50 135 l 72 426 q 1 477 72 459 l 1 486 l 117 614 q 210 490 191 580 l 355 614 q 441 499 426 570 l 572 607 q 653 538 623 538 q 713 561 682 538 l 713 539 q 713 536 713 537 q 712 533 713 534 q 712 531 712 532 l 712 526 q 711 518 711 524 q 701 487 708 499 q 691 473 696 480 q 678 459 686 467 l 678 163 q 690 139 678 151 q 713 128 701 128 q 723 129 717 128 q 736 134 729 130 l 735 134 l 738 134 l 740 134 l 743 137 l 758 137 l 633 3 z "},"n":{"ha":545,"x_min":1,"x_max":517,"o":"m 413 1 q 396 4 404 2 q 379 10 388 7 q 362 19 371 14 q 347 31 354 24 q 317 92 317 56 l 317 429 q 311 430 313 429 l 308 430 l 307 431 l 302 434 l 303 434 q 271 448 283 439 q 250 471 260 456 l 200 429 l 200 158 q 214 152 208 155 q 227 145 221 149 q 246 132 240 138 q 270 113 260 124 q 288 90 280 101 l 176 4 q 43 69 111 69 l 39 69 l 39 68 l 33 68 l 31 67 l 26 67 l 25 66 l 13 66 q 70 145 23 115 l 70 435 q 9 474 48 474 l 7 475 l 1 475 l 1 484 l 124 615 q 142 598 134 606 q 157 583 150 590 q 180 553 171 569 q 200 486 199 522 l 343 613 q 421 538 393 538 q 444 544 428 538 q 483 560 459 549 l 483 542 l 481 539 l 481 526 l 481 524 q 448 458 481 493 l 448 158 q 484 132 448 132 l 489 132 l 490 134 l 500 134 l 501 135 l 517 135 l 413 1 z "},"o":{"ha":520,"x_min":1,"x_max":480,"o":"m 479 526 l 479 520 l 478 517 q 473 501 478 512 q 468 492 471 497 q 461 480 465 487 q 453 470 457 475 q 446 462 450 466 q 433 452 439 454 l 433 156 q 466 80 433 111 q 392 90 420 90 q 166 1 254 90 q 49 73 100 73 q 25 69 39 73 l 1 66 q 59 148 6 121 l 58 484 l 58 483 l 54 494 q 53 497 53 494 l 50 499 l 50 502 l 49 503 l 47 509 q 44 515 44 511 q 43 516 44 516 l 43 519 l 43 515 l 42 517 l 42 532 q 73 524 58 526 q 111 522 89 522 q 342 612 239 522 q 414 536 382 547 q 441 529 431 529 q 456 532 448 529 q 480 546 464 535 l 480 529 l 479 526 m 285 127 q 302 131 291 127 l 304 131 l 304 443 q 234 492 264 444 q 188 479 214 479 l 188 168 q 211 162 198 162 l 216 159 l 214 159 q 222 157 220 158 q 225 156 224 156 l 227 156 q 243 144 233 153 q 270 119 254 135 l 285 127 z "},"p":{"ha":558,"x_min":14,"x_max":530,"o":"m 530 530 q 513 484 530 509 q 475 453 496 459 l 475 122 q 478 109 475 113 q 490 85 478 102 l 494 77 q 484 77 488 77 q 475 77 479 77 q 460 82 465 79 l 454 82 q 264 3 361 82 l 259 7 l 258 10 l 259 8 q 243 27 253 17 q 233 37 239 33 q 222 47 228 41 l 222 -56 q 246 -131 222 -92 q 231 -127 239 -128 q 222 -126 226 -126 q 216 -125 219 -125 q 115 -159 179 -125 l 115 -157 q 106 -163 111 -160 q 94 -170 101 -167 q 70 -184 82 -178 l 65 -178 q 87 -128 83 -151 q 87 -124 87 -126 q 88 -122 87 -123 q 89 -117 88 -120 l 89 -111 l 90 -109 l 90 81 l 85 81 q 73 76 81 78 q 65 74 69 75 q 58 72 62 73 l 59 72 l 42 62 q 32 59 42 62 q 29 57 31 58 q 24 54 27 56 q 18 50 20 52 q 14 47 16 48 q 36 121 14 84 q 90 174 57 157 l 90 429 q 74 456 90 446 q 38 467 56 467 l 37 466 l 27 466 l 26 465 l 14 465 l 14 475 l 143 620 q 210 553 194 594 q 219 515 216 537 q 221 491 220 504 q 222 462 222 477 l 402 615 q 409 604 406 610 q 417 592 412 598 q 439 564 426 578 q 486 532 467 532 q 495 531 487 531 q 501 532 500 531 q 517 538 511 532 l 519 538 l 522 541 l 530 541 l 530 530 m 262 172 q 334 108 310 145 l 342 111 l 342 452 q 300 475 321 452 l 222 408 l 226 186 q 262 172 235 184 z "},"q":{"ha":505,"x_min":15,"x_max":492,"o":"m 492 528 q 439 440 487 469 l 439 -60 q 440 -68 439 -62 q 442 -84 441 -75 q 446 -105 444 -94 q 451 -132 448 -117 q 471 -174 457 -154 l 465 -182 q 452 -177 458 -177 q 412 -161 422 -161 q 409 -161 410 -161 q 406 -160 408 -160 q 404 -159 405 -159 q 309 -136 351 -136 q 301 -138 303 -136 l 295 -132 l 298 -124 l 298 -125 l 304 -102 q 313 -52 313 -80 l 313 104 l 189 14 q 68 82 117 82 q 50 77 62 82 q 15 65 36 73 q 32 116 17 90 q 65 157 47 142 l 65 459 q 62 479 64 469 q 58 499 60 489 q 57 505 57 501 q 55 516 56 509 q 53 527 54 522 q 52 534 53 531 q 80 519 66 519 q 96 517 81 517 q 106 516 96 516 q 227 537 165 516 q 291 565 259 548 q 358 604 323 581 q 451 522 410 522 q 480 530 470 522 l 481 530 l 484 533 l 487 533 l 492 528 m 229 163 q 270 135 251 153 l 313 168 l 313 435 q 254 481 282 442 q 250 485 250 481 l 247 489 q 245 488 245 489 q 243 488 244 488 l 244 489 q 237 486 242 486 q 229 484 229 484 q 193 475 213 475 l 193 475 l 193 180 q 198 177 195 178 q 205 174 201 175 q 215 169 209 172 q 229 163 220 167 z "},"r":{"ha":438,"x_min":1,"x_max":403,"o":"m 403 520 q 375 439 403 472 q 303 407 347 407 q 236 440 269 407 l 203 404 l 203 172 q 207 171 205 172 q 210 170 208 171 q 215 169 213 169 q 221 168 218 168 l 220 168 q 270 138 245 164 l 292 161 l 318 130 l 193 1 q 66 69 126 69 q 45 66 53 69 q 36 63 41 64 q 26 60 32 62 l 11 54 q 48 134 11 93 q 55 141 52 138 q 61 145 58 144 q 66 149 64 147 q 71 152 68 151 l 68 151 l 71 155 l 75 155 l 76 156 l 76 422 q 58 444 67 436 q 46 451 52 448 q 34 458 41 455 q 29 460 32 459 q 23 462 26 460 q 13 465 22 463 q 6 467 9 467 q 1 469 3 468 q 119 602 75 513 q 203 479 182 568 l 214 494 q 220 501 218 498 q 226 508 222 505 q 233 515 229 511 q 239 524 236 519 q 264 554 251 536 q 290 595 277 571 l 290 599 l 300 600 q 364 526 321 526 q 403 550 378 526 l 403 520 l 403 520 z "},"s":{"ha":478,"x_min":1,"x_max":459,"o":"m 459 579 q 326 366 427 476 l 439 368 l 439 363 q 439 358 439 360 q 437 351 437 354 l 436 350 l 436 347 l 434 345 l 434 342 l 433 340 q 432 336 433 337 q 431 334 431 335 l 431 334 q 430 331 431 333 q 429 325 430 328 q 428 320 428 321 q 428 320 428 319 l 428 102 q 429 98 428 98 l 429 94 l 430 92 l 430 92 q 431 90 431 91 q 432 88 432 90 q 433 83 432 85 l 431 86 q 433 82 429 88 q 436 76 434 79 q 439 69 438 73 l 445 59 q 434 59 437 59 q 429 60 430 60 l 430 60 q 427 62 429 62 q 413 62 419 62 q 402 62 408 62 q 387 67 393 62 q 365 68 367 67 l 357 68 q 207 1 266 68 l 172 39 q 162 46 166 43 q 153 52 157 50 q 134 56 145 56 q 113 60 126 60 q 36 4 58 60 l 1 4 q 35 96 11 47 q 63 144 47 119 q 100 197 79 170 l 105 202 q 109 207 106 204 q 114 212 111 209 q 120 219 117 216 q 127 227 123 222 l 47 231 l 56 239 l 54 235 q 65 268 65 250 l 66 271 l 65 494 q 64 496 65 496 q 64 498 64 496 l 64 497 q 62 503 62 498 l 59 513 l 59 513 q 57 522 57 516 l 57 533 q 82 522 68 522 q 124 516 91 516 q 136 515 127 515 q 244 545 192 515 q 292 593 248 546 q 365 546 331 546 q 422 583 399 546 l 454 586 l 459 579 m 303 112 l 303 274 l 301 277 l 239 277 l 176 210 q 167 199 172 205 q 157 187 162 194 q 130 157 146 174 q 144 159 138 158 q 156 161 151 160 q 173 163 166 163 q 280 104 235 163 l 285 106 l 286 106 q 287 107 286 106 q 288 107 287 107 q 292 109 290 108 q 297 111 294 109 l 302 111 l 303 112 m 283 385 q 318 425 303 408 q 343 453 334 442 q 300 444 323 444 q 220 481 264 444 q 215 479 216 480 l 210 479 q 197 475 203 475 l 197 313 l 210 313 q 222 322 215 316 q 237 337 229 328 q 258 358 246 347 q 283 385 269 370 z "},"t":{"ha":346,"x_min":1,"x_max":299,"o":"m 182 1 q 56 67 116 67 q 13 43 27 67 l 13 62 q 24 92 13 68 q 71 151 41 133 l 71 474 l 49 474 q 40 469 45 471 q 30 466 35 467 q 19 462 29 465 l 16 460 l 14 460 l 1 452 l 1 461 q 2 469 1 465 l 2 473 l 3 475 q 4 483 3 481 l 4 493 q 4 497 4 495 q 5 500 5 499 q 6 505 5 503 q 7 510 6 507 l 7 517 l 5 522 l 5 534 q 1 582 1 548 q 15 574 9 577 q 27 569 22 571 q 37 566 33 567 q 44 564 41 565 q 61 565 46 565 l 71 565 l 71 625 l 70 627 l 70 640 l 69 640 l 69 642 q 67 646 68 644 q 65 652 66 648 q 64 658 65 654 l 64 659 q 61 671 61 661 l 70 673 l 71 671 l 77 671 l 77 669 q 210 752 147 669 l 210 734 l 209 732 q 207 725 208 732 q 205 719 206 722 q 203 712 205 715 l 203 711 q 203 704 203 706 q 199 685 200 693 q 198 672 198 677 l 198 565 l 237 565 l 239 564 q 283 582 259 564 q 283 579 283 581 q 283 574 283 578 q 282 570 283 572 q 282 568 282 568 q 281 560 281 566 q 277 526 277 552 l 279 526 q 281 494 279 513 q 286 452 283 475 l 271 460 l 271 461 l 269 461 q 238 469 256 466 q 219 472 229 471 q 198 474 210 473 l 198 166 q 218 157 206 157 l 219 157 q 220 156 220 157 q 222 156 220 156 q 227 153 226 154 q 234 149 231 149 q 237 147 235 149 q 239 146 238 146 q 240 145 239 146 l 239 145 q 243 142 241 144 q 248 138 245 140 q 255 134 252 136 q 262 129 258 132 l 274 143 l 299 112 l 182 1 z "},"u":{"ha":561,"x_min":1,"x_max":534,"o":"m 422 2 q 314 111 327 28 q 311 108 311 109 q 310 107 311 107 q 308 105 309 106 q 278 83 295 97 q 259 70 269 77 q 237 53 249 62 q 225 43 231 48 q 213 31 220 37 q 199 18 207 25 q 184 1 192 10 q 56 76 107 76 q 17 63 33 76 q 70 152 27 129 l 70 427 q 45 456 64 444 l 45 454 q 39 456 42 456 q 31 458 35 457 q 17 462 24 459 q 12 463 15 463 l 1 463 l 1 473 l 118 601 q 201 484 201 556 l 201 168 q 238 153 209 161 q 233 155 235 153 q 232 155 228 156 q 242 147 237 151 q 250 141 247 144 q 257 135 254 138 q 263 131 260 133 l 266 134 l 268 135 q 270 136 269 136 q 271 138 271 137 q 274 140 271 138 l 274 139 q 283 146 279 141 q 290 153 286 149 q 298 159 293 156 q 306 163 302 159 l 313 168 l 311 439 l 309 439 l 307 440 l 303 441 q 300 444 302 443 q 298 447 299 446 q 294 451 296 449 q 290 457 292 454 l 266 444 l 243 480 q 373 591 282 494 q 461 522 435 522 q 479 524 473 522 l 482 526 l 483 528 l 486 528 l 487 529 l 489 529 l 490 530 l 499 530 q 439 434 499 454 l 439 181 q 496 116 439 116 l 499 116 l 501 117 q 529 125 511 117 l 534 116 l 422 2 z "},"v":{"ha":500,"x_min":1,"x_max":483,"o":"m 481 509 l 481 500 l 481 498 q 469 468 481 484 q 456 453 464 460 q 437 436 448 445 l 437 121 q 441 104 437 109 l 456 63 l 454 64 l 454 56 q 420 58 426 56 l 413 58 q 351 50 388 58 q 312 39 333 45 q 266 24 290 33 q 165 1 197 1 q 113 9 132 1 q 65 106 65 28 l 65 434 q 50 458 65 444 q 25 471 35 471 l 22 471 l 19 473 l 11 473 l 8 474 l 1 474 l 1 483 l 127 591 q 189 536 166 581 q 194 507 194 523 l 194 151 q 215 106 194 123 q 266 90 235 90 q 308 118 308 90 l 308 429 q 271 458 283 437 l 254 447 l 234 479 l 365 585 q 454 516 413 516 q 483 528 466 516 l 483 511 l 481 509 z "},"w":{"ha":722,"x_min":1,"x_max":718,"o":"m 718 524 q 666 436 713 467 l 666 123 q 677 86 666 105 q 691 64 677 85 q 666 66 668 64 l 663 66 q 490 23 576 66 q 481 20 486 22 q 472 15 477 18 q 460 8 467 12 q 446 1 454 5 q 375 28 410 3 q 320 89 341 54 q 292 70 304 79 q 268 55 279 62 q 261 52 263 54 q 257 50 258 51 l 255 47 l 252 46 q 243 40 249 45 l 243 41 q 236 36 240 39 q 224 27 231 33 q 193 2 212 17 q 158 32 176 19 q 124 54 141 45 q 53 72 90 72 l 51 72 l 48 71 q 43 71 45 71 q 37 69 40 71 q 24 66 31 68 q 73 140 36 111 l 75 143 l 76 143 l 76 421 q 33 460 58 460 l 30 460 l 26 461 l 17 461 l 14 462 l 11 462 l 1 469 l 123 599 q 184 552 159 585 q 208 480 208 520 l 208 161 q 227 156 213 156 q 234 153 234 153 q 237 151 235 152 q 241 149 238 151 q 254 143 248 146 q 266 136 260 140 q 276 130 271 133 q 284 123 280 127 l 289 129 q 292 131 290 130 q 295 134 294 133 q 311 142 304 137 l 311 429 q 290 461 311 447 q 248 476 270 476 l 248 486 l 371 600 q 434 537 420 574 q 435 530 435 533 q 439 523 437 525 q 440 517 439 521 q 442 509 441 514 l 442 172 q 482 106 442 128 q 492 102 485 104 q 503 98 498 100 l 503 97 q 504 97 504 97 q 505 96 504 96 l 518 96 q 540 121 540 96 l 540 433 q 504 462 523 438 l 490 456 l 471 486 l 604 591 q 673 520 635 524 q 685 519 674 519 q 690 520 687 519 l 691 520 l 691 522 q 696 523 695 523 q 703 524 700 523 q 711 529 706 527 l 718 524 z "},"x":{"ha":524,"x_min":0,"x_max":499,"o":"m 391 1 q 272 97 326 12 q 260 118 265 108 q 249 139 254 129 q 240 159 244 149 q 233 179 237 170 l 160 3 q 77 57 115 57 q 50 50 66 57 q 23 34 35 43 q 22 31 25 35 l 16 23 l 1 7 l 1 22 l 0 23 l 0 27 q 39 130 0 85 q 83 163 60 153 q 134 174 109 174 l 140 174 l 142 174 l 146 174 q 151 172 149 173 q 156 170 153 172 q 163 168 159 169 q 170 165 166 166 l 204 256 l 200 268 q 153 264 180 267 q 122 260 139 262 q 86 255 106 258 q 91 275 87 265 q 97 292 94 284 q 100 313 97 298 q 103 323 102 319 q 105 331 104 328 q 106 339 106 335 q 106 347 106 342 l 108 348 l 108 358 q 161 347 130 347 l 168 347 q 27 505 114 475 l 27 514 l 153 608 q 229 528 198 589 q 236 514 232 523 q 245 493 240 505 q 258 465 251 481 q 273 430 264 450 l 340 599 l 349 597 q 382 556 349 583 q 404 551 389 551 q 433 562 419 551 l 432 562 q 440 569 437 568 l 443 572 l 443 570 q 446 576 444 572 q 450 584 448 579 q 457 595 453 589 q 465 609 460 602 l 465 595 q 467 591 465 594 q 468 586 468 589 q 469 581 469 583 q 470 574 470 577 q 472 566 471 570 l 473 563 l 473 555 q 445 469 473 509 q 370 424 413 424 q 332 433 354 424 l 301 355 l 305 347 l 304 348 q 307 347 304 347 q 349 349 321 347 q 418 354 377 351 q 405 279 405 304 l 406 277 l 406 256 l 399 256 q 394 257 396 256 q 388 258 393 258 q 381 258 383 258 q 371 259 378 259 q 367 259 369 259 q 362 260 364 259 q 358 260 360 260 q 354 260 356 260 q 345 262 347 262 l 340 262 l 334 262 q 411 149 363 180 l 411 151 q 451 139 430 139 q 456 141 453 140 q 465 143 459 142 q 471 145 467 144 q 480 149 475 145 l 479 149 l 481 149 l 484 149 l 486 152 l 499 152 l 391 1 z "},"y":{"ha":548,"x_min":22,"x_max":515,"o":"m 513 513 l 513 507 l 513 506 q 507 486 513 498 q 494 465 500 474 q 477 446 487 454 q 459 433 468 437 l 459 90 q 354 -3 459 22 q 340 -5 347 -4 q 327 -7 334 -6 q 304 -9 315 -9 l 297 -9 q 294 -10 296 -9 q 286 -11 292 -10 q 159 -73 159 -21 q 181 -92 159 -92 q 255 -54 193 -92 q 363 -18 315 -18 q 436 -47 406 -18 q 467 -117 467 -75 q 441 -180 467 -155 q 377 -204 414 -204 q 334 -193 342 -204 l 334 -150 q 371 -161 353 -161 l 372 -161 l 374 -160 l 378 -160 q 395 -154 385 -160 q 405 -140 405 -146 q 389 -127 405 -127 l 387 -125 l 386 -125 q 311 -156 357 -125 q 263 -186 283 -175 q 245 -194 253 -191 q 232 -199 237 -197 q 218 -201 226 -200 q 208 -201 214 -201 q 196 -201 203 -201 q 156 -193 175 -201 q 122 -170 136 -184 q 98 -138 107 -155 q 90 -97 90 -119 l 90 -91 l 91 -91 q 153 6 93 -25 q 109 38 128 18 q 80 96 80 66 l 80 432 q 22 468 80 462 l 22 477 l 151 585 q 170 571 159 580 q 179 562 174 567 q 187 551 183 556 q 208 507 208 520 l 209 505 l 209 496 l 210 495 l 210 445 l 391 575 q 474 521 429 521 l 476 521 l 477 522 q 515 536 498 522 l 515 516 l 513 513 m 278 41 q 311 48 294 41 q 326 69 326 54 l 326 420 q 317 425 322 421 q 312 427 314 426 q 306 430 309 429 l 286 440 l 212 386 l 212 77 q 254 42 212 52 l 258 42 q 261 41 260 42 q 264 41 262 41 q 267 40 266 41 q 269 39 267 39 l 275 39 l 278 41 z "},"z":{"ha":490,"x_min":20,"x_max":444,"o":"m 303 360 q 314 359 309 359 l 331 359 q 335 359 332 359 q 342 359 338 359 q 359 361 350 361 q 365 362 361 362 q 371 363 368 363 q 377 364 374 363 q 382 364 380 364 l 382 366 l 389 366 l 390 367 l 406 367 q 379 319 389 343 q 369 274 369 297 l 370 273 l 370 257 q 366 257 369 257 q 359 258 363 258 q 350 260 355 259 q 339 261 345 260 q 301 265 325 263 q 276 267 290 266 q 248 270 263 268 l 198 191 q 227 204 214 199 q 251 213 239 210 q 290 220 271 220 q 369 187 336 220 q 401 104 401 153 q 375 20 401 60 q 359 -5 370 11 q 331 -43 348 -20 q 329 -45 330 -44 q 328 -47 328 -46 q 325 -51 328 -47 l 325 -50 q 316 -59 320 -54 q 309 -70 313 -64 q 307 -72 308 -71 q 303 -77 306 -75 q 294 -90 296 -85 l 206 -200 q 149 -155 174 -170 q 101 -141 123 -141 q 45 -164 75 -141 l 47 -164 q 37 -172 41 -170 q 35 -174 36 -174 q 32 -176 33 -175 l 31 -176 l 20 -189 q 66 -81 28 -127 q 155 -27 104 -36 q 161 -26 157 -26 q 174 -26 165 -26 q 250 -61 214 -26 q 285 36 285 -20 l 285 38 l 283 39 l 283 46 q 259 94 283 68 q 247 105 252 100 q 235 113 241 110 q 212 121 224 121 q 155 98 191 121 q 109 50 123 71 l 84 10 l 47 37 l 193 267 l 186 267 l 165 267 q 135 267 149 267 q 110 264 121 266 q 72 255 87 262 q 104 376 104 300 q 194 356 134 356 l 237 356 q 250 357 239 357 l 315 462 q 282 443 298 451 q 249 431 266 435 q 183 422 215 422 q 33 488 109 422 l 146 611 q 279 529 208 529 q 382 579 336 529 l 382 578 q 387 584 385 581 q 391 590 389 587 q 404 605 397 595 l 444 585 l 303 360 z "},"{":{"ha":337,"x_min":22,"x_max":337,"o":"m 181 -60 q 191 -97 181 -80 q 217 -125 201 -114 q 253 -143 233 -137 q 294 -150 273 -150 q 337 -190 337 -150 q 295 -231 337 -231 q 218 -218 254 -231 q 155 -182 182 -205 q 113 -127 128 -159 q 97 -60 97 -96 l 97 119 q 92 153 97 135 q 78 190 86 171 q 60 226 69 208 q 42 259 50 243 q 28 285 33 274 q 22 302 22 296 q 26 318 22 311 l 73 395 q 97 479 97 440 l 97 658 q 113 728 97 696 q 157 782 130 760 q 220 817 184 804 q 295 829 256 829 q 337 788 337 829 q 294 748 337 748 q 252 742 273 748 q 216 723 232 735 q 191 695 201 711 q 181 658 181 678 l 181 479 q 177 431 181 452 q 163 390 172 410 q 142 348 155 370 q 112 299 129 327 q 142 250 129 271 q 163 209 155 229 q 177 168 172 189 q 181 119 181 146 l 181 -60 l 181 -60 z "},"|":{"ha":213,"x_min":64,"x_max":149,"o":"m 106 -68 q 64 -27 64 -68 l 64 817 q 106 857 64 857 q 149 817 149 857 l 149 -27 q 106 -68 149 -68 z "},"}":{"ha":337,"x_min":0,"x_max":315,"o":"m 315 302 q 303 270 315 290 q 277 225 292 250 q 252 173 263 201 q 240 119 240 146 l 240 -60 q 223 -130 240 -98 q 179 -184 207 -161 q 116 -218 152 -206 q 42 -231 81 -231 q 0 -190 0 -231 q 43 -150 0 -150 q 84 -143 64 -150 q 121 -125 105 -137 q 146 -97 136 -113 q 156 -60 156 -80 l 156 119 q 160 168 156 146 q 174 209 165 189 q 195 250 182 229 q 225 299 208 271 q 195 348 208 327 q 174 390 182 370 q 160 431 165 410 q 156 479 156 452 l 156 658 q 146 695 156 678 q 120 724 136 712 q 84 742 104 735 q 43 748 64 748 q 0 788 0 748 q 42 829 0 829 q 119 816 83 829 q 182 780 155 803 q 224 726 209 757 q 240 658 240 694 l 240 479 q 252 424 240 451 q 277 372 263 396 q 303 330 292 349 q 315 302 315 311 z "},"~":{"ha":646,"x_min":22,"x_max":625,"o":"m 625 532 q 615 485 625 513 q 586 430 606 456 q 533 384 566 403 q 455 364 501 364 q 372 385 413 364 l 279 448 q 191 486 222 486 q 164 475 178 486 q 140 450 151 465 q 119 418 128 435 q 104 388 109 401 q 65 362 92 362 q 22 404 22 362 q 28 426 22 411 q 45 460 34 441 q 71 498 56 479 q 105 533 86 517 q 145 559 123 549 q 191 570 167 570 q 239 560 214 570 q 289 537 264 551 q 339 507 315 523 q 386 477 364 491 q 427 454 408 463 q 460 446 446 446 q 489 455 475 447 q 514 477 503 464 q 532 505 525 490 q 540 533 538 519 q 581 570 545 570 q 624 532 624 570 l 625 532 z "},"":{"ha":491,"x_min":18,"x_max":515,"o":"m 429 91 q 401 67 414 82 q 376 38 388 52 q 353 12 363 23 q 332 1 342 1 q 285 27 303 14 q 255 54 267 41 q 235 79 243 67 q 220 103 227 92 q 242 104 234 102 q 256 111 250 106 q 264 123 261 116 q 272 140 268 130 l 272 170 q 133 295 192 350 q 150 271 134 277 q 191 261 165 266 q 153 237 172 242 q 118 236 134 232 q 93 249 102 239 q 86 271 84 259 l 137 370 q 180 364 160 367 q 218 354 201 361 q 249 334 235 347 q 272 300 262 321 l 272 431 q 68 456 245 478 q 53 385 39 429 q 39 403 44 399 q 29 412 33 408 q 23 424 25 416 q 18 454 20 432 q 45 564 28 521 q 86 638 63 608 q 138 690 110 668 q 199 736 167 712 q 248 735 224 742 q 295 716 272 728 q 342 693 318 705 q 392 676 366 681 q 449 679 418 672 q 515 713 479 686 q 455 612 494 650 q 366 561 415 574 q 262 556 316 547 q 161 592 209 564 q 137 589 149 595 q 116 572 125 583 q 99 547 106 562 q 93 520 93 533 q 199 526 150 528 q 291 518 249 525 q 368 499 334 511 q 429 475 402 488 l 429 91 z "},"":{"ha":0,"x_min":-557,"x_max":7,"o":"m -197 839 q -242 847 -221 839 q -287 869 -263 855 q -340 900 -311 882 q -411 939 -370 918 q -442 936 -437 947 q -436 907 -447 924 q -402 872 -426 889 q -347 850 -378 854 q -406 827 -374 833 q -466 827 -437 821 q -519 851 -495 833 q -557 899 -544 869 q -377 1006 -454 975 q -252 1016 -300 1038 q -235 1007 -247 1013 q -207 995 -222 1002 q -172 980 -191 988 q -135 964 -153 972 q -41 925 -92 946 q -18 920 -29 922 q 7 915 -6 918 q -10 898 0 905 q -30 884 -20 890 q -46 874 -39 878 q -54 869 -53 871 q -90 858 -75 862 q -120 850 -105 853 q -153 845 -136 848 q -197 839 -171 843 z "},"":{"ha":0,"x_min":-526,"x_max":39,"o":"m -165 764 q -211 772 -190 764 q -256 793 -232 780 q -309 825 -279 807 q -380 863 -338 843 q -411 860 -406 871 q -405 831 -416 849 q -371 797 -395 814 q -315 775 -347 779 q -374 751 -343 758 q -435 751 -406 745 q -488 776 -464 758 q -526 824 -513 794 q -346 931 -422 899 q -221 941 -269 962 q -178 919 -198 929 q -138 899 -157 908 l -138 979 q -104 992 -115 985 q -85 1003 -94 999 q -67 1009 -77 1008 q -34 1004 -56 1010 q 4 991 -10 996 q 32 977 18 987 q 15 973 28 978 q -9 952 3 968 l -9 850 q 14 845 2 847 q 39 840 25 842 q 21 822 31 830 q 2 809 11 814 q -15 799 -7 803 q -22 794 -22 795 q -59 782 -43 787 q -89 775 -74 778 q -122 770 -104 772 q -165 764 -140 768 z "},"":{"ha":0,"x_min":-562,"x_max":2,"o":"m -67 964 q -94 954 -84 960 q -109 942 -104 949 q -114 927 -114 935 q -112 908 -115 919 q -79 928 -87 916 q -67 964 -71 941 m -202 800 q -248 808 -227 800 q -292 830 -269 817 q -346 862 -316 844 q -416 900 -375 880 q -447 897 -442 908 q -442 868 -452 886 q -408 833 -431 850 q -352 812 -384 816 q -411 788 -380 794 q -471 789 -442 783 q -525 813 -500 795 q -562 861 -549 831 q -382 968 -458 936 q -258 978 -305 1000 q -227 962 -241 970 q -199 947 -212 955 l -176 935 q -172 952 -175 943 q -163 971 -168 962 q -133 998 -152 991 q -93 1006 -115 1005 q -47 1007 -71 1007 q -3 1015 -24 1007 q -6 960 -5 981 q -12 926 -7 939 q -23 904 -16 912 q -45 887 -31 896 q 2 877 -24 881 q -16 859 -5 867 q -35 845 -26 851 q -51 836 -44 840 q -59 831 -58 832 q -95 819 -80 823 q -126 812 -111 815 q -159 807 -141 809 q -202 800 -176 804 z "},"":{"ha":0,"x_min":-641,"x_max":-38,"o":"m -281 787 q -327 795 -306 787 q -372 817 -348 804 q -425 848 -395 831 q -495 886 -454 866 q -520 888 -512 892 q -528 876 -528 884 q -520 854 -528 867 q -501 831 -513 842 q -470 810 -488 819 q -431 798 -452 801 q -490 775 -459 781 q -551 775 -522 769 q -604 800 -580 781 q -641 848 -628 818 q -471 950 -544 918 q -350 969 -398 983 l -349 1061 q -316 1074 -327 1067 q -297 1086 -305 1081 q -278 1092 -289 1090 q -245 1086 -268 1093 q -208 1074 -222 1079 q -180 1059 -193 1069 q -196 1056 -183 1060 q -220 1035 -209 1051 l -220 904 q -209 901 -217 903 q -198 899 -201 900 l -198 1029 q -174 1038 -183 1033 q -160 1046 -165 1042 q -151 1054 -155 1050 q -141 1059 -146 1057 q -127 1059 -136 1060 q -104 1054 -119 1058 q -66 1042 -80 1046 q -38 1027 -52 1037 q -55 1024 -42 1028 q -79 1003 -67 1019 l -79 878 q -55 882 -66 880 q -38 882 -44 883 q -61 861 -45 872 q -94 841 -77 850 q -124 826 -111 832 q -138 818 -137 819 q -175 806 -159 810 q -205 799 -190 802 q -238 793 -220 795 q -281 787 -256 791 z "},"":{"ha":774,"x_min":64,"x_max":710,"o":"m 387 113 q 409 109 399 113 q 428 96 420 104 q 441 78 436 88 q 446 55 446 67 q 441 33 446 43 q 428 14 436 22 q 410 1 420 6 q 387 -3 399 -3 q 365 1 376 -3 q 347 14 355 6 q 334 33 338 22 q 329 55 329 43 q 334 78 329 67 q 347 96 338 88 q 365 109 355 104 q 387 113 376 113 m 123 113 q 145 109 134 113 q 163 96 155 104 q 176 78 172 88 q 181 55 181 67 q 176 33 181 43 q 164 14 172 22 q 145 1 156 6 q 123 -3 135 -3 q 101 1 111 -3 q 82 14 90 6 q 69 33 74 22 q 64 55 64 43 q 69 78 64 67 q 82 96 74 88 q 101 109 90 104 q 123 113 111 113 m 652 113 q 674 109 663 113 q 692 96 684 104 q 705 78 701 88 q 710 55 710 67 q 705 33 710 43 q 693 14 701 22 q 674 1 685 6 q 652 -3 664 -3 q 630 1 640 -3 q 611 14 619 6 q 598 33 603 22 q 593 55 593 43 q 598 78 593 67 q 611 96 603 88 q 630 109 619 104 q 652 113 640 113 z "},"":{"ha":0,"x_min":-220,"x_max":-1,"o":"m -177 1131 q -152 1145 -161 1137 q -135 1159 -142 1152 q -123 1171 -128 1165 q -111 1178 -117 1176 q -94 1179 -104 1181 q -68 1171 -84 1178 q -47 1160 -56 1165 q -30 1151 -37 1156 q -15 1141 -22 1147 q -1 1127 -8 1135 q -7 1127 -3 1128 q -18 1122 -12 1126 q -31 1109 -24 1118 q -43 1088 -37 1101 l -43 979 q -69 965 -59 972 q -85 951 -79 958 q -98 939 -92 944 q -110 931 -103 933 q -126 930 -117 929 q -151 939 -136 932 q -173 949 -163 945 q -191 958 -182 954 q -205 968 -199 962 q -220 982 -212 974 q -213 982 -218 981 q -202 987 -208 983 q -190 1000 -197 991 q -177 1021 -183 1008 l -177 1131 z "},"":{"ha":0,"x_min":-410,"x_max":152,"o":"m -410 991 q -359 1003 -378 996 q -322 1019 -339 1010 q -288 1038 -306 1028 q -241 1059 -270 1048 q -197 1025 -217 1040 q -159 1000 -176 1010 q -150 976 -149 991 q -162 944 -151 961 q -195 908 -174 926 q -248 873 -217 890 q -120 902 -179 862 q -8 1038 -61 941 q 36 1067 14 1064 q 79 1060 58 1071 q 118 1029 99 1049 q 152 989 136 1010 q 104 978 127 989 q 59 948 81 966 q 12 908 36 930 q -37 864 -12 886 q -91 823 -62 842 q -152 792 -119 804 q -229 789 -193 784 q -294 806 -265 794 q -344 835 -323 819 q -378 865 -366 851 q -301 885 -322 865 q -285 946 -237 945 q -325 930 -309 934 q -354 932 -340 926 q -380 952 -367 938 q -410 991 -393 967 z "},"":{"ha":0,"x_min":-500,"x_max":81,"o":"m -500 855 q -473 866 -487 857 q -445 885 -460 874 q -413 906 -430 895 q -374 924 -396 917 q -300 867 -319 907 l -258 920 q -228 930 -243 933 q -198 917 -214 927 q -165 895 -182 907 q -127 878 -148 882 q -172 749 -115 806 q -86 905 -74 755 q 81 966 -38 1017 q 22 860 30 930 q -25 763 3 805 q -92 701 -54 721 q -177 688 -130 681 q -281 740 -224 696 q -274 848 -189 789 l -315 814 l -381 857 q -381 777 -401 819 q -338 777 -367 767 l -417 695 q -500 739 -469 700 l -500 855 l -500 855 z "},"":{"ha":0,"x_min":-221,"x_max":3,"o":"m -178 922 q -143 943 -155 932 q -124 962 -132 954 q -104 971 -115 970 q -71 962 -94 972 q -49 952 -58 956 q -31 943 -39 947 q -16 932 -23 938 q -2 919 -9 927 q -8 919 -4 920 q -19 913 -13 918 q -32 901 -25 909 q -45 880 -39 893 l -45 867 l -1 867 q 1 855 3 861 q -4 844 -1 849 q -11 833 -8 838 q -10 823 -14 828 l -45 823 l -45 770 q -80 749 -68 760 q -99 730 -91 738 q -119 721 -108 722 q -153 730 -130 720 q -175 740 -165 736 q -192 749 -184 745 q -207 760 -200 754 q -221 774 -214 766 q -215 774 -219 773 q -204 779 -210 775 q -191 791 -198 783 q -178 812 -184 799 l -178 823 l -220 823 q -219 837 -221 831 q -214 847 -217 842 q -207 857 -211 852 q -201 867 -203 862 l -178 867 l -178 922 z "},"":{"ha":0,"x_min":-325,"x_max":42,"o":"m -325 795 l -205 942 q -164 957 -183 954 q -130 958 -146 960 q -102 951 -115 956 q -81 945 -90 947 q -132 1029 -46 980 q 42 992 -17 1118 q -47 896 30 930 q -67 889 -54 889 q -99 890 -81 889 q -137 893 -117 892 q -175 890 -157 895 q -188 863 -188 876 q -177 839 -187 850 q -148 822 -167 829 q -106 817 -130 816 q -138 854 -87 832 q -52 833 -101 858 l -151 712 q -190 718 -173 712 q -220 733 -207 724 q -246 752 -234 742 q -270 772 -258 763 q -295 788 -281 781 q -325 795 -308 794 z "},"":{"ha":0,"x_min":-218,"x_max":1,"o":"m -175 966 q -150 980 -159 972 q -133 994 -140 987 q -121 1006 -126 1000 q -109 1014 -115 1011 q -92 1015 -102 1016 q -66 1006 -82 1013 q -45 996 -54 1000 q -27 986 -35 991 q -13 976 -20 982 q 1 962 -6 970 q -5 962 -1 963 q -16 957 -9 961 q -28 945 -22 953 q -41 924 -35 937 l -41 814 q -67 800 -57 807 q -83 786 -77 793 q -96 774 -90 779 q -108 766 -101 768 q -124 766 -115 764 q -149 774 -134 767 q -171 784 -161 780 q -189 793 -180 789 q -203 803 -197 798 q -218 817 -210 809 q -211 818 -216 817 q -200 823 -206 819 q -188 835 -195 827 q -175 856 -181 843 l -175 966 z "},"":{"ha":0,"x_min":-355,"x_max":207,"o":"m -246 919 q -220 947 -231 933 q -204 971 -209 960 q -203 988 -200 981 q -217 996 -206 995 q -235 1000 -226 998 q -254 1004 -245 1002 q -271 1010 -263 1006 q -286 1023 -279 1015 q -287 1023 -286 1023 q -286 1021 -287 1022 q -280 1005 -283 1012 q -271 992 -277 998 q -257 982 -266 987 q -237 971 -249 977 q -273 956 -258 960 q -302 955 -289 952 q -328 968 -316 958 q -355 996 -340 979 q -297 1059 -319 1019 q -282 1069 -290 1064 q -260 1079 -273 1075 q -230 1087 -248 1084 q -186 1093 -212 1091 q -156 1083 -172 1090 q -126 1068 -140 1076 q -99 1054 -112 1060 q -77 1048 -87 1048 q -84 1033 -77 1048 q -104 994 -90 1017 q -140 948 -118 972 q -193 907 -162 924 q -65 936 -124 896 q 47 1072 -6 975 q 91 1101 69 1098 q 134 1094 113 1105 q 173 1063 154 1083 q 207 1023 191 1044 q 159 1012 182 1023 q 114 982 136 1000 q 67 942 91 964 q 18 898 43 920 q -36 857 -7 876 q -97 826 -64 838 q -174 823 -138 818 q -239 840 -210 828 q -289 869 -268 852 q -323 899 -311 885 q -246 919 -267 899 z "},"":{"ha":0,"x_min":-361,"x_max":220,"o":"m -361 922 q -334 932 -347 924 q -305 951 -320 941 q -273 972 -290 962 q -235 990 -256 983 q -161 933 -179 974 l -119 987 q -89 997 -103 1000 q -58 983 -74 994 q -25 961 -43 973 q 13 945 -8 949 q -33 816 25 873 q 54 972 66 822 q 220 1033 102 1084 q 162 926 170 997 q 115 829 143 871 q 48 767 86 787 q -37 755 10 747 q -142 806 -85 762 q -134 915 -50 856 l -176 880 l -241 923 q -241 843 -262 886 q -199 843 -227 833 l -277 762 q -361 805 -330 766 l -361 922 l -361 922 z "},"":{"ha":0,"x_min":-239,"x_max":19,"o":"m -179 1000 q -144 1022 -155 1010 q -124 1041 -133 1033 q -105 1050 -116 1048 q -71 1041 -94 1051 q -49 1030 -58 1035 q -31 1021 -39 1026 q -16 1011 -23 1017 q -2 998 -9 1006 q -9 997 -4 998 q -19 992 -14 996 q -32 980 -25 988 q -45 959 -39 972 l -45 954 l 19 954 l 7 884 l -45 884 l -45 849 q -80 828 -68 839 q -100 809 -91 817 q -119 800 -109 801 q -153 808 -130 798 q -175 819 -165 814 q -193 828 -184 823 q -208 839 -201 833 q -222 852 -214 844 q -206 857 -218 851 q -182 884 -194 863 l -239 884 l -223 954 l -179 954 l -179 1000 z "},"":{"ha":0,"x_min":-271,"x_max":96,"o":"m -271 852 l -151 999 q -111 1014 -130 1011 q -77 1015 -92 1017 q -49 1008 -61 1013 q -28 1002 -37 1004 q -78 1086 7 1037 q 96 1049 37 1175 q 6 953 83 987 q -14 946 0 946 q -45 947 -27 946 q -83 950 -63 949 q -121 947 -103 951 q -134 920 -134 933 q -123 896 -134 907 q -95 879 -113 886 q -52 873 -76 873 q -85 911 -33 889 q 2 890 -47 915 l -97 769 q -136 775 -119 769 q -167 790 -153 781 q -192 809 -180 799 q -216 829 -204 820 q -241 845 -228 838 q -271 852 -254 851 z "},"":{"ha":909,"x_min":0,"x_max":883,"o":"m 0 536 q 66 605 33 571 q 131 667 98 640 q 197 712 163 694 q 264 730 230 729 q 334 713 305 723 q 385 691 363 703 q 421 669 406 680 q 451 648 437 657 q 479 632 465 639 q 512 624 493 626 l 512 354 q 546 341 528 349 q 584 331 564 333 q 626 336 604 328 q 671 372 648 345 l 671 651 q 699 675 686 660 q 724 704 712 690 q 748 730 736 719 q 769 741 759 741 q 816 718 798 728 q 847 697 835 707 q 868 678 860 688 q 883 656 876 668 q 861 653 869 658 q 847 641 852 648 q 837 623 841 633 q 829 604 833 612 l 829 233 l 830 162 q 570 12 750 141 q 540 7 560 4 q 495 21 520 10 q 444 46 470 31 q 394 78 417 62 q 356 111 372 95 q 337 138 340 127 q 357 182 345 161 q 390 216 370 203 q 439 228 410 229 q 511 208 469 228 q 488 196 497 200 q 473 188 479 192 q 463 178 467 184 q 455 162 458 173 q 495 146 477 154 q 529 132 513 138 q 558 122 544 125 q 589 122 573 119 q 626 135 606 125 q 671 163 646 144 l 671 296 q 644 274 659 286 q 612 251 629 262 q 575 232 595 240 q 535 223 556 224 q 355 281 478 261 l 355 543 q 317 550 336 541 q 280 569 298 558 q 244 591 262 581 q 208 605 226 602 q 171 601 189 608 q 133 570 152 594 q 204 555 174 567 q 258 527 235 543 q 295 494 280 511 q 317 465 309 477 q 259 455 288 466 q 199 423 230 444 l 199 153 q 211 149 204 150 q 224 146 218 149 q 236 136 231 143 q 245 115 242 130 q 252 130 250 123 q 256 144 255 136 q 255 163 257 153 q 247 191 253 174 q 274 178 264 189 q 289 151 285 167 q 289 114 292 134 q 273 74 285 94 q 240 36 261 54 q 188 4 218 17 q 135 16 170 -5 q 43 96 100 38 l 41 396 q 75 451 52 429 q 126 483 98 473 q 0 536 111 519 z "},"":{"ha":237,"x_min":49,"x_max":204,"o":"m 204 724 q 180 695 191 710 q 157 665 168 680 q 136 635 146 650 q 116 604 125 620 q 49 734 49 666 q 175 911 49 842 l 189 892 q 151 817 151 850 q 204 735 151 766 l 204 724 z "},"":{"ha":287,"x_min":64,"x_max":222,"o":"m 146 653 q 120 659 132 653 q 98 675 107 665 q 83 698 89 685 q 78 725 78 711 q 83 753 78 740 q 99 776 89 766 q 121 791 109 786 q 150 797 134 797 q 178 791 165 797 q 201 776 192 786 q 217 753 211 766 q 222 725 222 740 q 98 557 222 602 q 92 556 95 556 q 86 555 89 555 q 64 574 64 555 q 80 598 64 590 q 146 653 134 626 z "},"":{"ha":463,"x_min":64,"x_max":399,"o":"m 316 699 q 343 693 330 699 q 365 677 355 687 q 380 654 374 667 q 385 627 385 641 q 379 599 385 612 q 364 576 374 586 q 341 561 354 566 q 313 555 328 555 q 261 576 282 555 q 241 627 241 596 q 364 795 241 749 q 376 797 369 797 q 399 777 399 797 q 382 753 399 762 q 316 699 329 726 m 140 699 q 166 693 154 699 q 189 677 179 687 q 203 654 198 667 q 209 627 209 641 q 203 599 209 612 q 188 576 197 586 q 164 561 178 566 q 136 555 151 555 q 85 576 106 555 q 64 627 64 596 q 188 795 64 749 q 200 797 193 797 q 222 777 222 797 q 206 753 222 762 q 140 699 153 726 z "},"":{"ha":463,"x_min":64,"x_max":399,"o":"m 147 654 q 120 660 133 654 q 98 675 108 665 q 83 699 89 686 q 78 726 78 711 q 84 753 78 741 q 99 776 90 766 q 122 791 109 786 q 151 797 136 797 q 202 777 181 797 q 222 726 222 756 q 99 557 222 604 q 87 555 94 555 q 64 575 64 555 q 81 599 64 591 q 147 654 134 627 m 323 654 q 297 660 309 654 q 275 675 284 665 q 260 699 265 686 q 254 726 254 711 q 260 753 254 741 q 276 776 266 766 q 299 791 286 786 q 327 797 312 797 q 378 777 357 797 q 399 726 399 756 q 275 557 399 604 q 263 555 270 555 q 241 575 241 555 q 257 599 241 591 q 323 654 311 627 z "},"":{"ha":476,"x_min":64,"x_max":412,"o":"m 238 104 q 170 118 201 104 q 115 155 138 132 q 78 210 92 178 q 64 278 64 241 q 78 346 64 315 q 116 401 92 378 q 171 438 139 425 q 238 452 202 452 q 306 438 274 452 q 361 401 337 425 q 398 346 385 377 q 412 278 412 314 q 398 211 412 242 q 361 156 385 179 q 306 118 338 132 q 238 104 275 104 z "},"":{"ha":627,"x_min":12,"x_max":675,"o":"m 92 458 l 630 456 q 669 470 650 452 q 674 439 675 460 q 666 395 674 418 q 641 348 658 371 q 595 309 623 324 l 57 311 q 18 296 36 314 q 13 327 12 307 q 21 372 13 348 q 46 419 29 395 q 92 458 64 442 z "},"":{"ha":918,"x_min":0,"x_max":918,"o":"m 42 292 q 0 334 0 292 q 42 376 0 376 l 876 376 q 918 334 918 376 q 876 292 918 292 l 42 292 z "},"":{"ha":0,"x_min":-393,"x_max":252,"o":"m -320 979 q -271 1002 -295 995 q -226 1005 -246 1010 q -193 982 -206 1001 q -176 926 -180 963 q -201 939 -190 935 q -225 942 -212 942 q -252 939 -237 942 q -288 934 -267 937 q -244 906 -274 911 q -176 906 -215 900 q -91 927 -137 912 q 1 962 -45 942 q 129 989 79 984 q 206 978 178 994 q 243 923 234 962 q 250 819 252 884 q 184 867 222 857 q 105 871 146 877 q 23 851 64 865 q -54 825 -18 836 q -171 791 -123 798 q -251 790 -218 785 q -304 810 -283 796 q -339 838 -324 824 q -366 860 -354 851 q -393 867 -378 869 l -320 979 l -320 979 z "},"":{"ha":0,"x_min":-365,"x_max":-202,"o":"m -251 735 q -260 758 -251 749 q -283 768 -270 768 q -307 758 -297 768 q -316 735 -316 749 q -307 712 -316 722 q -283 703 -297 703 q -261 711 -271 703 q -251 735 -251 720 m -212 694 q -283 654 -235 654 q -315 660 -300 654 q -341 677 -330 667 q -358 703 -352 688 q -365 734 -365 718 q -358 766 -365 751 q -341 792 -352 781 q -315 810 -330 804 q -283 817 -300 817 q -252 810 -267 817 q -226 792 -237 804 q -209 766 -215 781 q -202 734 -202 751 q -212 694 -202 713 z "},"":{"ha":0,"x_min":-663,"x_max":-6,"o":"m -269 930 q -237 950 -245 939 q -234 968 -230 960 q -253 978 -239 976 q -286 973 -267 981 q -202 1042 -292 1023 l -127 993 q -280 873 -229 848 q -380 969 -343 891 q -475 865 -476 918 q -595 1055 -663 916 q -274 1175 -490 1190 q -150 1277 -150 1163 q -269 1084 -6 1095 q -451 970 -496 1126 q -376 1031 -423 1008 q -354 1006 -366 1021 q -330 979 -342 992 q -306 954 -317 965 q -288 938 -295 943 q -280 935 -283 937 q -274 932 -277 933 q -269 930 -271 930 z "},"":{"ha":0,"x_min":-305,"x_max":-221,"o":"m -263 854 q -305 889 -305 854 l -305 989 q -263 1025 -305 1025 q -221 989 -221 1025 l -221 889 q -263 854 -221 854 z "},"":{"ha":0,"x_min":-411,"x_max":151,"o":"m -302 978 q -276 1006 -287 992 q -261 1030 -265 1019 q -259 1047 -256 1040 q -273 1055 -262 1054 q -292 1059 -282 1057 q -310 1063 -301 1061 q -328 1069 -319 1065 q -342 1082 -336 1074 q -343 1082 -342 1082 q -342 1080 -343 1081 q -336 1064 -340 1071 q -328 1051 -333 1057 q -314 1041 -322 1046 q -293 1030 -305 1036 q -330 1015 -314 1019 q -359 1014 -345 1011 q -385 1027 -372 1017 q -411 1055 -397 1038 q -353 1118 -375 1078 q -338 1128 -347 1123 q -317 1138 -330 1134 q -286 1146 -304 1143 q -243 1152 -268 1150 q -212 1142 -228 1149 q -182 1127 -197 1135 q -156 1113 -168 1119 q -134 1107 -143 1107 q -140 1092 -134 1107 q -160 1053 -146 1076 q -196 1007 -174 1031 q -250 966 -218 983 q -121 995 -180 955 q -9 1131 -62 1034 q 35 1160 13 1157 q 77 1153 57 1164 q 116 1122 98 1142 q 151 1082 135 1103 q 103 1071 126 1082 q 57 1041 80 1059 q 11 1001 35 1023 q -38 957 -13 979 q -92 916 -64 935 q -153 885 -121 897 q -231 882 -195 877 q -295 899 -267 887 q -346 928 -324 911 q -379 958 -367 944 q -302 978 -323 958 z "},"":{"ha":0,"x_min":-370,"x_max":212,"o":"m -370 961 q -342 971 -356 963 q -314 990 -329 980 q -282 1012 -299 1001 q -243 1029 -265 1023 q -170 972 -188 1013 l -127 1026 q -97 1036 -112 1039 q -67 1023 -83 1033 q -34 1000 -52 1013 q 4 984 -17 988 q -41 855 16 912 q 45 1011 57 861 q 212 1072 93 1123 q 153 966 161 1036 q 106 869 134 911 q 39 807 77 827 q -46 794 1 787 q -151 846 -94 802 q -143 954 -58 895 l -184 920 l -250 962 q -250 882 -271 925 q -208 882 -236 873 l -286 801 q -370 844 -338 806 l -370 961 l -370 961 z "},"":{"ha":0,"x_min":-254,"x_max":-31,"o":"m -212 1092 q -177 1113 -188 1102 q -157 1132 -165 1124 q -138 1141 -149 1140 q -104 1133 -127 1143 q -82 1122 -92 1126 q -64 1113 -73 1118 q -50 1103 -56 1108 q -35 1089 -43 1097 q -42 1089 -37 1090 q -52 1084 -46 1088 q -65 1072 -58 1080 q -78 1050 -72 1063 l -78 1038 l -35 1038 q -32 1025 -31 1031 q -38 1014 -34 1019 q -44 1003 -41 1008 q -43 994 -47 998 l -78 994 l -78 941 q -113 919 -102 930 q -133 900 -124 908 q -152 891 -141 892 q -186 900 -163 890 q -208 910 -199 906 q -225 920 -218 915 q -240 930 -233 924 q -254 944 -247 936 q -248 944 -252 943 q -237 949 -243 945 q -224 961 -231 954 q -212 982 -218 969 l -212 994 l -253 994 q -252 1007 -254 1001 q -247 1018 -250 1013 q -240 1027 -244 1023 q -234 1038 -237 1032 l -212 1038 l -212 1092 z "},"":{"ha":0,"x_min":-297,"x_max":70,"o":"m -297 913 l -177 1060 q -137 1075 -155 1072 q -102 1076 -118 1078 q -75 1069 -87 1074 q -54 1063 -62 1065 q -104 1147 -18 1098 q 70 1110 11 1236 q -20 1014 58 1048 q -39 1007 -26 1007 q -71 1008 -53 1007 q -109 1011 -89 1010 q -147 1008 -129 1013 q -160 981 -160 994 q -149 957 -159 968 q -120 940 -139 947 q -78 935 -102 934 q -111 972 -59 950 q -24 951 -73 976 l -123 830 q -162 836 -145 830 q -193 851 -179 842 q -218 870 -206 860 q -242 890 -230 881 q -267 906 -254 899 q -297 913 -280 912 z "},"":{"ha":627,"x_min":0,"x_max":0,"o":""},"":{"ha":540,"x_min":1,"x_max":518,"o":"m 1 538 q 68 607 35 573 q 134 669 101 642 q 200 714 166 696 q 268 733 233 732 q 338 715 309 726 q 389 693 368 705 q 426 671 410 682 q 456 650 441 660 q 485 634 470 641 q 518 626 499 627 l 518 92 q 491 68 504 83 q 465 39 477 54 q 441 13 452 24 q 420 1 430 2 q 373 28 391 14 q 342 55 354 41 q 322 80 330 68 q 307 104 314 93 q 329 105 321 103 q 343 112 338 107 q 352 123 349 116 q 359 140 355 130 l 359 545 q 321 551 340 543 q 284 571 302 559 q 247 593 265 582 q 210 607 229 604 q 173 603 191 610 q 135 572 154 596 q 208 557 176 569 q 261 529 239 545 q 298 496 283 513 q 321 467 313 479 q 201 427 262 467 l 201 140 q 209 123 205 130 q 217 112 212 116 q 231 105 222 107 q 253 104 239 103 q 238 80 245 93 q 218 55 231 68 q 188 28 206 41 q 140 1 170 14 q 119 13 130 2 q 96 39 108 24 q 70 68 83 54 q 42 92 56 83 l 43 398 q 77 453 54 431 q 128 485 100 475 q 103 496 114 489 q 78 512 92 504 q 47 527 65 519 q 1 538 29 534 z "},"":{"ha":501,"x_min":1,"x_max":534,"o":"m 323 132 l 323 624 q 350 649 337 633 q 376 680 363 665 q 399 708 388 696 q 420 720 410 720 q 468 696 449 707 q 499 676 486 686 q 519 656 511 666 q 534 635 527 646 q 511 631 520 636 q 497 617 503 626 q 487 599 491 609 q 479 580 483 589 l 479 171 q 444 152 465 170 q 400 109 424 134 q 350 59 376 85 q 298 16 323 33 q 264 1 280 4 q 235 8 248 -1 q 63 124 128 99 l 63 486 q 166 561 103 533 q 135 570 152 564 q 104 583 119 576 q 71 600 87 591 q 63 579 54 593 q 100 542 72 565 q 1 614 18 546 l 108 720 q 147 721 127 726 q 186 707 167 717 q 223 686 205 698 q 258 664 241 673 q 288 650 274 654 q 313 652 302 646 q 268 592 286 618 q 239 546 250 566 q 224 513 228 526 q 220 494 220 500 l 220 210 q 248 190 236 201 q 271 166 260 178 q 294 146 282 155 q 323 132 307 136 z "},"":{"ha":601,"x_min":23,"x_max":600,"o":"m 286 513 l 286 211 q 313 190 301 201 q 337 167 326 178 q 361 145 349 155 q 390 131 374 136 l 390 624 q 417 649 404 633 q 442 680 430 665 q 465 708 454 696 q 486 720 476 720 q 533 696 515 707 q 565 676 552 686 q 585 656 577 666 q 600 635 593 646 q 578 631 587 636 q 563 617 569 626 q 553 599 557 609 q 545 580 549 589 l 545 172 q 510 152 530 170 q 466 110 490 134 q 415 59 441 85 q 364 16 389 33 q 330 1 346 4 q 301 8 314 -1 q 129 124 194 99 l 129 505 l 224 584 q 229 635 270 616 q 161 583 199 637 q 98 636 153 616 q 122 555 67 600 q 23 627 40 559 l 103 728 q 151 709 130 723 q 183 673 172 694 q 195 689 188 680 q 209 705 201 697 q 225 719 217 713 q 243 728 234 726 q 286 720 269 725 q 315 710 303 715 q 333 700 326 705 q 347 690 340 694 q 365 677 354 685 q 393 669 376 669 q 286 513 319 587 z "},"":{"ha":560,"x_min":12,"x_max":528,"o":"m 167 315 q 186 375 174 348 q 210 422 197 401 q 235 455 222 442 q 258 471 248 467 q 279 452 264 459 q 312 438 295 444 q 341 426 328 433 q 356 410 355 420 q 351 378 357 393 q 337 350 346 363 q 319 327 329 337 q 302 309 310 316 q 273 304 284 297 q 254 328 261 312 q 290 329 278 324 q 294 341 301 334 q 284 342 290 340 q 272 348 278 344 q 260 355 266 351 q 250 363 254 359 q 231 342 239 356 q 214 305 222 328 q 194 251 205 282 q 168 178 184 219 q 191 96 161 112 q 171 70 182 84 q 149 42 160 56 q 128 18 138 28 q 109 1 117 7 q 88 13 99 2 q 64 38 77 24 q 39 68 52 53 q 12 92 26 83 l 12 595 q 29 610 20 600 q 48 635 38 621 q 70 665 58 650 q 96 694 81 681 q 130 716 111 707 q 172 727 149 726 q 262 725 220 732 q 338 705 303 718 q 401 676 372 692 q 453 647 430 660 q 495 627 477 633 q 528 626 513 620 l 528 94 q 501 70 514 85 q 475 41 488 56 q 452 15 463 26 q 431 3 441 4 q 385 30 403 16 q 354 57 366 43 q 335 82 342 70 q 320 106 327 95 q 341 109 334 105 q 354 119 349 113 q 362 134 359 125 q 370 153 366 143 l 370 560 q 334 556 350 555 q 305 562 319 557 q 279 575 291 568 q 254 590 267 583 q 230 603 242 597 q 202 609 217 608 q 167 566 181 605 l 167 315 z "},"":{"ha":551,"x_min":7,"x_max":526,"o":"m 526 94 q 498 70 511 85 q 473 41 485 56 q 449 15 460 26 q 428 3 438 4 q 381 30 399 16 q 351 57 363 43 q 332 82 339 70 q 317 106 324 95 q 339 109 331 105 q 351 119 347 113 q 359 134 356 125 q 366 153 362 143 l 366 560 q 358 566 367 560 q 337 579 349 572 q 317 592 326 586 q 307 598 307 598 q 257 543 271 581 q 198 609 243 578 q 163 566 176 605 l 163 315 q 182 375 171 348 q 207 422 194 401 q 232 455 219 442 q 254 471 244 467 q 275 452 260 459 q 308 438 291 444 q 337 426 324 433 q 352 410 351 420 q 348 378 353 393 q 334 350 342 363 q 316 327 326 337 q 298 309 306 316 q 269 304 280 297 q 250 328 257 312 q 286 329 274 324 q 290 341 297 334 q 280 342 286 340 q 268 348 274 344 q 256 355 262 351 q 247 363 251 359 q 227 342 235 356 q 210 305 218 328 q 191 251 201 282 q 164 178 180 219 q 187 96 157 112 q 167 70 178 84 q 145 42 156 56 q 124 18 134 28 q 105 1 113 7 q 84 13 95 2 q 60 38 73 24 q 35 68 48 53 q 7 92 22 83 l 7 595 q 25 610 16 600 q 44 635 34 621 q 65 665 54 650 q 92 694 77 681 q 126 716 107 707 q 169 727 145 726 q 264 644 241 686 q 345 727 303 703 q 398 703 374 718 q 445 671 423 687 q 486 642 466 654 q 524 626 505 629 l 526 94 z "},"":{"ha":629,"x_min":1,"x_max":640,"o":"m 269 397 q 308 382 288 389 q 349 366 328 376 q 390 341 370 356 q 429 300 410 326 l 429 642 q 456 665 443 650 q 481 695 469 680 q 505 720 494 709 q 526 732 516 731 q 573 708 555 719 q 604 688 592 697 q 625 668 616 678 q 640 647 633 659 q 617 644 626 648 q 603 631 609 639 q 594 613 597 623 q 586 594 590 603 l 586 92 q 558 68 572 83 q 533 38 545 53 q 510 13 521 24 q 488 1 498 2 q 441 28 460 14 q 411 55 423 41 q 392 80 399 68 q 377 104 384 92 q 399 104 391 102 q 412 111 407 106 q 421 123 418 116 q 429 139 425 130 l 429 186 q 269 293 355 297 l 269 92 q 242 68 255 83 q 216 38 229 53 q 193 13 204 24 q 172 1 182 2 q 125 28 143 14 q 95 55 106 41 q 75 80 83 68 q 60 104 67 92 q 82 104 74 102 q 96 111 90 106 q 104 123 101 116 q 112 139 108 130 l 112 220 q 1 277 75 290 q 112 404 47 373 l 112 508 l 207 587 q 212 639 254 621 q 144 586 182 640 q 81 640 137 618 q 105 559 51 604 q 6 631 24 562 l 86 732 q 134 712 114 726 q 166 677 155 698 q 178 693 171 684 q 192 709 184 701 q 209 723 200 717 q 226 732 217 729 q 269 724 252 729 q 298 713 286 719 q 316 703 309 708 q 330 694 323 698 q 348 681 337 688 q 376 672 359 673 q 313 593 339 631 q 269 516 286 554 l 269 397 z "},"":{"ha":503,"x_min":1,"x_max":475,"o":"m 319 363 l 319 594 q 304 600 311 595 q 290 607 297 604 q 275 613 283 611 q 259 613 268 616 q 254 595 254 604 q 258 579 254 587 q 269 564 262 572 q 284 546 276 555 q 240 564 261 553 q 210 600 218 575 l 321 733 q 362 731 342 732 q 401 722 382 729 q 439 702 420 715 q 475 665 458 688 l 475 256 l 475 92 q 448 68 461 83 q 422 38 435 53 q 399 13 410 24 q 378 1 388 2 q 331 28 349 14 q 301 55 313 41 q 281 80 289 68 q 267 104 274 92 q 289 104 281 102 q 302 111 297 106 q 311 123 307 116 q 319 139 315 130 l 319 177 q 265 248 295 218 q 197 299 235 278 q 110 333 158 320 q 1 350 62 345 q 319 363 181 515 z "},"":{"ha":503,"x_min":1,"x_max":463,"o":"m 146 427 q 180 424 164 424 q 211 420 196 423 q 238 411 225 418 q 261 387 250 404 q 283 344 273 371 q 302 275 293 317 l 302 566 q 271 568 288 566 q 233 574 254 570 q 188 588 212 579 q 136 612 163 597 q 115 559 118 585 q 121 514 111 534 q 154 485 131 495 q 214 477 178 474 q 134 448 169 456 q 73 448 99 440 q 30 482 47 456 q 1 559 12 509 q 87 642 44 604 q 167 706 130 680 q 235 741 205 731 q 286 739 266 751 q 323 712 304 723 q 365 694 343 701 q 412 682 387 687 q 463 670 436 676 l 463 93 q 435 69 449 84 q 410 39 422 54 q 386 13 397 24 q 365 1 375 1 q 317 28 336 14 q 286 55 298 41 q 266 81 273 68 q 251 105 258 94 q 272 105 264 104 q 285 112 280 107 q 293 123 290 116 q 300 138 296 130 q 257 233 279 189 q 215 309 235 278 q 176 352 195 340 q 142 350 157 364 q 159 326 142 332 q 201 316 175 321 q 162 292 182 297 q 126 290 142 287 q 100 304 110 294 q 93 326 91 314 l 146 427 z "},"":{"ha":699,"x_min":0,"x_max":693,"o":"m 144 606 q 137 585 136 595 q 148 568 139 576 q 169 551 156 559 q 198 534 182 543 q 127 507 154 515 q 82 501 100 498 q 48 517 64 504 q 12 553 33 530 q 98 633 55 597 q 178 694 140 669 q 244 730 215 719 q 288 737 273 742 q 423 696 362 713 q 475 681 449 688 q 522 669 500 674 q 560 663 544 665 q 582 663 576 661 l 583 563 l 583 404 q 693 277 646 374 q 583 220 619 291 l 583 139 q 590 123 587 130 q 598 111 593 116 q 612 104 604 106 q 633 104 620 102 q 619 80 627 92 q 600 55 612 68 q 569 28 587 41 q 523 1 551 14 q 502 13 513 2 q 478 38 490 24 q 453 68 466 53 q 425 92 439 83 l 425 293 q 387 281 412 294 q 337 245 362 268 q 293 191 312 222 q 272 125 274 160 q 287 107 278 113 q 317 104 296 102 q 302 80 310 92 q 283 55 295 68 q 253 28 271 41 q 206 1 235 14 q 185 13 196 2 q 161 38 174 24 q 136 68 149 53 q 109 92 123 83 l 109 328 q 94 333 100 329 q 80 341 87 337 q 65 347 73 345 q 49 347 58 349 q 44 329 44 337 q 48 313 44 321 q 59 297 52 305 q 74 279 66 289 q 30 297 51 286 q 0 333 8 309 l 111 467 q 152 464 132 466 q 191 456 172 463 q 229 435 210 449 q 266 399 248 422 l 266 248 q 303 313 280 286 q 350 357 326 340 q 394 384 373 374 q 425 397 415 393 l 425 560 q 402 562 419 557 q 360 575 385 567 q 308 593 336 583 q 250 608 279 602 q 193 615 220 614 q 144 606 165 616 z "},"":{"ha":545,"x_min":1,"x_max":613,"o":"m 220 211 l 356 131 l 356 569 q 340 596 355 585 q 296 607 325 608 q 440 802 425 735 q 439 825 443 814 q 423 845 435 837 q 390 856 411 852 q 340 854 370 859 l 437 962 q 474 957 458 961 q 504 949 490 954 q 528 938 517 944 q 548 928 538 932 q 572 910 560 920 q 593 892 584 901 q 607 879 602 884 q 613 875 613 873 q 579 811 596 837 q 547 767 563 785 q 514 736 530 749 q 481 713 497 724 q 448 689 465 701 q 413 659 431 677 q 481 628 458 652 q 510 566 505 604 l 510 171 q 476 152 496 170 q 432 109 456 134 q 381 59 408 85 q 330 16 355 33 q 296 1 312 4 q 267 8 280 -1 l 64 124 l 64 486 q 167 561 104 533 q 136 570 153 564 q 105 583 119 576 q 72 600 88 591 q 63 579 54 593 q 100 542 73 565 q 1 614 18 546 l 109 720 q 148 721 128 726 q 187 707 168 717 q 224 686 206 698 q 258 664 242 673 q 289 650 275 654 q 314 652 302 646 q 268 592 286 618 q 239 545 250 565 q 224 513 229 526 q 220 494 220 500 l 220 211 z "},"":{"ha":581,"x_min":1,"x_max":656,"o":"m 264 507 l 263 211 l 399 131 l 399 569 q 382 596 397 585 q 339 607 368 608 q 483 802 469 736 q 481 825 486 814 q 466 845 477 837 q 433 856 454 852 q 382 854 412 859 l 480 962 q 546 948 521 959 q 591 928 572 938 q 615 910 603 920 q 635 892 627 901 q 650 879 644 884 q 656 875 656 873 q 622 811 639 837 q 589 767 606 785 q 556 736 573 749 q 524 713 540 724 q 490 689 507 701 q 456 659 473 677 q 525 628 501 652 q 553 566 548 604 l 553 171 q 519 152 539 170 q 474 109 498 134 q 424 59 450 85 q 373 16 398 33 q 339 1 355 4 q 310 8 323 -1 l 106 124 l 106 499 l 201 578 q 207 630 247 611 q 138 577 177 631 q 75 631 132 610 q 100 550 45 595 q 1 621 18 553 l 81 723 q 129 703 108 718 q 161 668 149 689 q 172 683 165 675 q 187 700 179 692 q 203 714 195 707 q 220 723 212 720 q 264 715 247 720 q 292 705 281 710 q 311 694 304 699 q 325 685 318 689 q 342 672 332 680 q 371 663 353 664 q 307 584 334 623 q 264 507 280 545 z "},"":{"ha":888,"x_min":1,"x_max":882,"o":"m 1 537 q 66 607 34 572 q 132 668 99 641 q 197 713 164 696 q 264 732 230 730 q 334 714 305 725 q 385 693 363 704 q 421 670 406 682 q 451 649 437 659 q 479 633 465 640 q 512 625 493 627 l 512 397 q 551 382 530 389 q 592 366 571 376 q 633 340 613 355 q 671 300 653 325 l 671 642 q 699 665 686 650 q 724 695 712 680 q 748 720 736 709 q 769 732 759 731 q 816 708 798 719 q 847 688 835 697 q 867 668 859 678 q 882 647 876 659 q 860 644 869 648 q 846 631 852 639 q 836 613 840 623 q 828 594 832 603 l 829 92 q 801 68 814 83 q 776 38 788 53 q 752 13 764 24 q 731 1 741 2 q 684 28 703 14 q 654 55 666 41 q 634 80 642 68 q 620 104 627 92 q 642 104 633 102 q 655 111 650 106 q 664 123 661 116 q 671 139 667 130 l 671 186 q 512 293 598 297 l 512 92 q 485 68 498 83 q 459 38 471 53 q 436 13 447 24 q 414 1 425 2 q 368 28 386 14 q 337 55 349 41 q 318 80 326 68 q 303 104 310 92 q 325 104 317 102 q 338 111 333 106 q 347 123 344 116 q 355 139 351 130 l 355 220 q 244 277 317 290 q 355 404 290 373 l 355 544 q 318 551 336 543 q 281 571 299 559 q 244 592 262 582 q 208 606 226 603 q 171 603 189 610 q 134 571 153 595 q 205 556 174 568 q 258 528 236 544 q 295 496 280 513 q 317 467 309 479 q 259 456 288 467 q 199 425 231 446 l 200 155 q 211 151 205 151 q 224 147 218 150 q 236 138 231 144 q 245 116 242 131 q 253 131 250 125 q 256 146 256 138 q 255 164 257 154 q 247 192 253 175 q 275 179 264 190 q 289 152 286 168 q 289 116 293 136 q 273 76 286 96 q 240 37 261 56 q 189 5 219 18 q 135 18 170 -4 q 43 98 100 39 l 42 398 q 76 453 52 431 q 127 484 99 475 q 1 537 111 521 z "},"":{"ha":830,"x_min":0,"x_max":840,"o":"m 787 155 q 527 5 708 134 q 506 2 519 -2 q 475 16 492 6 q 438 39 458 25 q 397 65 418 52 q 356 87 376 77 q 318 98 336 96 q 345 126 328 113 q 382 151 361 140 q 426 166 404 161 q 469 169 448 171 q 507 147 490 160 q 538 123 524 134 q 565 103 553 111 q 587 97 576 96 q 608 112 598 98 q 629 156 618 125 l 629 230 l 614 220 q 579 199 597 208 q 548 185 564 192 q 520 178 532 179 q 490 193 506 187 q 454 202 474 198 q 410 209 435 206 q 355 218 386 212 l 355 551 q 317 558 336 549 q 280 577 298 566 q 244 599 262 589 q 208 613 226 610 q 171 609 189 616 q 133 578 152 602 q 204 563 174 575 q 258 535 235 551 q 295 503 280 519 q 317 474 309 486 q 259 463 288 474 q 199 432 230 452 l 199 161 q 211 157 204 158 q 224 154 218 157 q 236 145 231 151 q 245 123 242 138 q 252 138 250 132 q 256 153 255 145 q 255 172 257 161 q 247 199 253 182 q 274 186 264 197 q 289 159 285 175 q 289 122 292 142 q 273 82 285 102 q 240 44 261 62 q 188 13 218 26 q 135 25 170 3 q 43 104 100 46 l 43 410 q 76 462 53 442 q 126 492 98 482 q 111 505 122 500 q 83 513 100 509 q 44 524 66 517 q 0 544 23 530 q 66 613 33 579 q 131 675 98 648 q 197 720 163 703 q 264 739 230 738 q 334 721 305 732 q 385 700 363 711 q 421 677 406 688 q 451 656 437 666 q 479 641 465 647 q 512 632 493 634 l 512 317 q 526 310 518 315 q 542 300 534 305 q 560 289 551 294 q 579 282 570 284 q 602 290 588 284 q 629 306 615 296 l 629 659 q 656 683 643 668 q 681 712 669 698 q 704 738 693 727 q 726 750 715 749 q 773 726 754 736 q 804 706 791 715 q 825 686 817 696 q 840 665 833 676 q 818 661 826 666 q 804 648 809 656 q 794 630 798 640 q 786 611 790 620 l 787 155 z "},"":{"ha":594,"x_min":-1,"x_max":565,"o":"m 121 -114 q 139 -121 131 -116 q 154 -131 147 -126 q 167 -138 161 -136 q 180 -139 174 -141 l 208 -121 q 189 -101 200 -112 q 159 -88 177 -90 q 121 -114 137 -93 m 408 545 q 370 552 389 543 q 333 571 351 560 q 297 593 315 583 q 260 607 279 604 q 223 603 242 610 q 186 572 205 596 q 257 557 227 569 q 311 529 288 545 q 347 497 333 513 q 370 468 361 480 q 251 427 312 468 l 251 237 l 250 98 q 158 19 193 40 q 105 7 123 -3 q 35 57 59 26 q 4 117 10 87 q 10 168 -1 146 q 46 193 21 190 q 38 165 40 176 q 37 147 36 155 q 41 132 38 139 q 47 117 43 125 q 57 138 51 132 q 69 146 62 144 q 82 148 75 148 q 94 151 88 148 l 94 399 q 128 454 104 431 q 179 486 151 476 q 53 538 163 521 q 119 607 86 573 q 184 669 151 642 q 249 714 216 696 q 317 733 282 732 q 387 715 357 726 q 437 693 416 705 q 474 671 458 682 q 503 650 489 660 q 531 634 517 641 q 565 626 546 627 l 564 -85 q 524 -108 545 -90 q 481 -149 503 -126 q 435 -195 459 -172 q 384 -230 410 -218 q 252 -163 338 -224 l 193 -216 q 126 -210 153 -218 q 82 -188 100 -201 q 52 -156 64 -174 q 30 -123 41 -139 q 45 -116 35 -124 q 67 -97 55 -109 q 95 -73 80 -86 q 124 -49 109 -60 q 154 -31 139 -38 q 181 -25 169 -24 q 263 -59 232 -37 q 283 -12 296 -50 q 239 -5 273 1 q 327 48 257 71 q 355 18 349 35 q 357 -18 361 1 q 341 -56 353 -37 q 314 -94 329 -75 l 363 -134 q 387 -114 376 -122 q 408 -100 397 -105 l 408 545 z "},"":{"ha":597,"x_min":-52,"x_max":576,"o":"m 33 -144 q 51 -148 43 -144 q 65 -153 59 -151 q 78 -157 72 -156 q 90 -155 83 -158 l 113 -132 q 93 -118 104 -123 q 64 -115 82 -112 q 47 -126 54 -119 q 33 -144 39 -132 m 419 547 q 381 554 400 546 q 345 574 363 563 q 308 596 326 585 q 272 610 290 606 q 235 606 254 613 q 197 574 216 599 q 269 559 238 572 q 322 532 300 547 q 358 499 344 516 q 381 470 373 482 q 262 429 323 471 l 262 240 l 262 101 q 170 21 205 43 q 117 9 134 -1 q 64 40 85 22 q 31 79 43 59 q 15 119 19 99 q 15 155 12 139 q 30 182 19 172 q 58 195 41 193 q 50 168 52 178 q 48 149 47 157 q 52 135 50 141 q 59 119 55 128 q 68 140 62 134 q 80 148 74 146 q 93 150 87 150 q 105 153 100 150 l 106 401 q 139 456 116 433 q 191 488 163 478 q 64 541 175 524 q 130 610 98 576 q 195 671 163 644 q 261 716 228 699 q 328 735 294 734 q 398 718 369 728 q 449 696 427 707 q 485 673 470 685 q 514 653 500 662 q 543 637 528 644 q 576 629 557 631 l 576 58 l 576 -100 q 553 -114 564 -103 q 531 -141 542 -125 q 508 -173 520 -156 q 482 -205 496 -191 q 450 -231 468 -220 q 408 -243 432 -241 q 361 -195 385 -215 q 312 -164 338 -176 q 212 -253 303 -181 l 157 -176 l 86 -242 q -37 -142 -52 -225 q 147 -87 54 -27 q 146 -8 208 -38 l 203 37 q 269 -26 265 25 q 250 -69 266 -44 q 211 -120 233 -94 l 241 -151 q 327 -76 293 -128 q 419 -136 382 -95 l 419 547 z "},"":{"ha":557,"x_min":-49,"x_max":522,"o":"m 435 100 q 407 76 420 91 q 382 46 394 61 q 359 20 370 31 q 338 9 348 9 q 291 35 309 22 q 261 62 273 49 q 241 88 249 75 q 227 112 233 100 q 248 113 240 111 q 261 119 256 115 q 270 132 267 124 q 278 148 274 139 l 278 178 q 139 303 197 359 q 156 280 140 286 q 197 269 172 274 q 159 245 178 250 q 124 244 140 240 q 99 257 109 248 q 92 279 90 267 l 143 379 q 186 372 166 376 q 224 362 207 369 q 255 342 241 355 q 278 309 269 330 l 278 439 q 73 465 252 486 q 58 393 45 438 q 44 412 50 407 q 35 420 39 416 q 29 433 31 425 q 24 462 26 441 q 52 572 34 529 q 93 646 69 616 q 144 698 116 676 q 205 745 173 720 q 254 743 231 750 q 301 724 278 736 q 347 701 323 713 q 397 685 371 689 q 454 687 424 680 q 522 722 485 694 q 461 620 500 658 q 372 569 421 583 q 269 564 322 555 q 167 600 215 572 q 143 597 155 603 q 121 581 131 591 q 105 555 111 570 q 99 528 99 541 q 205 534 156 536 q 297 526 255 533 q 374 507 340 519 q 435 484 408 496 l 435 100 m 29 -180 q 45 -200 35 -195 q 70 -203 55 -205 q 93 -183 86 -189 q 93 -171 100 -177 q 29 -180 68 -140 m 386 -7 q 413 -13 401 -5 q 435 -32 425 -20 q 456 -56 446 -43 q 479 -78 467 -68 l 479 -160 l 344 -283 q 275 -224 292 -251 q 191 -283 249 -220 q 151 -218 178 -244 l 105 -258 q 53 -267 77 -271 q 10 -252 29 -263 q -24 -229 -9 -241 q -49 -210 -39 -216 q -2 -136 -26 -163 q 46 -100 22 -109 q 96 -96 71 -90 q 145 -120 121 -102 q 161 -70 171 -94 q 103 -34 151 -47 l 147 19 q 196 5 177 18 q 221 -30 215 -7 q 221 -85 228 -52 q 193 -161 214 -119 q 214 -193 212 -180 q 248 -149 229 -165 q 287 -130 267 -132 q 359 -180 315 -164 l 359 -90 q 350 -81 354 -86 q 338 -73 346 -75 q 338 -100 324 -84 q 296 -54 296 -105 l 386 -7 z "},"":{"ha":631,"x_min":1,"x_max":591,"o":"m 591 92 q 564 68 577 83 q 538 38 551 53 q 515 13 526 24 q 494 1 504 2 q 447 28 465 14 q 417 55 429 41 q 397 80 405 68 q 382 104 389 92 q 404 104 396 102 q 418 111 412 106 q 427 122 423 115 q 434 139 430 130 l 434 352 l 434 566 q 392 507 416 550 q 345 406 368 465 q 299 279 321 348 q 264 144 278 211 l 264 139 q 271 122 268 130 q 280 111 275 115 q 293 104 286 106 q 315 104 301 102 q 300 80 308 92 q 281 55 293 68 q 251 28 269 41 q 204 1 233 14 q 183 13 194 2 q 159 38 172 24 q 134 68 147 53 q 106 92 121 83 l 106 509 l 201 589 q 206 640 247 621 q 138 587 176 642 q 75 642 132 620 q 99 560 45 605 q 1 632 18 563 l 81 733 q 128 713 108 728 q 160 678 149 699 q 172 693 165 685 q 187 710 179 702 q 203 724 195 718 q 220 733 212 730 q 263 725 246 730 q 292 715 280 720 q 311 704 303 709 q 325 695 318 699 q 342 682 332 690 q 370 673 353 675 q 263 517 296 593 l 264 358 q 291 475 274 421 q 329 576 308 530 q 376 661 351 622 q 429 732 401 700 q 471 725 451 734 q 511 705 492 717 q 550 681 530 692 q 591 665 570 669 l 591 92 z "},"":{"ha":914,"x_min":16,"x_max":910,"o":"m 694 647 q 721 671 708 656 q 747 700 734 686 q 770 726 759 715 q 791 737 781 736 q 839 713 820 724 q 872 691 859 702 q 895 671 886 681 q 910 649 903 661 q 887 646 897 650 q 871 635 878 642 q 860 618 865 627 q 850 600 854 608 l 850 92 q 823 68 836 83 q 799 38 810 53 q 776 13 787 24 q 755 1 765 2 q 708 28 726 14 q 678 55 690 41 q 658 80 666 68 q 644 104 650 92 q 665 104 657 102 q 678 111 673 106 q 686 123 683 116 q 694 140 690 130 l 694 238 q 532 334 640 336 l 532 92 q 505 68 518 83 q 480 38 492 53 q 458 13 469 24 q 437 1 447 2 q 390 28 408 14 q 360 55 372 41 q 340 80 348 68 q 326 104 332 92 q 347 104 339 102 q 361 111 355 106 q 370 122 366 115 q 377 139 373 130 l 377 205 q 335 279 376 255 l 377 385 l 377 559 q 368 565 378 559 q 347 578 359 571 q 325 592 335 585 q 315 598 315 598 l 265 543 l 207 609 q 172 566 184 605 l 172 179 q 238 313 218 260 q 247 395 257 367 q 195 365 225 398 l 225 423 q 249 457 236 447 q 275 468 262 467 q 301 463 288 469 q 326 448 314 456 q 348 430 338 439 q 365 415 358 420 q 349 357 361 391 q 316 282 336 323 q 272 197 297 242 q 221 104 248 151 q 204 76 212 89 q 186 51 197 63 q 159 26 176 39 q 113 1 142 14 q 92 13 103 2 q 68 38 81 24 q 43 68 56 53 q 16 92 30 83 l 16 595 q 42 622 28 602 q 74 665 56 642 q 116 706 92 688 q 177 726 141 724 q 272 644 249 686 q 353 726 311 704 q 407 702 382 718 q 453 670 431 686 q 494 642 474 654 q 532 626 513 629 l 532 438 q 694 359 613 430 l 694 647 z "},"":{"ha":970,"x_min":19,"x_max":958,"o":"m 19 536 q 85 605 52 571 q 150 667 117 640 q 215 711 182 694 q 283 730 248 729 q 353 713 323 723 q 403 691 382 703 q 439 668 424 680 q 469 648 455 657 q 497 632 483 639 q 530 624 511 625 l 530 304 q 569 344 549 329 q 610 370 589 359 q 651 387 631 380 q 690 401 671 393 l 690 651 q 717 675 704 660 q 743 704 730 690 q 766 730 755 719 q 787 741 777 741 q 834 717 816 728 q 866 697 853 707 q 886 677 878 687 q 901 656 894 667 q 879 653 888 657 q 865 640 871 648 q 855 622 859 632 q 847 604 851 612 l 847 408 q 958 281 911 376 q 847 224 884 294 l 847 143 q 854 126 851 134 q 863 115 858 119 q 877 109 869 111 q 899 108 885 106 q 884 84 891 96 q 864 58 876 71 q 834 32 852 45 q 787 5 816 18 q 766 17 777 6 q 743 42 755 28 q 717 72 730 57 q 690 96 704 87 l 690 296 q 530 191 604 301 l 530 143 q 538 126 534 134 q 547 115 541 119 q 560 109 552 111 q 582 108 568 106 q 567 84 574 96 q 548 58 559 71 q 517 32 536 45 q 471 5 499 18 q 449 17 460 6 q 426 42 438 28 q 400 72 414 57 q 373 96 387 87 l 373 543 q 335 549 354 541 q 298 569 317 557 q 262 590 280 580 q 226 605 244 601 q 189 601 208 608 q 151 570 170 594 q 223 555 192 567 q 276 527 254 543 q 313 494 298 511 q 336 465 328 477 q 218 423 279 465 l 218 153 q 230 149 223 150 q 242 146 236 149 q 255 136 249 143 q 264 115 260 130 q 271 130 268 123 q 274 144 273 136 q 273 163 275 153 q 265 191 271 174 q 293 178 282 189 q 307 151 303 167 q 307 114 311 134 q 291 74 303 94 q 258 36 279 54 q 206 4 237 17 q 153 16 188 -5 q 61 96 118 38 l 60 396 q 93 451 70 429 q 144 483 117 473 q 19 536 129 519 z "},"":{"ha":589,"x_min":31,"x_max":548,"o":"m 276 358 q 267 368 272 362 q 257 381 261 374 q 249 395 252 389 q 245 408 245 402 q 234 399 236 416 q 242 353 231 382 q 227 358 234 355 q 215 369 220 362 q 208 385 210 375 q 209 408 206 395 q 221 433 214 420 q 239 459 229 447 q 262 481 249 471 q 292 494 275 490 q 311 486 301 495 q 330 466 320 477 q 352 448 340 455 q 376 446 363 441 q 360 376 373 416 q 329 292 348 336 q 284 203 309 248 q 233 118 260 157 q 179 47 206 78 q 128 1 152 17 q 107 13 118 2 q 83 38 96 24 q 58 68 71 53 q 31 92 45 83 l 31 595 q 57 622 43 602 q 89 665 71 642 q 131 706 106 688 q 192 726 156 724 q 282 726 240 732 q 359 707 323 720 q 424 680 395 695 q 477 651 454 664 q 518 630 500 638 q 548 626 536 623 l 548 94 q 520 70 534 85 q 495 40 507 55 q 472 15 483 26 q 450 3 460 4 q 404 30 422 16 q 373 57 385 43 q 354 82 361 70 q 339 106 346 95 q 360 109 353 105 q 373 119 368 112 q 381 134 378 125 q 389 153 385 143 l 389 560 q 349 567 369 559 q 308 583 329 574 q 265 600 287 592 q 222 609 243 608 q 186 566 201 605 l 186 179 q 215 216 199 194 q 244 264 231 239 q 266 314 257 289 q 276 358 275 338 z "},"":{"ha":568,"x_min":20,"x_max":538,"o":"m 538 94 q 511 70 524 85 q 486 40 498 55 q 462 15 473 26 q 441 3 451 4 q 394 30 412 16 q 364 57 376 43 q 345 82 352 70 q 330 106 337 95 q 351 109 343 105 q 364 119 359 112 q 372 134 369 125 q 379 153 375 143 l 379 560 q 371 566 380 560 q 350 579 361 572 q 330 592 339 586 q 319 598 320 598 q 270 543 284 581 q 211 609 256 578 q 176 566 189 605 l 176 179 q 204 216 189 194 q 233 264 220 239 q 256 314 247 289 q 266 358 265 338 q 256 368 262 362 q 246 381 251 374 q 238 395 241 389 q 235 408 235 402 q 223 399 226 416 q 232 353 221 382 q 217 358 224 355 q 204 369 210 362 q 198 385 199 375 q 198 408 196 395 q 210 433 203 420 q 228 459 218 447 q 252 481 239 471 q 281 494 264 490 q 300 486 290 495 q 319 466 309 477 q 341 448 330 455 q 366 446 352 441 q 350 376 363 416 q 318 292 338 336 q 274 203 299 248 q 223 118 250 157 q 169 47 196 78 q 118 1 142 17 q 97 13 108 2 q 73 38 85 24 q 48 68 61 53 q 20 92 35 83 l 20 595 q 47 622 33 602 q 78 665 60 642 q 121 706 96 688 q 182 726 146 724 q 277 644 254 686 q 357 726 316 704 q 411 702 387 718 q 457 670 436 686 q 498 642 479 654 q 537 626 518 629 l 538 94 z "},"":{"ha":540,"x_min":1,"x_max":513,"o":"m 1 536 q 66 605 34 571 q 132 667 99 640 q 197 711 164 694 q 264 730 230 729 q 334 713 305 723 q 385 691 363 703 q 421 668 406 680 q 451 648 437 657 q 479 632 465 639 q 513 624 494 625 l 513 92 q 485 68 498 83 q 460 38 472 53 q 436 13 448 24 q 415 1 425 2 q 368 28 387 14 q 338 55 350 41 q 318 80 326 68 q 304 104 311 92 q 326 104 317 102 q 339 111 334 106 q 348 122 345 115 q 355 139 351 130 l 355 543 q 318 549 336 541 q 281 569 299 557 q 244 590 262 580 q 208 605 226 601 q 171 601 190 608 q 134 570 153 594 q 205 555 174 567 q 258 527 236 543 q 295 494 281 511 q 317 465 309 477 q 259 455 288 465 q 200 423 231 444 l 200 153 q 212 149 205 150 q 225 146 218 149 q 237 136 231 143 q 245 115 242 130 q 253 130 250 123 q 257 144 256 136 q 256 163 258 153 q 248 191 254 174 q 275 178 264 189 q 289 151 286 167 q 289 114 293 134 q 273 74 286 94 q 240 36 261 54 q 189 4 219 17 q 134 18 170 -5 q 41 100 98 41 l 42 396 q 76 451 52 429 q 127 483 99 473 q 1 536 111 519 z "},"":{"ha":633,"x_min":9,"x_max":602,"o":"m 602 92 q 575 68 588 83 q 549 38 562 53 q 526 13 537 24 q 505 1 515 2 q 458 28 476 14 q 428 55 439 41 q 408 80 416 68 q 393 104 400 92 q 415 104 407 102 q 429 111 423 106 q 437 122 434 115 q 445 139 441 130 l 445 352 l 445 566 q 403 507 427 550 q 355 406 379 465 q 310 279 332 348 q 275 144 289 211 l 275 139 q 282 122 279 130 q 291 111 286 115 q 304 104 296 106 q 326 104 313 102 q 311 80 319 92 q 292 55 304 68 q 262 28 280 41 q 215 1 243 14 q 194 13 205 2 q 170 38 182 24 q 145 68 158 53 q 117 92 132 83 l 117 594 q 102 600 109 595 q 89 607 96 604 q 75 613 82 611 q 58 613 67 616 q 53 595 53 604 q 57 579 54 587 q 68 564 61 572 q 83 546 75 555 q 39 564 60 553 q 9 600 18 575 l 120 733 q 161 731 141 732 q 200 722 181 729 q 238 702 220 715 q 275 665 257 688 l 275 358 q 302 475 285 421 q 340 576 319 530 q 387 661 361 622 q 439 732 412 700 q 482 725 462 734 q 522 705 503 717 q 561 681 541 692 q 602 665 581 669 l 602 92 z "},"":{"ha":528,"x_min":1,"x_max":562,"o":"m 58 471 q 41 395 26 441 q 25 414 31 410 q 14 424 18 419 q 7 437 10 428 q 1 468 4 446 q 20 551 9 515 q 46 614 32 587 q 79 663 61 642 q 117 701 97 684 q 159 734 137 719 q 205 768 182 750 q 261 766 235 773 q 314 746 288 758 q 366 721 340 733 q 423 703 393 708 q 487 707 453 699 q 562 743 522 715 q 494 636 538 675 q 393 581 449 596 q 277 575 338 566 q 163 614 217 584 q 136 611 150 617 q 112 593 123 605 q 94 567 101 582 q 87 538 87 552 q 140 553 106 548 q 215 558 174 559 q 300 552 256 558 q 383 533 344 545 q 453 501 422 520 q 498 456 484 481 l 498 173 q 460 152 483 172 q 411 106 437 133 q 355 52 384 80 q 297 4 326 23 q 259 -11 277 -8 q 227 -3 241 -13 q 35 122 109 94 l 35 336 q 64 360 50 345 q 90 389 77 374 q 113 413 102 403 q 135 425 123 424 q 185 403 167 411 q 216 388 204 395 q 234 374 227 381 q 249 355 241 367 q 224 350 235 356 q 205 334 214 344 q 192 313 197 325 q 182 292 186 302 l 183 216 q 217 193 200 206 q 252 168 235 180 q 286 145 269 156 q 321 130 303 135 l 321 419 q 304 432 318 425 q 271 446 291 439 q 224 458 250 452 q 171 468 199 464 q 113 472 142 471 q 58 471 84 473 z "},"":{"ha":720,"x_min":20,"x_max":713,"o":"m 445 92 l 445 293 q 286 186 359 297 l 286 139 q 293 122 290 130 q 302 111 296 115 q 315 104 307 106 q 337 104 323 102 q 322 80 330 92 q 303 55 315 68 q 273 28 291 41 q 226 1 254 14 q 204 13 216 2 q 181 38 193 24 q 156 68 169 53 q 128 92 142 83 l 128 594 q 113 600 120 595 q 100 607 106 604 q 85 613 93 611 q 68 613 77 616 q 64 595 64 604 q 68 579 64 587 q 79 564 72 572 q 94 546 85 555 q 50 564 71 553 q 20 600 28 575 l 131 733 q 172 731 152 732 q 211 722 192 729 q 249 702 231 715 q 286 665 267 688 l 286 300 q 324 340 304 325 q 365 366 344 355 q 406 382 386 376 q 445 397 427 389 l 445 647 q 472 671 459 656 q 498 700 486 686 q 521 726 510 715 q 543 737 532 736 q 590 713 571 724 q 621 693 608 703 q 641 673 633 683 q 656 652 649 663 q 634 649 643 654 q 620 636 626 644 q 610 618 614 629 q 602 600 606 608 l 602 404 q 713 277 667 372 q 602 220 640 290 l 602 139 q 610 122 606 130 q 618 111 613 115 q 632 104 624 106 q 654 104 640 102 q 639 80 646 92 q 620 55 631 68 q 589 28 608 41 q 543 1 571 14 q 521 13 532 2 q 498 38 510 24 q 472 68 486 53 q 445 92 459 83 z "},"":{"ha":637,"x_min":1,"x_max":637,"o":"m 109 578 q 94 583 101 579 q 80 591 87 587 q 66 598 73 595 q 50 597 58 600 q 49 564 40 578 q 75 530 58 549 q 30 548 52 536 q 1 583 9 559 l 112 719 q 153 716 133 718 q 192 708 173 715 q 230 687 212 701 q 267 650 248 673 l 266 214 l 427 121 l 427 626 q 454 651 441 635 q 479 683 467 667 q 502 710 491 699 q 524 723 513 722 q 571 699 552 709 q 602 678 589 688 q 622 658 614 668 q 637 637 630 648 q 615 633 623 638 q 600 620 606 628 q 590 601 594 611 q 582 581 586 590 l 582 173 q 547 155 568 172 q 502 117 526 139 q 452 71 478 95 q 400 28 425 46 q 352 3 374 10 q 312 9 329 -3 l 109 125 l 109 578 z "},"":{"ha":634,"x_min":1,"x_max":647,"o":"m 111 578 q 96 583 103 579 q 82 591 90 587 q 67 597 75 595 q 51 597 60 600 q 46 579 45 587 q 50 563 46 571 q 61 547 54 555 q 76 529 68 539 q 53 537 64 532 q 31 547 41 541 q 13 562 21 553 q 1 583 5 571 l 114 719 q 155 716 135 718 q 195 707 176 714 q 234 687 215 701 q 271 650 252 673 l 270 213 l 433 121 l 433 902 q 461 927 448 911 q 487 959 474 943 q 510 986 499 975 q 532 999 522 998 q 579 975 560 985 q 611 955 598 964 q 632 935 624 945 q 647 913 640 924 q 624 909 633 914 q 609 896 615 904 q 599 877 603 887 q 591 857 595 866 l 591 173 q 555 155 576 172 q 510 117 534 139 q 459 71 486 95 q 406 28 432 46 q 357 3 380 10 q 317 9 334 -3 l 111 125 l 111 578 z "},"":{"ha":608,"x_min":22,"x_max":597,"o":"m 179 134 q 186 119 183 125 q 195 107 190 112 q 209 101 201 103 q 231 100 217 99 q 216 77 224 90 q 197 52 209 65 q 166 26 184 39 q 119 1 148 14 q 98 12 109 1 q 75 37 87 22 q 49 65 62 51 q 22 88 36 80 l 22 656 q 61 676 45 664 q 93 699 78 688 q 122 717 107 709 q 158 726 137 725 l 269 657 q 270 630 273 643 q 257 607 266 617 q 236 588 249 596 q 210 574 224 579 q 223 591 218 584 q 230 607 228 599 q 230 623 231 614 q 224 644 228 632 q 218 625 222 633 q 208 612 214 618 q 195 600 202 606 q 179 587 187 593 l 179 432 q 191 451 183 439 q 210 478 199 464 q 231 509 220 493 q 252 539 242 525 q 271 565 262 553 q 283 581 279 576 q 305 553 290 573 q 336 509 320 532 q 367 464 353 486 q 389 432 382 442 l 389 638 q 416 661 403 646 q 441 690 429 675 q 465 714 454 704 q 486 726 476 725 q 533 700 515 713 q 564 674 551 687 q 583 649 576 661 q 597 626 591 637 q 576 626 584 627 q 563 619 568 624 q 554 608 557 614 q 546 592 550 601 l 546 88 q 518 65 532 80 q 493 37 505 51 q 470 12 481 22 q 448 1 458 1 q 401 26 420 14 q 371 52 383 39 q 351 77 359 65 q 337 100 344 90 q 359 101 351 99 q 372 107 367 103 q 381 119 377 112 q 389 134 385 125 l 389 255 q 380 279 386 266 q 366 307 374 292 q 348 336 357 321 q 330 366 338 351 q 282 434 307 398 q 254 393 270 416 q 223 347 238 371 q 196 298 208 322 q 179 253 184 274 l 179 134 z "},"":{"ha":585,"x_min":24,"x_max":600,"o":"m 391 792 q 418 815 405 801 q 444 844 431 830 q 468 869 456 859 q 489 880 479 880 q 536 854 517 867 q 566 829 554 842 q 585 804 578 816 q 600 781 593 791 q 578 780 587 782 q 565 773 570 778 q 556 762 559 769 q 549 746 553 755 l 549 88 q 521 65 534 80 q 496 37 508 51 q 472 12 484 22 q 451 1 461 1 q 404 26 422 14 q 373 52 385 39 q 354 77 361 65 q 339 100 346 90 q 361 101 353 99 q 374 107 369 103 q 383 119 380 112 q 391 134 387 125 l 391 255 q 382 279 388 266 q 368 307 376 292 q 351 336 360 321 q 332 366 341 351 q 285 434 311 398 q 257 393 273 416 q 225 347 241 371 q 198 298 210 322 q 182 253 186 274 l 182 134 q 189 119 186 125 q 198 107 193 112 q 212 101 203 103 q 233 100 220 99 q 218 77 226 90 q 199 52 211 65 q 169 26 187 39 q 122 1 151 14 q 101 12 112 1 q 77 37 90 22 q 51 65 64 51 q 24 88 38 80 l 24 656 q 64 676 47 664 q 95 699 81 688 q 125 717 110 709 q 161 726 140 725 l 272 657 q 272 630 276 643 q 260 607 269 617 q 239 588 252 596 q 213 574 227 579 q 226 591 221 584 q 232 607 231 599 q 232 623 234 614 q 227 644 231 632 q 221 625 225 633 q 211 612 217 618 q 197 600 205 606 q 182 587 190 593 l 182 432 q 194 451 186 439 q 212 478 202 464 q 233 509 222 493 q 254 539 244 525 q 273 565 264 553 q 286 581 281 576 q 299 565 291 576 q 318 539 308 553 q 339 509 328 525 q 360 478 350 493 q 378 451 370 464 q 391 432 387 439 l 391 792 z "},"":{"ha":712,"x_min":1,"x_max":686,"o":"m 267 134 q 275 119 271 125 q 283 107 278 112 q 297 101 289 103 q 319 100 305 99 q 304 77 311 89 q 284 52 296 64 q 254 26 273 39 q 208 1 236 14 q 186 12 197 1 q 162 37 175 22 q 137 65 150 51 q 109 88 123 80 l 109 587 q 94 592 101 588 q 80 600 87 596 q 66 606 73 604 q 50 605 58 608 q 48 573 39 587 q 75 540 58 559 q 52 547 63 543 q 30 557 40 551 q 13 571 20 563 q 1 591 5 580 l 112 722 q 153 719 133 721 q 192 711 173 718 q 230 691 212 704 q 267 655 249 678 l 267 432 q 279 451 271 439 q 298 478 288 464 q 319 509 308 493 q 340 539 330 525 q 358 565 350 553 q 372 581 367 576 q 385 565 376 576 q 404 539 393 553 q 425 509 414 525 q 446 478 435 493 q 464 451 456 464 q 476 432 472 439 l 476 638 q 504 661 490 646 q 529 690 517 675 q 552 714 541 704 q 574 726 564 725 q 621 700 602 713 q 651 674 640 687 q 671 649 663 661 q 686 626 678 637 q 664 626 672 627 q 650 619 656 624 q 642 608 645 614 q 634 592 638 601 l 634 88 q 607 65 620 80 q 581 37 593 51 q 557 12 568 22 q 536 1 546 1 q 489 26 507 14 q 459 52 471 39 q 439 77 447 64 q 425 100 431 89 q 446 101 438 99 q 460 107 454 103 q 469 119 465 112 q 476 134 472 125 l 476 254 q 467 278 473 265 q 453 306 461 292 q 436 336 446 321 q 418 366 427 351 q 370 434 396 399 q 342 393 358 416 q 311 347 326 371 q 284 298 296 322 q 267 253 272 274 l 267 134 z "},"":{"ha":691,"x_min":1,"x_max":686,"o":"m 267 134 q 275 119 271 125 q 284 107 279 112 q 298 101 290 103 q 319 100 306 99 q 304 77 312 89 q 285 52 297 64 q 255 26 273 39 q 208 1 236 14 q 186 12 197 1 q 163 37 175 22 q 137 65 151 51 q 110 88 124 80 l 110 587 q 95 592 102 588 q 81 600 88 596 q 66 606 74 604 q 50 605 59 608 q 49 573 40 587 q 75 540 58 559 q 52 547 64 543 q 31 557 41 551 q 13 571 21 563 q 1 591 5 580 l 113 722 q 154 719 134 721 q 193 711 174 718 q 231 691 212 704 q 267 655 250 678 l 267 432 q 289 464 274 442 q 319 509 303 486 q 350 553 336 532 q 372 581 365 573 q 386 565 377 576 q 404 539 394 553 q 425 509 414 525 q 446 478 436 493 q 465 451 456 464 q 477 432 473 439 l 477 507 l 477 792 q 504 815 491 801 q 530 844 517 830 q 553 869 542 859 q 574 880 564 880 q 621 854 603 867 q 652 829 640 842 q 671 804 664 816 q 686 781 679 791 q 664 780 673 782 q 651 773 656 778 q 642 762 646 769 q 635 746 639 755 l 635 88 q 607 65 621 80 q 582 37 594 51 q 558 12 569 22 q 536 1 547 1 q 490 26 508 14 q 459 52 471 39 q 440 77 448 64 q 425 100 432 89 q 447 101 439 99 q 460 107 455 103 q 469 119 466 112 q 477 134 473 125 l 477 254 q 468 278 474 265 q 454 306 462 292 q 437 336 446 321 q 418 366 427 351 q 371 434 397 399 q 343 393 359 416 q 312 347 327 371 q 284 298 296 322 q 267 253 272 274 l 267 134 z "},"":{"ha":588,"x_min":-1,"x_max":564,"o":"m 52 535 q 118 604 85 570 q 183 666 151 638 q 249 711 216 693 q 316 730 281 728 q 386 712 357 722 q 436 690 415 701 q 473 668 457 679 q 502 647 488 656 q 530 631 516 637 q 564 623 545 624 l 564 91 q 536 67 549 82 q 511 38 523 52 q 487 12 498 23 q 466 0 476 1 q 419 26 437 13 q 389 53 401 40 q 370 79 377 66 q 355 103 362 92 q 377 104 369 102 q 390 110 385 106 q 399 122 395 115 q 406 138 402 129 l 406 542 q 369 549 387 541 q 332 568 350 557 q 295 590 313 579 q 259 604 277 600 q 222 600 241 607 q 184 568 203 593 q 256 554 225 566 q 309 526 287 542 q 346 493 332 510 q 369 465 361 477 q 250 424 311 465 l 250 234 l 249 95 q 157 15 193 37 q 104 3 122 -6 q 52 35 73 16 q 19 74 31 54 q 3 114 7 94 q 3 150 -1 134 q 18 177 7 166 q 45 190 28 188 q 37 162 39 173 q 36 143 35 151 q 40 129 37 136 q 47 114 43 122 q 56 135 50 129 q 68 142 62 140 q 81 144 75 144 q 92 148 87 144 l 93 395 q 126 450 103 428 q 178 482 150 473 q 52 535 162 519 z "},"":{"ha":616,"x_min":1,"x_max":634,"o":"m 426 647 q 453 671 440 656 q 479 700 467 686 q 502 726 491 715 q 524 737 513 736 q 570 710 552 724 q 600 684 588 697 q 620 658 612 671 q 634 635 627 646 q 612 634 621 636 q 599 627 604 632 q 590 615 594 623 q 583 600 587 608 l 583 92 q 555 68 568 83 q 531 38 543 53 q 508 13 519 24 q 487 1 497 1 q 440 27 458 14 q 410 54 422 41 q 390 80 398 67 q 376 104 382 92 q 397 104 389 102 q 410 111 405 106 q 418 123 415 116 q 426 140 422 130 l 426 238 q 266 335 371 337 l 266 256 l 266 92 q 238 68 252 83 q 213 38 225 53 q 190 13 201 24 q 169 1 179 1 q 122 27 140 14 q 92 54 104 41 q 72 80 80 67 q 58 104 64 92 q 79 104 71 102 q 93 111 87 106 q 102 122 98 115 q 109 139 105 130 l 109 235 q 71 283 95 260 q 9 326 47 306 q 60 368 35 349 q 109 400 85 387 l 109 594 q 94 600 101 595 q 80 607 87 604 q 66 613 73 611 q 50 613 58 616 q 45 595 45 604 q 49 579 45 587 q 60 564 53 572 q 75 546 66 555 q 30 564 52 553 q 1 600 9 575 l 112 733 q 152 731 132 732 q 192 722 172 729 q 230 702 211 715 q 266 665 248 688 l 266 438 q 426 359 347 429 l 426 647 z "},"":{"ha":557,"x_min":42,"x_max":570,"o":"m 199 433 q 338 475 268 397 q 199 302 287 326 l 199 211 l 359 121 l 359 627 q 387 652 374 636 q 412 683 400 667 q 435 710 425 699 q 456 724 446 722 q 504 700 485 710 q 535 679 522 689 q 555 660 547 669 q 570 638 563 650 q 548 634 557 640 q 533 621 539 629 q 523 602 527 612 q 515 583 519 591 l 515 172 q 480 154 500 170 q 435 116 460 138 q 385 70 411 94 q 333 28 358 45 q 285 3 308 10 q 245 9 262 -3 l 42 125 l 42 319 l 106 368 l 42 401 l 42 655 q 81 669 60 657 q 125 695 103 682 q 165 717 146 708 q 196 724 184 726 q 269 668 244 701 q 287 636 280 654 q 292 597 293 618 q 280 551 291 576 q 243 496 269 526 q 256 527 258 511 q 243 556 254 543 q 220 577 233 569 q 199 584 207 585 l 199 433 z "},"":{"ha":484,"x_min":9,"x_max":507,"o":"m 144 181 q 167 129 151 151 q 210 100 183 108 q 242 133 230 122 q 264 149 254 143 l 264 420 q 60 446 237 467 q 45 375 31 419 q 31 394 36 389 q 21 402 25 398 q 15 414 17 406 q 9 443 12 422 q 37 551 20 509 q 78 624 55 594 q 130 675 102 654 q 191 721 159 697 q 240 719 216 726 q 287 701 264 712 q 334 678 310 690 q 384 662 357 666 q 440 664 410 657 q 507 698 471 671 q 447 598 487 635 q 358 548 407 562 q 255 543 309 534 q 153 578 201 551 q 130 576 142 581 q 107 559 117 570 q 92 535 98 549 q 85 508 85 521 q 192 514 142 515 q 283 506 241 513 q 360 488 326 499 q 421 464 395 476 l 421 94 q 329 15 365 37 q 276 3 294 -6 q 198 42 230 22 q 150 82 167 61 q 132 127 133 103 q 144 181 130 151 z "},"":{"ha":526,"x_min":-1,"x_max":510,"o":"m 510 -54 q 483 -77 496 -62 q 457 -107 469 -92 q 434 -133 445 -121 q 412 -144 422 -144 q 366 -118 384 -132 q 336 -91 348 -104 q 316 -65 323 -78 q 301 -41 308 -53 q 323 -41 315 -43 q 337 -34 332 -39 q 345 -23 342 -30 q 353 -6 349 -16 l 353 541 q 315 548 334 539 q 278 567 296 556 q 242 589 260 578 q 205 603 224 600 q 169 599 187 606 q 131 568 150 592 q 202 553 172 565 q 256 525 233 541 q 293 492 278 509 q 315 463 307 475 q 196 423 258 464 l 197 151 q 209 147 202 148 q 222 144 216 146 q 234 134 229 141 q 243 113 240 127 q 250 128 248 121 q 254 143 253 135 q 253 161 255 151 q 245 189 251 172 q 272 176 262 186 q 287 149 283 165 q 287 112 290 132 q 271 72 283 92 q 238 34 259 52 q 186 2 216 16 q 133 14 168 -7 q 41 94 98 36 l 39 395 q 73 449 50 427 q 124 481 96 471 q -1 534 109 517 q 64 603 32 569 q 130 665 97 637 q 195 710 162 692 q 262 729 228 728 q 332 711 303 722 q 382 689 361 701 q 419 667 404 678 q 449 646 435 656 q 477 630 463 637 q 510 622 491 624 l 510 -54 z "},"":{"ha":546,"x_min":14,"x_max":522,"o":"m 275 737 q 372 714 336 726 q 431 691 408 702 q 474 673 455 681 q 522 663 494 666 l 522 92 q 494 68 507 83 q 469 38 481 53 q 446 13 456 24 q 425 1 435 2 q 378 27 396 14 q 347 54 359 41 q 328 80 335 67 q 313 104 320 92 q 335 104 327 102 q 348 111 343 106 q 357 122 353 115 q 365 139 361 130 l 365 195 q 209 387 317 332 l 210 153 q 221 149 214 150 q 234 146 227 149 q 246 136 240 143 q 255 115 252 130 q 262 130 259 123 q 266 144 265 136 q 264 163 267 153 q 256 191 262 174 q 284 178 273 189 q 299 151 295 167 q 299 114 302 134 q 283 74 295 94 q 249 36 271 54 q 197 4 228 17 q 144 16 180 -5 q 52 96 109 37 l 52 385 l 254 500 q 365 378 320 475 l 365 551 q 327 559 346 550 q 289 582 308 569 q 251 608 270 595 q 213 627 232 621 q 175 627 194 633 q 138 597 157 621 q 172 581 158 589 q 197 565 186 572 q 220 553 208 557 q 247 551 231 549 q 194 511 222 519 q 134 511 165 503 q 73 541 104 519 q 14 591 42 562 q 96 658 62 631 q 158 702 130 685 q 214 728 186 720 q 275 737 241 736 z "},"":{"ha":592,"x_min":5,"x_max":570,"o":"m 570 -47 q 542 -71 555 -56 q 517 -101 529 -86 q 494 -126 505 -115 q 473 -138 483 -138 q 426 -112 444 -125 q 396 -85 408 -98 q 376 -59 384 -72 q 361 -35 368 -47 q 383 -35 375 -37 q 397 -28 391 -33 q 406 -17 402 -24 q 413 0 409 -9 l 413 547 q 375 554 394 545 q 338 573 357 562 q 302 595 320 585 q 265 609 283 606 q 229 605 247 612 q 191 574 210 598 q 263 559 232 571 q 316 531 294 547 q 352 498 338 515 q 375 469 367 481 q 256 429 318 470 l 256 239 l 256 100 q 163 20 199 42 q 111 8 128 -1 q 58 40 79 21 q 25 78 37 58 q 9 118 13 98 q 9 155 5 138 q 24 182 13 171 q 52 195 35 193 q 43 168 45 178 q 42 149 41 157 q 46 134 43 141 q 53 119 49 127 q 62 140 56 134 q 74 148 68 146 q 87 150 81 150 q 98 153 93 150 l 100 401 q 133 455 110 433 q 184 487 157 477 q 58 540 169 524 q 124 609 92 575 q 189 671 157 644 q 255 716 222 699 q 322 735 288 734 q 392 717 363 728 q 443 695 421 707 q 479 673 464 684 q 508 652 494 662 q 536 636 522 643 q 570 628 551 629 l 570 -47 z "},"":{"ha":491,"x_min":9,"x_max":471,"o":"m 471 93 q 436 73 456 87 q 398 43 417 59 q 363 15 380 27 q 337 1 347 2 q 274 31 298 15 q 233 66 249 47 q 207 105 216 84 q 190 149 197 125 q 204 177 195 164 q 225 200 213 191 q 250 213 237 209 q 277 216 264 218 q 261 199 269 208 q 249 182 254 191 q 244 165 245 174 q 248 151 243 157 q 274 158 264 156 q 291 160 284 161 q 301 157 297 160 q 309 149 305 154 l 309 549 q 143 613 254 551 q 122 559 125 585 q 129 515 119 534 q 162 485 138 496 q 222 477 185 475 q 142 449 177 457 q 81 448 107 440 q 37 483 55 456 q 9 559 20 509 q 95 642 52 604 q 175 706 138 680 q 242 742 212 732 q 292 740 273 751 q 373 690 328 707 q 471 662 417 674 l 471 93 z "},"":{"ha":558,"x_min":18,"x_max":576,"o":"m 386 855 q 431 876 408 868 q 474 882 450 882 q 519 870 498 883 q 542 851 534 861 q 553 832 549 842 q 562 813 557 822 q 576 795 566 804 q 529 747 566 779 q 431 669 493 715 q 465 650 450 659 q 493 635 480 642 q 516 627 506 629 q 534 626 526 624 l 534 94 q 507 70 520 85 q 481 40 494 55 q 458 15 469 26 q 437 3 448 4 q 391 30 409 16 q 360 57 372 43 q 340 82 348 70 q 326 106 333 94 q 348 108 340 104 q 360 119 355 112 q 368 134 365 125 q 376 153 372 143 l 376 560 q 336 567 356 559 q 294 583 315 574 q 252 600 273 592 q 208 609 230 608 q 173 566 187 605 l 173 315 q 192 375 180 348 q 216 422 203 401 q 241 455 229 442 q 264 471 254 467 q 286 452 270 459 q 318 438 301 444 q 348 426 334 432 q 362 410 361 420 q 357 377 363 393 q 343 349 352 362 q 325 326 335 336 q 309 308 315 315 q 279 304 290 296 q 260 328 267 312 q 296 329 284 324 q 300 341 307 333 q 290 342 296 340 q 278 348 284 344 q 266 355 272 351 q 256 363 260 359 q 237 342 245 356 q 220 305 229 328 q 200 251 211 282 q 174 178 190 219 q 197 96 168 112 q 177 70 188 84 q 155 42 166 56 q 134 17 144 28 q 115 1 123 6 q 94 13 105 1 q 71 38 83 24 q 45 68 58 53 q 18 92 32 83 l 18 595 q 35 610 26 600 q 54 635 44 621 q 76 665 64 650 q 102 693 87 680 q 136 716 117 707 q 178 726 155 725 q 284 723 236 733 q 371 698 332 713 q 412 759 404 736 q 416 781 414 768 q 417 806 418 793 q 409 832 416 819 q 386 855 402 844 z "},"":{"ha":675,"x_min":7,"x_max":663,"o":"m 115 589 q 100 594 107 590 q 87 602 94 598 q 72 609 80 606 q 56 608 64 611 q 51 590 51 599 q 55 574 52 582 q 66 557 59 566 q 81 539 73 549 q 58 547 69 543 q 36 558 46 551 q 19 573 26 564 q 7 594 11 582 l 118 732 q 159 730 139 732 q 198 721 179 728 q 236 700 218 714 q 273 662 255 686 l 272 217 l 433 123 l 433 384 q 397 369 412 378 q 380 359 389 364 q 372 372 380 368 q 354 379 365 376 q 331 387 344 382 q 307 398 319 391 q 287 419 296 406 q 275 452 278 431 q 424 516 316 545 q 376 484 380 496 q 401 456 372 472 q 418 467 412 466 q 433 473 425 468 l 433 637 q 461 663 448 646 q 486 695 474 679 q 509 724 498 711 q 530 736 520 736 q 577 712 559 723 q 609 691 596 701 q 629 671 621 681 q 644 649 637 661 q 622 645 631 650 q 607 631 613 640 q 597 611 602 622 q 589 591 593 601 l 589 532 q 624 518 608 528 q 651 490 641 509 q 662 440 661 471 q 651 366 663 410 q 640 410 647 395 q 624 429 633 425 q 606 427 616 433 q 589 411 597 422 l 589 176 q 554 158 574 174 q 509 119 533 142 q 458 71 485 96 q 407 28 432 46 q 358 3 381 10 q 319 8 336 -5 l 115 127 l 115 589 z "},"":{"ha":536,"x_min":1,"x_max":548,"o":"m 262 737 q 353 716 317 727 q 382 764 378 747 q 387 786 385 774 q 388 811 389 798 q 380 837 387 825 q 357 861 373 850 q 402 881 379 873 q 446 888 422 887 q 491 876 469 888 q 513 857 506 866 q 525 837 520 847 q 533 818 529 827 q 548 801 538 809 q 504 755 536 785 q 423 690 471 726 q 464 673 445 680 q 509 663 482 666 l 509 92 q 481 68 494 83 q 456 38 468 53 q 433 13 444 24 q 412 1 422 2 q 365 27 383 14 q 334 54 347 41 q 315 80 322 67 q 300 104 307 92 q 322 104 314 102 q 335 111 330 106 q 344 122 340 115 q 352 139 348 130 l 352 195 q 196 387 304 332 l 197 153 q 208 149 201 150 q 221 146 214 149 q 233 136 227 143 q 242 115 239 130 q 249 130 246 123 q 253 144 252 136 q 252 163 254 153 q 243 191 250 174 q 271 178 260 189 q 286 151 282 167 q 286 114 290 134 q 270 74 282 94 q 236 36 258 54 q 184 4 215 17 q 132 16 167 -5 q 39 96 96 37 l 39 385 l 241 500 q 352 378 307 475 l 352 551 q 314 559 333 550 q 276 582 295 569 q 238 608 257 595 q 200 627 219 621 q 162 627 181 633 q 125 597 144 621 q 159 581 145 589 q 184 565 173 572 q 207 553 195 557 q 234 551 218 549 q 181 511 210 519 q 121 511 152 503 q 60 541 91 519 q 1 591 29 562 q 83 658 50 631 q 145 702 117 685 q 201 728 174 720 q 262 737 228 736 z "},"":{"ha":598,"x_min":-22,"x_max":608,"o":"m 557 85 q 530 61 543 76 q 505 32 517 46 q 481 6 492 17 q 460 -6 470 -5 q 413 20 431 7 q 383 47 395 34 q 363 73 371 60 q 349 97 355 85 q 370 98 362 96 q 384 104 378 100 q 393 116 389 109 q 400 132 396 123 l 400 476 l 387 498 q 340 442 363 471 q 298 380 317 412 q 265 314 279 348 q 243 243 251 279 l 243 132 q 251 116 248 123 q 260 104 254 109 q 273 98 265 100 q 294 97 281 96 q 280 73 288 85 q 261 47 273 60 q 231 20 249 34 q 184 -6 212 7 q 162 6 174 -5 q 139 32 151 17 q 114 61 127 46 q 86 85 100 76 l 86 587 q 71 593 78 589 q 57 601 64 597 q 43 607 50 604 q 26 606 35 609 q 22 589 22 597 q 26 573 22 581 q 37 557 30 565 q 52 539 43 549 q 7 557 28 546 q -22 593 -14 568 l 89 726 q 130 724 110 726 q 169 715 150 722 q 207 695 189 709 q 243 658 225 682 l 243 428 q 271 473 258 452 q 302 512 285 494 q 342 546 319 530 q 399 576 365 562 q 370 582 380 574 q 351 598 360 589 q 327 615 341 608 q 283 623 312 623 q 340 678 313 654 q 365 698 352 688 q 389 715 377 708 q 411 727 401 723 q 430 730 422 731 q 461 721 446 728 q 495 705 476 714 q 542 686 515 696 q 608 669 568 677 q 591 647 602 660 q 565 621 580 634 q 529 596 549 608 q 481 578 508 585 q 526 552 506 564 q 557 524 547 539 l 557 85 z "},"":{"ha":674,"x_min":0,"x_max":673,"o":"m 367 821 q 337 838 352 831 q 307 846 322 845 q 278 839 292 846 q 248 812 263 831 q 268 804 260 808 q 282 797 276 800 q 294 790 289 793 q 306 783 300 786 q 341 797 326 784 q 367 821 356 809 m 267 134 q 274 119 271 125 q 283 107 277 112 q 296 101 288 103 q 318 100 304 99 q 304 77 311 89 q 284 52 296 64 q 254 26 272 39 q 207 1 235 14 q 185 12 197 1 q 162 37 174 22 q 137 65 150 51 q 109 88 123 80 l 109 587 q 94 592 101 588 q 80 600 87 596 q 65 606 73 604 q 49 605 58 608 q 48 573 39 587 q 75 540 58 559 q 52 547 63 543 q 30 557 40 551 q 12 571 20 563 q 0 591 4 580 l 112 722 q 153 719 132 721 q 192 711 173 718 q 230 691 212 704 q 267 655 249 678 l 267 432 q 279 451 271 439 q 297 478 287 464 q 318 509 307 493 q 340 539 330 525 q 358 565 350 553 q 371 581 366 576 q 393 553 378 573 q 424 509 408 532 q 455 464 440 486 q 476 432 469 442 l 475 767 q 439 774 457 766 q 404 795 421 783 q 320 734 359 749 q 247 726 281 720 q 182 756 213 733 q 125 807 152 779 q 207 874 173 846 q 269 919 241 901 q 325 944 298 936 q 386 954 351 952 q 439 942 416 948 q 479 931 462 937 q 508 978 503 960 q 512 1000 510 987 q 513 1025 515 1012 q 505 1050 512 1038 q 482 1074 498 1063 q 528 1094 505 1086 q 571 1101 547 1100 q 616 1088 594 1102 q 638 1069 631 1079 q 649 1050 645 1060 q 658 1031 654 1040 q 673 1014 663 1022 q 632 972 663 1000 q 550 904 602 944 q 570 890 560 899 q 590 872 580 882 q 611 856 600 863 q 635 848 622 849 l 635 87 q 607 64 621 79 q 581 36 594 50 q 557 12 568 22 q 536 1 546 1 q 489 26 507 14 q 458 52 471 39 q 438 77 446 64 q 424 100 431 89 q 446 101 437 99 q 459 107 454 103 q 468 119 465 112 q 476 134 472 125 l 476 254 q 467 278 473 265 q 453 306 461 292 q 435 336 445 321 q 417 366 426 351 q 370 434 395 399 q 341 393 357 416 q 310 347 326 371 q 283 298 295 322 q 267 253 271 274 l 267 134 z "},"":{"ha":540,"x_min":1,"x_max":507,"o":"m 187 203 q 266 162 236 184 q 315 117 295 139 q 332 120 325 115 q 342 130 338 124 q 350 144 347 136 l 350 550 q 312 557 331 549 q 274 578 293 566 q 236 603 255 591 q 199 619 218 614 q 161 617 180 623 q 123 586 142 610 q 158 570 144 578 q 183 554 172 562 q 206 543 195 547 q 233 541 218 539 q 180 501 209 509 q 121 500 151 492 q 59 530 90 509 q 1 581 28 552 q 83 647 49 620 q 145 692 117 675 q 200 718 173 709 q 262 727 227 726 q 331 712 302 720 q 381 696 360 704 q 417 682 402 688 q 446 669 432 675 q 473 659 459 663 q 507 654 488 655 l 507 138 l 312 0 q 242 15 273 3 q 184 41 210 26 q 136 72 157 56 q 96 102 114 88 q 63 123 78 115 q 36 131 49 132 l 36 382 q 97 428 68 405 q 151 468 126 450 q 197 494 176 485 q 237 501 219 504 q 273 481 260 493 q 295 455 287 470 q 308 421 303 439 q 316 382 312 403 l 274 288 q 274 311 277 298 q 263 337 271 324 q 245 362 256 350 q 224 384 235 374 q 203 398 213 393 q 187 404 193 404 l 187 203 z "},"":{"ha":540,"x_min":1,"x_max":523,"o":"m 239 602 q 210 615 224 610 q 181 621 196 621 q 152 613 167 621 q 123 586 138 605 q 158 570 144 578 q 184 554 172 562 q 212 578 199 567 q 239 602 226 590 m 187 203 q 265 162 235 184 q 315 117 295 139 q 331 120 325 115 q 342 130 338 124 q 349 144 347 136 l 349 550 q 313 557 332 549 q 277 576 295 565 q 265 566 271 572 q 254 553 258 559 q 247 543 249 547 q 245 539 244 539 q 190 500 221 508 q 126 500 159 492 q 61 530 94 509 q 1 581 28 552 q 83 647 49 620 q 145 692 117 675 q 200 718 173 709 q 262 727 227 726 q 306 718 286 722 q 342 709 326 713 q 358 739 355 728 q 362 761 360 749 q 363 786 365 773 q 355 812 361 799 q 332 836 348 825 q 377 856 354 848 q 420 863 397 862 q 466 850 444 863 q 488 831 481 841 q 499 812 495 822 q 508 793 504 802 q 523 776 513 784 q 419 681 505 748 q 440 671 431 675 q 460 664 450 667 q 481 657 471 660 q 507 654 492 655 l 507 138 l 312 0 q 242 15 273 3 q 183 41 210 26 q 135 72 157 56 q 95 101 113 88 q 62 123 77 115 q 35 130 47 132 l 35 380 q 96 427 67 404 q 150 467 125 450 q 197 494 175 484 q 237 501 218 504 q 273 481 260 493 q 295 455 287 470 q 308 421 303 439 q 316 382 312 403 l 274 288 q 274 311 277 298 q 263 337 271 324 q 245 362 256 350 q 224 384 235 374 q 203 398 213 393 q 187 404 193 404 l 187 203 z "},"":{"ha":433,"x_min":20,"x_max":413,"o":"m 276 284 q 267 272 271 278 q 256 258 262 265 q 245 246 251 252 q 233 235 239 241 q 205 218 220 224 q 174 212 189 212 q 135 220 160 212 q 83 241 108 228 q 59 255 71 248 q 39 271 48 262 q 20 306 20 288 l 20 406 q 33 424 20 410 q 62 450 46 437 q 97 474 79 464 q 123 485 115 485 q 149 477 133 485 q 178 458 163 470 q 204 433 193 446 q 214 410 214 420 q 206 387 214 399 q 198 378 204 385 q 186 367 193 372 q 176 356 180 361 q 170 353 171 352 q 171 360 170 355 q 174 372 172 366 q 177 384 176 378 q 178 391 178 389 q 174 401 176 397 q 162 406 171 406 l 158 406 q 155 403 157 405 q 151 399 154 401 q 145 394 147 396 q 142 392 144 393 l 140 322 q 147 313 140 317 q 163 307 153 310 q 171 304 167 305 q 179 302 176 304 q 186 301 183 302 q 191 301 189 301 q 208 306 199 301 q 223 319 216 311 q 235 336 231 328 q 245 352 241 345 l 313 469 q 321 479 316 475 q 334 485 327 485 q 357 477 344 485 q 370 469 364 473 q 383 459 376 465 q 404 438 395 448 q 413 423 413 429 q 410 417 413 422 l 402 408 q 398 402 400 405 q 395 396 396 399 q 391 385 391 389 l 391 -21 q 371 -38 381 -27 q 352 -60 361 -50 q 335 -79 343 -71 q 319 -87 327 -87 q 285 -68 298 -78 q 263 -48 272 -58 q 249 -29 254 -39 q 238 -12 243 -20 q 264 -6 258 -14 q 276 14 270 1 l 276 284 z "},"":{"ha":395,"x_min":1,"x_max":382,"o":"m 201 600 l 202 595 q 176 616 189 609 q 152 625 164 623 q 131 616 140 627 q 156 587 140 595 q 195 587 171 580 l 203 591 q 248 617 222 599 l 249 618 l 250 618 q 326 641 296 640 q 369 622 355 642 q 381 564 382 602 q 363 469 379 525 l 356 445 l 350 469 q 309 523 338 515 q 232 500 281 532 q 97 441 155 434 q 2 532 39 448 l 1 536 l 100 669 l 102 670 q 168 665 142 683 q 201 600 193 646 m 201 222 l 202 218 q 176 239 189 231 q 152 247 164 245 q 131 238 140 249 q 156 210 140 217 q 195 210 171 202 l 203 212 q 248 239 224 222 l 249 240 l 250 240 q 326 263 296 262 q 369 244 355 264 q 381 186 382 224 q 363 91 379 147 l 356 67 l 350 91 q 309 145 338 137 q 232 122 281 154 q 97 63 155 56 q 2 155 39 71 l 1 158 l 100 292 l 102 292 q 168 287 142 305 q 201 222 193 269 z "},"":{"ha":0,"x_min":-398,"x_max":247,"o":"m -326 994 q -276 1017 -300 1010 q -232 1020 -252 1025 q -198 997 -212 1016 q -182 941 -185 978 q -207 954 -195 950 q -230 957 -218 957 q -258 954 -243 957 q -293 949 -273 951 q -250 921 -279 926 q -181 921 -220 915 q -96 942 -142 927 q -4 977 -50 957 q 123 1004 73 999 q 201 993 173 1009 q 238 938 229 977 q 244 833 247 899 q 179 882 216 871 q 100 886 141 892 q 18 866 59 880 q -59 840 -24 851 q -176 806 -128 812 q -256 805 -224 800 q -309 825 -289 811 q -345 852 -330 839 q -371 875 -359 866 q -398 882 -383 884 l -326 994 l -326 994 z "},"":{"ha":493,"x_min":11,"x_max":473,"o":"m 473 103 q 446 78 459 94 q 419 45 432 62 q 395 17 407 29 q 374 3 384 4 q 326 31 345 17 q 295 58 307 44 q 275 84 283 71 q 260 109 267 97 q 282 109 274 107 q 295 116 290 111 q 304 129 300 121 q 311 145 307 136 l 311 549 q 274 553 289 550 q 243 562 259 555 q 204 581 227 568 q 145 614 182 593 q 124 559 127 585 q 131 514 121 534 q 164 485 140 495 q 224 477 188 474 q 144 448 179 456 q 83 448 109 439 q 40 483 58 456 q 11 559 22 509 q 97 643 54 604 q 177 707 140 682 q 245 743 214 733 q 295 742 275 753 q 380 686 336 715 q 473 633 425 657 l 473 103 z "},"":{"ha":468,"x_min":-299,"x_max":452,"o":"m 452 99 q 425 74 438 90 q 399 42 412 58 q 376 14 387 26 q 355 1 365 2 q 308 28 326 14 q 278 55 290 41 q 258 80 266 68 q 244 104 251 93 q 265 105 257 103 q 278 112 273 107 q 286 124 283 117 q 294 140 290 131 l 294 535 q 257 538 272 536 q 227 548 243 541 q 189 566 211 554 q 132 598 168 578 q 111 545 115 570 q 117 501 108 520 q 150 472 127 482 q 208 464 172 462 q 130 436 164 444 q 71 435 96 427 q 28 470 45 444 q 0 545 11 496 q 95 641 54 604 q 171 698 136 679 q 236 720 205 718 q 299 711 267 723 q 369 676 332 700 q 452 618 406 652 l 452 99 m -47 958 q -146 984 -128 1019 q -47 958 -68 909 m -299 942 l -161 1067 q -52 1086 -126 1104 q 5 1059 -20 1076 q 52 1026 31 1042 q 87 998 72 1010 q 115 989 103 987 l -42 837 q -77 825 -58 825 q -116 835 -95 826 q -158 858 -136 844 q -203 888 -180 872 q -251 919 -227 904 q -299 942 -275 933 z "},"":{"ha":0,"x_min":-532,"x_max":33,"o":"m -172 783 q -217 791 -196 783 q -262 813 -238 800 q -315 845 -286 827 q -386 883 -345 863 q -417 880 -412 891 q -411 851 -422 869 q -377 816 -401 833 q -321 795 -353 799 q -380 771 -349 777 q -441 771 -412 765 q -494 795 -470 777 q -532 844 -519 814 q -352 950 -429 919 q -227 960 -275 982 q -210 951 -222 957 q -181 939 -197 946 q -147 925 -165 932 q -110 909 -128 917 q -16 869 -67 890 q 7 864 -4 867 q 33 859 19 862 q 15 842 25 850 q -4 828 5 834 q -21 819 -14 823 q -28 814 -28 815 q -65 802 -50 806 q -95 795 -80 798 q -128 790 -111 792 q -172 783 -146 787 z "},"":{"ha":0,"x_min":-578,"x_max":-14,"o":"m -218 781 q -264 789 -243 781 q -309 811 -285 798 q -362 843 -332 825 q -433 881 -391 861 q -464 878 -458 889 q -458 849 -469 867 q -424 814 -448 831 q -368 793 -400 797 q -427 769 -396 775 q -488 769 -458 763 q -541 793 -517 775 q -578 842 -566 812 q -398 948 -475 917 q -274 958 -321 980 q -231 936 -251 947 q -191 916 -210 926 l -191 996 q -157 1009 -168 1002 q -138 1021 -146 1017 q -120 1026 -130 1025 q -87 1021 -109 1027 q -49 1009 -63 1014 q -21 994 -35 1004 q -38 991 -25 996 q -62 970 -50 986 l -62 867 q -39 862 -51 865 q -14 857 -28 860 q -32 840 -22 848 q -51 826 -42 832 q -67 817 -60 821 q -75 812 -75 813 q -112 800 -96 804 q -142 793 -127 795 q -175 788 -157 790 q -218 781 -193 785 z "},"":{"ha":0,"x_min":-567,"x_max":-3,"o":"m -72 953 q -99 943 -89 948 q -114 930 -109 937 q -119 916 -119 924 q -117 897 -119 907 q -83 917 -92 904 q -72 953 -75 930 m -207 789 q -252 797 -231 789 q -297 819 -273 805 q -350 850 -321 832 q -421 888 -380 868 q -452 885 -447 897 q -447 857 -457 874 q -412 822 -436 839 q -357 800 -389 804 q -416 777 -385 783 q -476 777 -447 771 q -529 802 -505 783 q -567 850 -553 820 q -387 956 -463 924 q -262 966 -310 988 q -232 951 -246 958 q -203 936 -217 943 l -181 924 q -176 941 -180 932 q -168 960 -173 950 q -138 987 -157 980 q -97 995 -119 994 q -52 996 -75 996 q -8 1004 -29 996 q -11 949 -9 970 q -16 914 -12 928 q -28 892 -20 901 q -50 876 -36 884 q -3 865 -28 869 q -20 848 -10 856 q -40 834 -31 840 q -56 824 -49 828 q -64 820 -63 821 q -100 808 -85 812 q -131 801 -115 804 q -163 795 -146 798 q -207 789 -181 793 z "},"":{"ha":0,"x_min":-541,"x_max":62,"o":"m -181 771 q -227 780 -205 772 q -271 802 -248 788 q -324 833 -295 815 q -395 871 -353 850 q -419 872 -412 876 q -427 860 -427 869 q -420 839 -427 851 q -400 815 -413 827 q -370 794 -388 804 q -331 783 -352 785 q -390 759 -359 765 q -450 760 -421 753 q -504 784 -479 766 q -541 832 -528 802 q -371 935 -444 902 q -250 954 -298 967 l -249 1046 q -216 1059 -227 1052 q -197 1070 -205 1065 q -178 1076 -189 1075 q -145 1071 -168 1077 q -107 1058 -121 1063 q -79 1044 -93 1053 q -96 1040 -83 1044 q -120 1019 -109 1036 l -120 888 q -109 886 -117 887 q -98 883 -101 884 l -98 1013 q -74 1022 -83 1017 q -60 1031 -65 1027 q -50 1038 -54 1035 q -41 1043 -46 1042 q -27 1043 -35 1044 q -3 1038 -18 1042 q 34 1026 20 1031 q 62 1011 48 1021 q 46 1008 58 1013 q 21 987 33 1004 l 21 863 q 45 866 34 865 q 62 866 56 867 q 39 846 55 857 q 6 826 23 835 q -24 810 -11 817 q -38 802 -37 804 q -74 790 -59 795 q -105 783 -90 786 q -138 778 -120 780 q -181 771 -155 775 z "},"":{"ha":0,"x_min":-354,"x_max":-52,"o":"m -219 -176 q -254 -157 -241 -171 q -275 -130 -267 -142 q -288 -112 -283 -117 q -296 -121 -293 -107 q -291 -142 -294 -134 q -283 -156 -288 -150 q -270 -167 -278 -162 q -248 -176 -261 -172 q -287 -192 -271 -190 q -315 -189 -303 -195 q -336 -169 -327 -182 q -354 -137 -345 -155 q -255 -50 -293 -73 q -200 -36 -217 -27 q -152 -64 -172 -51 q -116 -87 -132 -77 q -85 -101 -100 -96 q -52 -102 -71 -105 q -69 -113 -62 -112 q -79 -117 -75 -114 q -84 -130 -82 -119 q -87 -170 -86 -141 l -87 -296 q -87 -303 -87 -296 q -87 -317 -87 -309 q -88 -338 -88 -327 q -109 -359 -100 -346 q -125 -386 -117 -372 q -147 -410 -134 -399 q -180 -422 -159 -420 q -227 -385 -208 -400 q -257 -357 -245 -369 q -276 -336 -269 -345 q -289 -317 -283 -327 q -258 -321 -270 -321 q -238 -318 -245 -321 q -226 -308 -231 -314 q -218 -292 -222 -301 l -219 -176 z "},"":{"ha":0,"x_min":-549,"x_max":-60,"o":"m -290 -434 q -329 -419 -312 -432 q -361 -391 -346 -406 q -390 -364 -376 -376 q -421 -351 -405 -352 l -414 -330 l -414 -187 q -449 -168 -435 -182 q -470 -141 -462 -154 q -483 -124 -478 -129 q -491 -133 -488 -119 q -486 -153 -489 -145 q -478 -168 -483 -161 q -464 -178 -473 -174 q -443 -188 -456 -183 q -481 -204 -465 -201 q -510 -200 -498 -206 q -531 -180 -522 -194 q -549 -149 -540 -167 q -450 -61 -488 -84 q -395 -47 -412 -39 q -347 -76 -366 -62 q -311 -98 -327 -89 q -280 -112 -294 -108 q -247 -113 -265 -117 q -263 -124 -257 -123 q -274 -128 -270 -125 q -279 -142 -277 -131 q -281 -182 -281 -153 l -281 -303 q -264 -291 -273 -294 q -250 -287 -256 -288 q -240 -288 -244 -287 q -236 -288 -236 -288 l -236 -94 q -201 -72 -212 -83 q -181 -54 -190 -61 q -162 -44 -173 -46 q -128 -53 -151 -43 q -106 -64 -116 -59 q -89 -73 -97 -68 q -74 -83 -81 -77 q -60 -97 -67 -89 q -66 -97 -62 -96 q -77 -102 -71 -98 q -90 -114 -83 -106 q -102 -135 -96 -122 l -102 -368 q -147 -371 -125 -362 q -193 -394 -170 -380 q -241 -420 -216 -408 q -290 -434 -265 -433 z "},"":{"ha":0,"x_min":-227,"x_max":71,"o":"m -227 -152 l -127 -67 q -49 -54 -102 -42 q -7 -72 -26 -60 q 25 -95 11 -83 q 51 -114 40 -106 q 71 -120 62 -121 l -42 -223 q -81 -229 -60 -235 q -125 -209 -102 -223 q -175 -178 -149 -195 q -227 -152 -200 -161 z "},"":{"ha":0,"x_min":0,"x_max":0,"o":""},"":{"ha":0,"x_min":0,"x_max":0,"o":""},"":{"ha":0,"x_min":0,"x_max":0,"o":""},"":{"ha":0,"x_min":0,"x_max":0,"o":""},"":{"ha":598,"x_min":12,"x_max":582,"o":"m 582 106 l 572 127 q 569 150 569 136 l 569 431 q 522 498 569 472 q 509 503 519 500 q 501 505 505 505 q 494 506 498 505 q 493 506 494 506 q 492 507 493 507 q 490 507 492 507 l 488 507 q 495 515 491 511 q 502 525 498 519 q 510 538 506 531 q 519 552 514 545 q 566 682 559 624 q 566 689 566 685 q 566 701 566 694 l 566 706 q 475 873 566 830 l 270 693 l 270 692 q 254 668 260 684 q 255 672 255 673 q 252 665 254 671 q 250 655 251 660 q 247 646 248 650 l 247 261 l 246 258 q 246 258 246 259 q 245 254 245 257 q 244 248 244 250 q 243 242 243 245 q 241 229 241 232 q 236 221 237 224 q 233 216 234 218 q 232 214 232 215 q 231 213 232 213 l 234 203 q 313 245 269 203 q 354 333 354 290 l 354 710 l 411 759 q 472 620 472 721 l 472 616 q 471 610 471 613 q 471 605 471 608 q 470 597 471 600 q 468 591 469 595 l 468 586 q 418 500 453 514 l 418 535 l 381 535 l 381 185 q 309 201 353 201 q 174 151 240 201 q 78 11 109 103 q 231 69 149 69 l 237 69 l 244 69 q 248 69 246 69 q 253 68 250 68 q 258 67 256 68 q 262 67 260 67 q 269 66 265 66 q 371 12 300 66 q 477 90 416 64 q 499 94 492 92 q 508 97 504 96 q 515 99 511 98 q 519 101 517 101 q 520 101 520 101 q 521 102 520 102 l 522 102 q 534 103 532 102 l 549 103 q 557 101 551 102 q 562 101 559 101 q 569 100 566 100 q 571 100 570 100 q 572 99 572 99 l 571 99 q 578 98 575 98 l 582 106 m 242 705 q 191 684 212 699 q 151 648 168 669 q 110 530 110 600 l 110 524 l 111 523 l 111 515 q 42 420 42 503 q 60 349 42 369 l 60 351 q 64 346 62 349 q 71 339 67 343 q 77 332 74 336 q 83 324 79 328 q 106 366 83 366 l 109 367 l 111 367 l 111 157 q 109 144 110 150 q 108 134 108 139 l 108 135 l 106 132 l 108 134 q 106 128 106 130 l 100 119 l 113 119 l 115 121 l 117 121 l 117 122 q 155 144 132 122 q 225 279 225 203 l 225 645 q 245 696 225 680 l 242 705 q 250 707 245 705 q 287 724 268 713 q 321 750 305 734 q 362 832 360 785 l 356 836 q 306 813 333 813 q 256 829 292 813 q 140 859 187 859 q 72 836 105 859 q 25 781 38 812 q 12 728 12 750 l 12 713 q 61 745 37 745 q 102 735 75 745 q 216 705 171 705 l 217 703 l 220 703 l 231 703 q 237 704 235 703 q 242 705 239 704 m 422 160 q 418 163 420 161 l 418 237 l 420 238 l 422 238 l 424 241 l 427 241 l 429 242 l 434 242 l 435 243 l 439 243 l 441 242 l 443 242 q 453 241 446 241 l 454 240 q 457 238 456 240 l 457 131 q 444 142 450 137 q 435 150 439 146 q 422 160 427 155 m 453 395 l 452 394 l 451 394 q 448 393 450 393 q 444 391 446 393 l 432 391 q 421 395 425 391 l 420 395 q 418 395 418 397 l 418 454 l 429 454 l 430 450 q 457 429 457 450 l 457 396 q 453 395 456 395 m 446 290 q 443 291 444 290 q 442 291 442 291 q 441 292 441 292 l 429 292 l 427 290 l 426 290 q 422 288 424 289 q 418 286 420 288 l 418 349 l 421 349 q 432 345 425 345 l 448 345 l 449 346 l 454 346 l 456 349 l 457 349 l 457 286 q 446 290 452 288 m 61 349 l 62 349 q 60 349 61 349 l 60 349 l 61 349 m 296 946 l 374 946 l 374 -76 l 296 -76 l 296 946 z "},"":{"ha":251,"x_min":27,"x_max":258,"o":"m 27 76 l 27 646 q 55 670 41 655 q 80 700 68 685 q 103 725 92 714 q 125 736 115 736 q 173 712 153 723 q 205 691 192 701 q 228 670 219 680 q 243 648 237 660 q 220 646 230 650 q 204 634 211 642 q 193 617 198 627 q 184 599 189 608 l 184 134 q 201 139 195 140 q 210 133 206 138 q 216 124 213 129 q 224 118 218 119 q 227 153 229 135 q 214 183 224 172 q 235 171 227 178 q 249 156 243 163 q 258 138 255 148 q 247 98 257 119 q 220 57 237 77 q 179 23 203 38 q 125 1 155 7 q 103 10 115 1 q 80 31 92 19 q 55 55 68 42 q 27 76 41 67 z "},"":{"ha":508,"x_min":34,"x_max":508,"o":"m 34 76 l 34 646 q 61 670 48 655 q 87 700 75 685 q 110 725 99 714 q 132 736 121 736 q 180 712 160 723 q 213 691 199 701 q 235 670 226 680 q 250 648 243 660 q 228 646 237 650 q 212 634 218 642 q 200 617 205 627 q 191 599 195 608 l 191 134 q 208 139 202 140 q 217 133 214 138 q 223 124 220 129 q 232 118 226 119 q 234 153 236 135 q 221 183 232 172 q 242 171 234 178 q 256 156 251 163 q 266 138 262 148 q 254 98 264 119 q 228 57 245 77 q 186 23 210 38 q 132 1 162 7 q 110 10 121 1 q 87 31 99 19 q 61 55 75 42 q 34 76 48 67 m 277 76 l 277 646 q 304 670 291 655 q 329 700 317 685 q 352 725 341 714 q 374 736 363 736 q 422 712 402 723 q 455 691 441 701 q 477 670 468 680 q 493 648 486 660 q 470 646 479 650 q 454 634 460 642 q 442 617 447 627 q 433 599 437 608 l 433 134 q 450 139 444 140 q 459 133 456 138 q 465 124 463 129 q 474 118 468 119 q 476 153 479 135 q 463 183 474 172 q 485 171 476 178 q 498 156 493 163 q 508 138 505 148 q 497 98 507 119 q 470 57 487 77 q 428 23 452 38 q 374 1 404 7 q 352 10 363 1 q 329 31 341 19 q 304 55 317 42 q 277 76 291 67 z "},"":{"ha":311,"x_min":-161,"x_max":346,"o":"m 251 164 q 262 160 256 161 q 276 157 269 159 q 288 148 282 154 q 296 126 293 141 q 303 141 300 134 q 307 156 307 148 q 306 174 308 163 q 298 202 304 185 q 334 177 323 199 q 340 125 346 155 q 310 65 334 96 q 239 16 286 35 q 186 27 221 6 q 94 107 151 49 l 94 867 q -111 892 68 914 q -125 821 -138 865 q -140 839 -134 835 q -149 848 -145 844 q -156 860 -153 852 q -161 890 -158 868 q -133 1000 -151 957 q -92 1074 -115 1044 q -39 1126 -68 1104 q 21 1173 -11 1148 q 71 1171 47 1178 q 117 1152 94 1164 q 163 1129 140 1141 q 214 1113 187 1117 q 271 1115 240 1108 q 338 1149 301 1122 q 277 1048 317 1086 q 188 997 237 1010 q 85 992 138 983 q -17 1028 31 1000 q -41 1025 -28 1031 q -63 1008 -53 1019 q -79 983 -73 998 q -85 956 -85 969 q 22 962 -28 964 q 114 954 71 961 q 190 935 156 947 q 251 911 224 924 l 251 164 z "},"":{"ha":434,"x_min":-5,"x_max":433,"o":"m 332 152 q 344 148 337 149 q 357 144 351 147 q 369 135 363 142 q 378 114 374 129 q 385 129 382 122 q 389 143 388 136 q 388 162 389 151 q 380 190 386 173 q 416 164 405 186 q 421 113 427 142 q 391 53 416 83 q 321 3 367 23 q 268 15 302 -6 q 176 95 233 37 l 176 781 q 189 843 180 818 q 211 889 198 869 q 239 927 223 909 q 276 964 256 944 q 175 1068 253 1019 q 92 992 127 1080 q 212 939 121 917 q -5 981 72 768 q 122 1141 79 1108 q 433 1004 243 1222 q 398 955 414 979 q 370 906 382 932 q 347 851 357 881 q 332 781 338 821 l 332 152 z "},"":{"ha":395,"x_min":-106,"x_max":420,"o":"m 295 145 q 307 141 300 142 q 320 138 313 140 q 332 129 326 135 q 341 107 338 122 q 348 122 345 115 q 352 137 351 129 q 351 155 353 144 q 342 183 349 166 q 370 170 359 181 q 385 143 381 159 q 385 107 389 127 q 369 67 381 87 q 335 28 357 47 q 283 -3 314 9 q 231 8 266 -13 q 138 88 195 30 l 138 780 q 155 837 143 810 q 186 890 168 864 q 228 942 204 916 q 281 999 252 969 q 253 1003 267 1002 q 225 1008 239 1004 q 200 1022 212 1013 q 179 1050 188 1031 q 117 991 148 1050 q 183 951 131 930 q 71 919 127 879 q -106 1085 62 1039 l -30 1151 q 54 1115 31 1150 l 81 1057 q 108 1102 94 1082 q 139 1135 122 1122 q 174 1154 155 1148 q 214 1156 193 1160 q 255 1130 232 1149 q 304 1092 278 1111 q 360 1061 331 1074 q 420 1055 390 1049 q 373 984 395 1016 q 333 920 350 951 q 305 854 315 888 q 294 780 295 821 l 295 145 z "},"":{"ha":480,"x_min":7,"x_max":460,"o":"m 301 531 q 265 534 279 532 q 234 543 250 536 q 197 562 218 550 q 139 593 175 574 q 119 541 122 566 q 125 496 115 515 q 157 467 134 477 q 216 460 180 457 q 138 432 172 440 q 78 431 104 423 q 36 465 53 439 q 7 541 18 492 q 92 622 50 585 q 170 685 134 660 q 236 721 207 711 q 285 719 266 730 q 369 665 325 693 q 460 613 413 636 l 460 -44 q 432 -69 446 -53 q 407 -101 419 -85 q 384 -129 395 -117 q 362 -142 372 -141 q 315 -115 334 -129 q 285 -89 297 -102 q 266 -63 273 -75 q 252 -39 258 -50 q 273 -38 264 -40 q 286 -31 281 -36 q 294 -19 290 -26 q 301 -3 297 -12 l 301 531 z "},"":{"ha":484,"x_min":20,"x_max":458,"o":"m 113 553 q 152 537 135 547 q 182 514 169 526 q 208 490 196 502 q 230 471 219 478 q 330 564 277 589 q 366 540 349 554 q 397 512 382 526 q 427 485 412 498 q 458 465 441 472 q 390 350 422 446 l 390 -42 q 376 -97 387 -73 q 350 -139 365 -121 q 319 -168 335 -157 q 288 -182 302 -178 q 252 -173 266 -184 q 227 -148 238 -161 q 206 -124 216 -135 q 179 -116 195 -114 q 253 26 253 -71 l 253 295 l 325 421 l 275 473 l 226 374 q 128 468 173 450 q 109 451 113 466 q 112 417 104 435 q 141 384 119 399 q 199 366 162 368 q 165 317 186 332 q 121 307 144 302 q 71 336 97 311 q 20 406 45 361 l 113 553 l 113 553 z "},"":{"ha":0,"x_min":-501,"x_max":156,"o":"m -106 847 q -75 867 -83 857 q -72 885 -68 878 q -91 896 -77 893 q -124 890 -104 898 q -40 960 -130 941 l 35 910 q -118 790 -66 765 q -218 886 -181 808 q -313 782 -314 836 q -433 972 -501 833 q -112 1093 -328 1107 q 12 1194 12 1080 q -106 1002 156 1013 q -289 887 -334 1043 q -214 949 -261 926 q -192 924 -204 938 q -168 896 -180 909 q -144 871 -155 882 q -125 855 -133 860 q -118 852 -121 854 q -112 849 -115 850 q -106 847 -109 848 z "}}}
